<?xml version="1.0" encoding="utf-8"?>
<svg viewBox="39.1589 154.4338 795.7786 279.1464" xmlns="http://www.w3.org/2000/svg">
  <g stroke-width="2.00" fill="none" stroke-linecap="butt" style="" transform="matrix(0.5326319336891174, 0, 0, 0.5422919988632202, -29.758930206298835, 13.598110198974616)">
    <g style="" transform="matrix(0.999312, 0, 0, 1.002169, 0.089062, -0.563247)">
      <g>
        <g>
          <path stroke="#b3ebe0" vector-effect="non-scaling-stroke" d=" M 436.50 276.96 C 407.82 287.06 382.58 300.42 356.77 316.70 C 346.86 322.95 335.84 330.78 325.42 337.91 Q 316.85 343.76 307.00 352.46"/>
          <path stroke="#80e2da" vector-effect="non-scaling-stroke" d=" M 307.00 352.46 Q 279.54 375.05 255.75 401.46"/>
          <path stroke="#7fd5d1" vector-effect="non-scaling-stroke" d=" M 255.75 401.46 Q 233.42 426.56 216.79 455.75"/>
          <path stroke="#7fc8c9" vector-effect="non-scaling-stroke" d=" M 216.79 455.75 Q 198.33 487.63 186.25 522.46"/>
          <path stroke="#7fbcc6" vector-effect="non-scaling-stroke" d=" M 186.25 522.46 C 173.10 557.63 168.28 591.58 163.78 629.79"/>
          <path stroke="#7fa0b5" vector-effect="non-scaling-stroke" d=" M 163.78 629.79 Q 160.92 643.75 157.80 657.76 C 153.41 677.46 146.40 691.87 130.75 705.21"/>
          <path stroke="#8096b4" vector-effect="non-scaling-stroke" d=" M 130.75 705.21 Q 129.97 705.68 129.50 706.44 Q 129.23 706.88 129.63 707.20 Q 137.72 713.77 143.78 717.44 C 176.86 737.53 211.94 751.69 249.46 760.91 Q 272.19 766.49 280.00 767.49 Q 343.55 775.63 407.51 772.45 C 414.66 772.09 425.68 771.98 434.76 771.10"/>
          <path stroke="#7fa0b5" vector-effect="non-scaling-stroke" d=" M 434.76 771.10 Q 481.64 769.90 528.46 772.64 C 533.43 772.93 537.94 772.77 542.59 772.35 A 0.50 0.50 0.0 0 0 542.64 771.36 C 524.02 767.94 506.35 762.10 488.24 756.86 C 455.07 747.26 426.33 732.78 396.72 714.51 Q 366.62 695.94 345.30 671.71 Q 339.65 665.29 326.46 648.25"/>
          <path stroke="#7fabbc" vector-effect="non-scaling-stroke" d=" M 326.46 648.25 Q 310.55 625.07 300.74 598.72"/>
          <path stroke="#7fa0b5" vector-effect="non-scaling-stroke" d=" M 300.74 598.72 L 295.21 582.25"/>
          <path stroke="#7fabbc" vector-effect="non-scaling-stroke" d=" M 295.21 582.25 L 291.21 565.25"/>
          <path stroke="#7fbcc6" vector-effect="non-scaling-stroke" d=" M 291.21 565.25 Q 283.00 528.21 287.57 490.48"/>
          <path stroke="#7fabbc" vector-effect="non-scaling-stroke" d=" M 287.57 490.48 C 290.91 471.47 293.32 458.44 300.36 442.20"/>
          <path stroke="#7fbcc6" vector-effect="non-scaling-stroke" d=" M 300.36 442.20 L 307.25 427.29"/>
          <path stroke="#7fd5d1" vector-effect="non-scaling-stroke" d=" M 307.25 427.29 C 319.12 401.22 337.81 376.12 357.08 355.08 Q 367.67 343.52 378.83 336.25"/>
          <path stroke="#b3ebe0" vector-effect="non-scaling-stroke" d=" M 378.83 336.25 L 382.46 335.24 Q 383.36 334.99 382.70 335.65 Q 364.49 353.88 353.04 370.02 Q 349.14 375.51 338.00 393.71"/>
          <path stroke="#7fd5d1" vector-effect="non-scaling-stroke" d=" M 338.00 393.71 Q 332.71 401.20 328.79 409.50"/>
          <path stroke="#7fbcc6" vector-effect="non-scaling-stroke" d=" M 328.79 409.50 C 310.98 444.29 300.46 480.75 302.17 520.56"/>
          <path stroke="#7fabbc" vector-effect="non-scaling-stroke" d=" M 302.17 520.56 C 303.23 558.37 317.84 597.91 337.79 629.60 C 344.71 640.60 353.80 651.06 362.61 661.15 Q 376.95 677.58 394.68 690.26 Q 433.83 718.27 478.94 735.05 Q 499.98 742.88 528.21 750.50"/>
          <path stroke="#7fb0bc" vector-effect="non-scaling-stroke" d=" M 528.21 750.50 C 559.65 757.42 591.81 763.41 623.92 767.01 Q 683.74 773.72 743.78 769.31 C 771.33 767.29 799.80 760.54 826.30 752.78"/>
          <path stroke="#7fbcc6" vector-effect="non-scaling-stroke" d=" M 826.30 752.78 Q 852.76 744.77 878.37 734.52"/>
          <path stroke="#80e2da" vector-effect="non-scaling-stroke" d=" M 878.37 734.52 Q 885.43 732.39 893.56 727.55 C 908.49 718.66 917.53 712.68 928.14 700.54 C 932.31 695.76 935.40 690.35 938.54 684.80 A 0.38 0.37 -4.2 0 0 937.98 684.32 C 935.52 686.24 933.31 688.60 930.76 690.26 C 918.18 698.47 905.86 705.90 895.00 716.46"/>
          <path stroke="#7fbcc6" vector-effect="non-scaling-stroke" d=" M 895.00 716.46 Q 895.11 714.33 896.21 712.50"/>
          <path stroke="#7fb0bc" vector-effect="non-scaling-stroke" d=" M 896.21 712.50 C 900.00 704.99 905.09 694.15 907.54 683.76 Q 907.72 682.97 906.97 683.26 L 896.25 687.29"/>
          <path stroke="#7fbcc6" vector-effect="non-scaling-stroke" d=" M 896.25 687.29 Q 858.57 702.89 818.00 707.29"/>
          <path stroke="#7fd5d1" vector-effect="non-scaling-stroke" d=" M 818.00 707.29 Q 802.88 708.07 787.76 708.49 C 760.78 709.25 733.93 704.97 707.95 698.05 Q 680.32 690.70 656.01 673.43 C 642.04 663.51 629.98 649.86 632.75 631.29"/>
          <path stroke="#80e2da" vector-effect="non-scaling-stroke" d=" M 632.75 631.29 C 637.04 607.06 667.96 603.93 687.08 605.27 C 703.16 606.40 717.14 613.81 728.04 625.51 C 735.24 633.23 740.81 644.33 746.11 653.91 A 1.91 1.90 63.4 0 0 748.56 654.73 C 752.11 653.15 752.26 649.75 752.45 646.37"/>
          <path stroke="#b3ebe0" vector-effect="non-scaling-stroke" d=" M 752.45 646.37 Q 757.16 648.55 761.59 647.28 C 771.38 644.48 770.54 620.60 769.50 612.74 Q 765.53 582.90 747.75 558.71"/>
          <path stroke="#c6f0e7" vector-effect="non-scaling-stroke" d=" M 747.75 558.71 C 731.41 536.95 709.12 518.62 682.59 511.13 Q 665.84 506.39 651.26 506.56 C 617.95 506.94 582.89 522.97 557.50 544.46"/>
          <path stroke="#b3ebe0" vector-effect="non-scaling-stroke" d=" M 557.50 544.46 Q 543.73 555.83 532.54 569.75"/>
          <path stroke="#80e2da" vector-effect="non-scaling-stroke" d=" M 532.54 569.75 C 523.85 580.52 514.16 593.26 508.78 606.05 Q 500.87 624.83 495.19 637.59 Q 494.98 638.05 495.31 638.44 L 504.46 649.25"/>
          <path stroke="#7fbcc6" vector-effect="non-scaling-stroke" d=" M 504.46 649.25 Q 524.35 674.22 550.42 692.92"/>
          <path stroke="#7fb8c7" vector-effect="non-scaling-stroke" d=" M 550.42 692.92 Q 556.29 697.95 563.81 702.44 Q 591.26 718.82 621.53 727.03"/>
          <path stroke="#7fa0b5" vector-effect="non-scaling-stroke" d=" M 621.53 727.03 Q 627.36 729.17 633.49 730.22"/>
          <path stroke="#7fb8c7" vector-effect="non-scaling-stroke" d=" M 633.49 730.22 C 670.21 740.37 708.19 740.28 746.56 739.93 Q 761.26 739.80 775.75 737.46"/>
          <path stroke="#7fbcc6" vector-effect="non-scaling-stroke" d=" M 775.75 737.46 L 789.80 736.18"/>
          <path stroke="#7fb0bc" vector-effect="non-scaling-stroke" d=" M 789.80 736.18 Q 783.62 737.74 777.56 739.58 C 747.22 748.76 719.03 752.91 688.18 752.80 C 661.27 752.70 637.03 747.51 611.32 739.52 C 591.27 733.29 573.38 724.43 554.82 713.41 Q 512.25 688.15 486.71 647.25"/>
          <path stroke="#7fa0b5" vector-effect="non-scaling-stroke" d=" M 486.71 647.25 L 479.46 634.25"/>
          <path stroke="#7fb0bc" vector-effect="non-scaling-stroke" d=" M 479.46 634.25 L 473.27 622.08"/>
          <path stroke="#7fa0b5" vector-effect="non-scaling-stroke" d=" M 473.27 622.08 Q 468.77 609.98 465.65 597.45"/>
          <path stroke="#7fb0bc" vector-effect="non-scaling-stroke" d=" M 465.65 597.45 Q 465.06 591.79 463.19 586.28"/>
          <path stroke="#7fa0b5" vector-effect="non-scaling-stroke" d=" M 463.19 586.28 Q 461.58 569.80 462.31 561.31 Q 465.14 528.72 482.00 500.79"/>
          <path stroke="#7fd5d1" vector-effect="non-scaling-stroke" d=" M 482.00 500.79 C 495.90 480.19 509.53 465.50 530.92 452.87 Q 551.82 440.52 576.04 437.50"/>
          <path stroke="#80e2da" vector-effect="non-scaling-stroke" d=" M 576.04 437.50 C 614.58 432.44 658.03 441.31 680.15 475.32 C 688.14 487.60 693.13 499.52 700.04 511.50 A 0.60 0.59 -29.4 0 0 700.84 511.72 C 707.30 508.21 707.93 500.47 708.90 493.95"/>
          <path stroke="#b3ebe0" vector-effect="non-scaling-stroke" d=" M 708.90 493.95 Q 709.67 495.77 710.69 497.43 Q 711.71 499.10 713.55 499.89 Q 729.40 506.69 735.99 490.70 Q 746.46 465.32 743.21 435.25"/>
          <path stroke="#c6f0e7" vector-effect="non-scaling-stroke" d=" M 743.21 435.25 Q 741.14 414.82 735.70 400.30 C 722.25 364.40 693.35 331.08 663.00 305.99 C 599.16 253.24 511.97 248.54 436.50 276.96"/>
          <path stroke="#7bddc9" vector-effect="non-scaling-stroke" d=" M 743.21 435.25 Q 741.20 437.64 738.16 438.50 Q 737.68 438.63 737.36 439.01 C 734.94 441.90 731.69 442.90 728.90 444.82 Q 725.56 447.12 721.60 448.05 C 718.82 448.71 714.08 450.24 712.27 452.53 Q 709.25 456.32 704.61 457.68 Q 704.12 457.82 704.04 458.33 Q 703.95 458.89 703.54 459.25"/>
          <path stroke="#7dd9c1" vector-effect="non-scaling-stroke" d=" M 703.54 459.25 Q 694.62 431.30 676.49 408.25 C 650.65 375.41 620.79 352.31 581.55 337.46 Q 564.82 331.13 549.25 329.29"/>
          <path stroke="#48c6ba" vector-effect="non-scaling-stroke" d=" M 549.25 329.29 Q 474.89 316.83 408.44 349.19 Q 388.75 358.77 370.75 374.79"/>
          <path stroke="#7bddc9" vector-effect="non-scaling-stroke" d=" M 370.75 374.79 Q 369.98 374.86 369.74 374.43 Q 369.51 374.02 369.87 373.71 Q 388.71 357.04 407.96 347.72 C 430.62 336.75 450.99 331.27 474.08 326.52 A 0.35 0.35 0.0 0 0 474.27 325.95 Q 473.45 325.00 472.39 325.42 Q 471.90 325.61 471.48 325.29 C 467.25 321.98 465.16 317.20 461.06 314.17 Q 460.64 313.85 460.71 313.32 L 460.98 311.29 Q 461.05 310.79 460.68 310.44 Q 455.84 305.87 452.61 300.04 Q 452.32 299.51 451.75 299.28 L 448.29 297.90 Q 447.81 297.71 447.62 297.23 L 444.17 288.82 Q 443.84 288.00 444.72 288.00 L 446.50 288.00 Q 451.79 288.00 446.45 287.75 C 441.35 287.52 435.34 285.48 438.44 278.76 Q 438.68 278.26 438.12 278.20 L 436.90 278.08 Q 436.24 278.02 436.80 277.65 L 437.22 277.38 Q 437.36 277.29 437.23 277.17 Q 436.90 276.88 436.50 276.96"/>
          <path stroke="#37beaa" vector-effect="non-scaling-stroke" d=" M 549.25 329.29 Q 548.65 330.04 547.25 330.00 Q 535.40 329.63 521.69 331.96 C 513.52 333.35 501.66 332.39 492.17 334.10 C 448.82 341.91 401.05 363.72 374.08 399.89 A 1.71 1.71 0.0 0 0 375.17 402.60 Q 384.39 404.11 392.73 402.98 Q 394.12 402.80 395.90 404.04 Q 396.31 404.33 396.80 404.34 C 401.17 404.51 411.26 404.51 413.16 408.43 Q 413.36 408.83 413.14 409.21 L 408.00 418.21"/>
          <path stroke="#7fd5d1" vector-effect="non-scaling-stroke" d=" M 408.00 418.21 L 400.90 431.47"/>
          <path stroke="#019298" vector-effect="non-scaling-stroke" d=" M 400.90 431.47 Q 395.92 437.89 395.19 446.06"/>
          <path stroke="#7fd5d1" vector-effect="non-scaling-stroke" d=" M 395.19 446.06 C 388.98 462.89 387.11 476.13 384.78 492.13"/>
          <path stroke="#019e9b" vector-effect="non-scaling-stroke" d=" M 384.78 492.13 Q 382.53 491.27 380.42 490.26 Q 378.52 489.36 376.56 487.60 C 368.85 480.69 360.76 477.83 352.49 473.11 Q 352.00 472.82 352.00 472.26 L 352.00 471.01 Q 352.00 470.47 351.56 470.15 L 342.21 463.50"/>
          <path stroke="#019298" vector-effect="non-scaling-stroke" d=" M 342.21 463.50 Q 348.22 441.20 360.02 421.29 Q 360.45 420.57 359.73 421.00 L 359.30 421.25 Q 358.87 421.50 358.51 421.15 C 355.77 418.43 351.66 417.83 347.12 416.98 Q 346.88 416.94 346.75 416.73 L 346.56 416.41 Q 346.30 415.96 345.78 415.99 C 341.97 416.22 338.69 414.52 335.49 414.70 C 332.77 414.85 330.90 416.05 328.16 416.00 Q 327.85 416.00 327.72 415.72 L 327.09 414.41 Q 326.85 413.90 327.40 414.00 Q 327.55 414.02 327.69 414.08 Q 328.14 414.26 328.35 413.82 L 329.46 411.40 Q 329.60 411.10 329.40 410.84 Q 328.96 410.23 328.79 409.50"/>
          <path stroke="#35c2b3" vector-effect="non-scaling-stroke" d=" M 370.75 374.79 L 346.91 394.63 Q 346.49 394.98 345.95 394.89 L 338.00 393.71"/>
          <path stroke="#35c2b3" vector-effect="non-scaling-stroke" d=" M 378.83 336.25 Q 355.94 346.49 338.71 364.75"/>
          <path stroke="#35cfbc" vector-effect="non-scaling-stroke" d=" M 338.71 364.75 Q 336.75 362.97 336.47 360.29 Q 336.40 359.61 335.73 359.49 L 331.62 358.70 Q 331.09 358.60 330.79 358.17 L 329.36 356.15 Q 329.04 355.70 328.50 355.58 L 320.62 353.90 Q 320.00 353.76 320.00 354.40 L 320.00 355.00 Q 320.00 355.51 319.49 355.51 Q 318.07 355.52 316.75 354.90 Q 316.27 354.67 315.74 354.73 Q 311.55 355.18 308.11 352.79 Q 307.95 352.68 307.81 352.82 L 307.57 353.05 Q 307.40 353.22 307.29 353.01 L 307.00 352.46"/>
          <path stroke="#6ad4ba" vector-effect="non-scaling-stroke" d=" M 703.54 459.25 Q 706.79 468.76 707.96 478.75"/>
          <path stroke="#37cbb3" vector-effect="non-scaling-stroke" d=" M 707.96 478.75 Q 704.03 478.95 700.49 477.37 C 697.75 476.14 695.86 476.12 693.07 475.63 Q 692.51 475.53 692.35 474.98 Q 691.51 472.07 691.05 471.22 Q 655.01 403.40 581.50 380.54"/>
          <path stroke="#37beaa" vector-effect="non-scaling-stroke" d=" M 581.50 380.54 Q 531.27 365.04 479.97 376.91 C 465.06 380.37 448.85 387.52 435.72 396.69 C 428.63 401.64 421.96 409.24 415.59 415.91"/>
          <path stroke="#b5e7d8" vector-effect="non-scaling-stroke" d=" M 415.59 415.91 Q 412.94 415.39 411.98 418.05 Q 411.80 418.55 411.27 418.51 L 410.56 418.46 Q 410.53 418.46 410.54 418.43 L 410.72 418.09 Q 410.93 417.69 410.49 417.77 L 408.00 418.21"/>
          <path stroke="#7fbcc6" vector-effect="non-scaling-stroke" d=" M 413.96 418.25 C 403.16 432.10 396.34 452.70 393.71 469.50"/>
          <path stroke="#7fb0bc" vector-effect="non-scaling-stroke" d=" M 393.71 469.50 C 383.86 526.40 392.56 587.39 424.46 635.25"/>
          <path stroke="#7fa0b5" vector-effect="non-scaling-stroke" d=" M 424.46 635.25 Q 433.19 649.44 446.11 662.64 C 462.97 679.87 478.51 694.30 498.26 706.23 C 514.97 716.33 530.82 725.80 549.00 733.21"/>
          <path stroke="#7fb0bc" vector-effect="non-scaling-stroke" d=" M 549.00 733.21 L 564.29 739.73 Q 564.68 739.90 564.26 740.00 Q 564.04 740.04 563.80 739.96 C 512.01 722.03 461.49 694.72 427.79 650.50"/>
          <path stroke="#7fbcc6" vector-effect="non-scaling-stroke" d=" M 427.79 650.50 C 408.02 623.97 393.37 593.14 387.54 560.50"/>
          <path stroke="#7fc8c9" vector-effect="non-scaling-stroke" d=" M 387.54 560.50 C 383.77 536.98 382.06 515.53 384.78 492.13"/>
          <path stroke="#7fbcc6" vector-effect="non-scaling-stroke" d=" M 395.19 446.06 L 400.90 431.47"/>
          <path stroke="#018590" vector-effect="non-scaling-stroke" d=" M 342.21 463.50 C 335.64 488.57 331.51 514.27 332.55 540.25"/>
          <path stroke="#016884" vector-effect="non-scaling-stroke" d=" M 332.55 540.25 Q 331.79 540.56 331.93 539.64 Q 331.97 539.41 331.80 539.57 L 331.57 539.80 Q 331.37 540.01 331.12 539.87 C 329.73 539.13 328.52 538.80 327.38 537.61 Q 324.79 534.90 321.11 533.89 Q 320.63 533.75 320.27 533.40 Q 314.26 527.52 311.52 525.22 Q 307.77 522.09 302.17 520.56"/>
          <path stroke="#018590" vector-effect="non-scaling-stroke" d=" M 387.54 560.50 C 386.83 565.69 388.75 569.05 389.47 573.91 C 389.89 576.76 391.65 579.25 390.61 582.22 Q 390.46 582.66 389.99 582.66 C 385.73 582.65 383.80 580.30 380.93 578.59 Q 374.64 574.82 369.93 569.21 C 365.55 563.99 358.88 560.37 353.79 556.21 C 352.09 554.82 348.74 552.81 346.65 550.35 Q 345.39 548.87 339.90 545.77 Q 339.50 545.54 339.14 545.84 C 337.04 547.57 336.27 544.31 334.08 544.81 Q 333.70 544.90 333.59 544.53 Q 333.42 543.98 332.79 544.00"/>
          <path stroke="#017487" vector-effect="non-scaling-stroke" d=" M 332.79 544.00 L 332.55 540.25"/>
          <path stroke="#019298" vector-effect="non-scaling-stroke" d=" M 307.25 427.29 Q 305.74 426.20 303.85 426.52 Q 303.11 426.64 303.76 426.26 L 304.12 426.05 Q 304.47 425.84 304.11 425.66 L 292.26 419.81 Q 291.81 419.59 291.52 419.99 Q 263.17 458.91 241.75 502.04"/>
          <path stroke="#019e9b" vector-effect="non-scaling-stroke" d=" M 241.75 502.04 C 240.03 502.95 239.92 498.37 240.11 497.50 Q 240.22 497.01 240.09 496.53 Q 239.32 493.68 239.81 492.06 Q 241.60 486.18 239.08 480.68 C 238.94 480.38 238.90 480.12 239.25 479.99 Q 239.51 479.88 239.46 479.61 Q 238.03 472.03 234.68 468.32 C 232.53 465.94 222.30 456.73 216.79 455.75"/>
          <path stroke="#02b8ac" vector-effect="non-scaling-stroke" d=" M 255.75 401.46 L 256.09 402.21 Q 256.30 402.66 256.79 402.71 Q 261.55 403.14 266.32 403.03 C 268.47 402.98 270.42 403.98 272.70 404.02 Q 273.60 404.04 272.75 403.73 L 272.00 403.45 Q 271.51 403.27 272.03 403.26 C 277.07 403.12 282.58 405.35 287.50 406.58 Q 288.00 406.70 288.00 407.22 L 288.00 407.61 Q 288.00 408.09 288.44 408.29 L 296.33 411.88 Q 296.80 412.10 297.11 411.69 Q 316.11 386.61 338.71 364.75"/>
          <path stroke="#35cfbc" vector-effect="non-scaling-stroke" d=" M 707.96 478.75 L 708.90 493.95"/>
          <path stroke="#02b8ac" vector-effect="non-scaling-stroke" d=" M 581.50 380.54 Q 579.40 381.20 577.49 380.17 Q 577.07 379.95 576.60 380.01 Q 573.14 380.43 569.65 381.02 C 558.77 382.84 562.00 396.42 565.59 402.89 Q 565.87 403.38 565.73 403.93 L 565.24 405.92 Q 565.11 406.45 565.33 406.95 Q 567.10 411.00 569.41 414.77 C 572.16 419.24 575.24 428.74 574.48 433.90 Q 574.40 434.42 574.75 434.80 Q 575.81 435.96 576.04 437.50"/>
          <path stroke="#017787" vector-effect="non-scaling-stroke" d=" M 482.00 500.79 L 480.25 502.54"/>
          <path stroke="#019298" vector-effect="non-scaling-stroke" d=" M 480.25 502.54 Q 478.81 502.74 477.98 503.79 Q 477.65 504.21 477.19 503.93 Q 473.17 501.49 470.55 497.55 Q 470.25 497.09 469.76 496.84 Q 469.04 496.46 469.15 495.90 Q 469.26 495.40 468.83 495.12 Q 466.95 493.88 466.32 491.63 Q 466.17 491.10 465.77 490.71 C 464.65 489.64 455.02 481.10 456.03 480.30 Q 456.42 480.00 455.93 480.00 L 455.01 480.00 Q 454.50 480.00 454.18 479.59 Q 449.54 473.46 444.45 467.69 C 440.78 463.55 438.47 459.02 435.61 454.41 C 430.56 446.27 426.86 437.56 423.81 428.66 C 422.99 426.28 420.90 423.28 420.76 420.84 Q 420.72 420.30 420.24 420.06 Q 417.85 418.86 415.25 419.52 Q 414.79 419.64 414.54 419.23 L 413.96 418.25"/>
          <path stroke="#7fd5d1" vector-effect="non-scaling-stroke" d=" M 413.96 418.25 L 415.59 415.91"/>
          <path stroke="#015272" vector-effect="non-scaling-stroke" d=" M 549.00 733.21 Q 548.93 732.88 549.03 732.63 Q 549.26 732.11 549.77 732.37 Q 553.41 734.25 557.47 734.73 Q 558.63 734.87 557.54 734.44 L 555.94 733.80 Q 554.40 733.20 555.74 733.50 Q 556.33 733.64 556.66 733.60 Q 559.15 733.27 556.55 732.89 Q 555.63 732.76 555.54 731.79 Q 555.49 731.31 555.14 730.99 C 550.48 726.78 546.79 722.61 547.09 715.94 Q 547.11 715.44 547.32 714.99 Q 548.06 713.38 546.66 712.49 Q 546.13 712.16 546.24 711.54 L 546.41 710.56 Q 546.44 710.36 546.27 710.24 Q 534.58 701.92 523.25 693.13 C 509.86 682.74 502.40 670.26 491.37 656.19 Q 488.20 652.15 486.71 647.25"/>
          <path stroke="#016d83" vector-effect="non-scaling-stroke" d=" M 789.80 736.18 C 791.65 735.79 793.44 734.79 795.10 734.39 C 822.99 727.61 846.87 717.35 876.57 704.32 Q 888.25 699.19 900.96 697.65 Q 901.40 697.60 901.56 697.19 L 905.33 687.82 A 1.04 1.04 0.0 0 0 904.12 686.42 C 902.67 686.76 896.78 689.06 896.25 687.29"/>
          <path stroke="#016d83" vector-effect="non-scaling-stroke" d=" M 896.21 712.50 Q 894.15 710.61 890.78 711.08 Q 881.99 712.32 874.87 715.48 Q 870.19 717.56 866.49 718.99 C 859.19 721.82 853.34 726.48 846.71 730.49 C 841.55 733.62 836.08 738.15 830.14 741.17 C 829.29 741.60 829.15 741.98 829.25 742.90 Q 829.30 743.41 828.87 743.68 Q 826.46 745.14 825.45 746.93 Q 823.83 749.79 826.30 752.78"/>
          <path stroke="#015e7c" vector-effect="non-scaling-stroke" d=" M 480.25 502.54 Q 468.76 522.23 464.00 544.54"/>
          <path stroke="#016d83" vector-effect="non-scaling-stroke" d=" M 464.00 544.54 Q 463.93 546.63 462.34 546.78 Q 461.87 546.82 461.78 547.28 Q 461.59 548.21 462.65 548.77 Q 463.24 549.08 462.58 549.11 L 461.94 549.14 Q 461.54 549.16 461.24 548.89 Q 459.32 547.24 454.72 543.28 C 451.74 540.71 450.28 537.07 447.64 534.53 Q 443.76 530.81 439.83 527.14 Q 439.48 526.80 439.34 526.34 Q 438.55 523.61 435.39 520.61 Q 432.43 517.80 423.69 507.55 Q 422.01 505.57 421.48 503.00 Q 421.38 502.51 421.59 502.06 C 423.46 497.98 418.71 498.66 418.73 495.54 Q 418.74 495.04 418.42 494.65 C 415.83 491.47 411.15 482.11 407.38 481.79 Q 406.91 481.75 406.74 481.30 Q 406.32 480.17 405.27 479.99 Q 404.86 479.92 404.58 479.61 L 396.81 470.80 Q 396.50 470.44 396.05 470.29 L 393.71 469.50"/>
          <path stroke="#015272" vector-effect="non-scaling-stroke" d=" M 464.00 544.54 Q 459.62 565.36 463.19 586.28"/>
          <path stroke="#015272" vector-effect="non-scaling-stroke" d=" M 465.65 597.45 Q 466.47 610.73 473.27 622.08"/>
          <path stroke="#015272" vector-effect="non-scaling-stroke" d=" M 479.46 634.25 C 477.18 634.72 482.27 641.68 482.86 642.94 Q 483.17 643.60 482.45 643.62 Q 480.77 643.67 479.76 645.10 Q 479.40 645.61 478.80 645.47 Q 470.16 643.44 461.33 644.36 Q 460.90 644.41 460.58 644.12 L 458.28 642.06 Q 457.86 641.69 457.30 641.72 Q 453.12 641.99 451.65 638.36 Q 451.47 637.92 451.04 637.71 L 442.21 633.52 Q 441.75 633.30 441.75 633.81 L 441.75 634.24 Q 441.75 634.87 441.22 634.53 Q 434.82 630.36 427.23 631.32 C 425.68 631.51 424.96 632.56 425.66 634.03 Q 425.96 634.65 425.27 634.63 Q 424.56 634.61 424.46 635.25"/>
          <path stroke="#016d83" vector-effect="non-scaling-stroke" d=" M 427.79 650.50 Q 427.67 652.43 429.25 653.78 Q 429.67 654.14 429.20 654.43 Q 425.58 656.67 423.64 660.47 Q 423.43 660.90 422.96 660.80 Q 411.35 658.39 400.86 652.90 Q 400.33 652.62 400.59 652.07 L 400.81 651.60 Q 401.02 651.16 400.60 650.93 L 398.05 649.46 Q 397.48 649.14 397.94 648.68 L 398.23 648.39 Q 398.73 647.89 398.13 647.53 L 395.24 645.81 Q 394.78 645.53 394.33 645.83 Q 393.69 646.24 392.70 645.89 Q 392.23 645.73 391.81 645.45 L 384.36 640.47 Q 384.00 640.23 384.00 639.80 L 384.00 638.51 Q 384.00 637.97 383.61 637.61 C 378.65 633.00 371.80 629.28 366.22 625.25 Q 366.14 625.19 366.06 625.23 Q 365.91 625.28 365.78 625.32 Q 365.56 625.39 365.40 625.23 C 363.53 623.27 360.57 622.96 359.13 621.52 Q 358.66 621.05 358.86 621.69 L 359.03 622.22 Q 359.16 622.63 358.78 622.42 L 351.96 618.50"/>
          <path stroke="#016884" vector-effect="non-scaling-stroke" d=" M 332.79 544.00 C 334.48 569.39 340.20 595.66 351.96 618.50"/>
          <path stroke="#015c7a" vector-effect="non-scaling-stroke" d=" M 351.96 618.50 C 365.56 645.71 383.69 666.57 406.07 686.84 C 423.97 703.06 446.51 716.52 467.91 727.62 C 486.50 737.27 508.27 743.83 527.86 749.52 Q 528.30 749.65 528.25 750.11 L 528.21 750.50"/>
          <path stroke="#016884" vector-effect="non-scaling-stroke" d=" M 300.36 442.20 Q 293.98 454.69 291.15 466.93 Q 288.75 477.29 287.57 490.48"/>
          <path stroke="#016884" vector-effect="non-scaling-stroke" d=" M 291.21 565.25 Q 290.00 570.45 291.65 575.51 Q 291.80 575.98 291.71 576.47 Q 291.58 577.09 292.07 577.23 Q 292.55 577.37 292.33 577.82 L 291.91 578.67 Q 291.71 579.09 291.28 578.90 L 288.35 577.59 Q 288.00 577.44 288.00 577.05 L 288.00 576.51 Q 288.00 576.01 287.50 576.01 C 285.18 575.98 283.22 576.29 280.99 575.36 C 276.61 573.54 272.73 573.42 268.98 571.86 Q 268.45 571.64 268.56 571.08 L 268.92 569.12 Q 269.01 568.64 268.54 568.52 Q 263.03 567.12 258.11 564.26 Q 257.64 563.99 257.10 564.01 Q 254.58 564.11 252.36 562.89 Q 251.91 562.64 251.39 562.65 Q 243.74 562.90 236.52 559.98"/>
          <path stroke="#015e7c" vector-effect="non-scaling-stroke" d=" M 236.52 559.98 Q 236.54 538.39 240.91 517.12 Q 241.02 516.56 240.52 516.29 Q 238.81 515.36 237.20 516.38 Q 236.88 516.58 236.54 516.43 Q 235.96 516.15 235.29 516.25"/>
          <path stroke="#018590" vector-effect="non-scaling-stroke" d=" M 235.29 516.25 L 241.75 502.04"/>
          <path stroke="#016a7f" vector-effect="non-scaling-stroke" d=" M 235.29 516.25 L 213.96 570.00"/>
          <path stroke="#018590" vector-effect="non-scaling-stroke" d=" M 213.96 570.00 Q 212.10 566.64 211.99 562.89 C 211.87 558.49 209.69 554.12 208.72 549.78 C 207.80 545.62 206.20 543.19 203.52 540.25 Q 202.13 538.74 201.22 536.71 C 198.62 530.94 194.67 529.36 190.34 525.39 Q 188.48 523.68 186.25 522.46"/>
          <path stroke="#014d73" vector-effect="non-scaling-stroke" d=" M 295.21 582.25 Q 294.90 584.37 296.23 588.31 Q 298.66 595.48 300.74 598.72"/>
          <path stroke="#014d73" vector-effect="non-scaling-stroke" d=" M 236.52 559.98 Q 235.23 580.27 239.73 600.00 Q 244.86 622.51 249.96 636.27 Q 259.97 663.28 279.01 690.06 C 279.66 690.98 280.64 691.35 281.60 691.87 Q 282.10 692.13 282.05 691.57 L 281.99 690.84 Q 281.95 690.32 282.40 690.03 L 287.02 687.10 A 2.19 2.19 0.0 0 1 290.07 687.81 L 291.57 690.27 Q 291.85 690.72 292.32 690.46 Q 295.50 688.66 299.14 688.74 A 0.82 0.81 -9.0 0 0 299.93 687.66 L 298.85 684.46 Q 298.63 683.80 299.32 683.73 Q 302.23 683.44 302.96 682.96 Q 308.71 679.21 312.26 677.50 C 314.81 676.28 316.97 674.54 319.50 673.28 Q 320.00 673.03 320.00 672.48 L 320.00 670.44 Q 320.00 669.79 320.63 669.67 Q 327.90 668.22 332.05 662.14 Q 332.36 661.69 332.20 661.17 Q 331.78 659.77 332.17 658.38 Q 332.31 657.89 332.01 657.49 C 330.82 655.91 325.62 650.85 326.46 648.25"/>
          <path stroke="#02386b" vector-effect="non-scaling-stroke" d=" M 434.76 771.10 Q 426.79 770.29 418.78 770.87 Q 418.27 770.91 417.85 770.60 C 414.73 768.35 411.58 767.77 408.23 766.64 C 395.82 762.45 381.76 758.78 370.84 754.56 C 346.11 744.99 320.53 732.02 301.25 713.94 Q 301.14 713.83 301.09 713.98 Q 301.05 714.10 301.01 714.23 Q 300.92 714.55 300.69 714.31 L 300.41 714.03 Q 300.09 713.71 299.63 713.73 L 288.50 714.24 Q 288.00 714.26 288.00 714.76 L 288.00 715.75 Q 288.00 716.38 287.55 715.95 L 285.30 713.76 Q 284.97 713.44 284.52 713.34 L 280.42 712.46 Q 279.88 712.34 279.79 712.89 L 279.60 714.12 Q 279.56 714.40 279.28 714.34 Q 276.85 713.90 274.39 714.14 C 272.28 714.36 270.87 713.73 268.98 713.13 C 265.21 711.93 261.69 713.37 257.71 712.63 C 252.97 711.76 247.95 713.47 244.48 714.02 Q 236.47 715.27 229.23 718.95 C 226.45 720.37 218.31 723.14 215.49 722.07 C 212.26 720.84 208.94 721.04 205.65 720.32 C 201.95 719.50 198.60 720.49 195.16 719.71 Q 191.29 718.84 187.42 717.96 C 184.80 717.36 182.33 717.88 179.60 717.72 Q 178.99 717.69 179.54 717.42 L 184.21 715.19 A 1.63 1.62 -38.0 0 1 185.95 715.40 Q 187.45 716.63 189.28 716.12 Q 189.99 715.92 189.33 715.61 Q 187.10 714.54 185.56 714.81 Q 179.57 715.84 174.41 713.28 Q 172.16 712.16 170.37 711.98 Q 161.00 711.07 151.60 710.90 C 148.28 710.84 144.56 710.05 140.97 710.01 Q 140.43 710.01 139.98 709.71 Q 138.96 709.03 137.73 709.71 Q 137.29 709.96 136.79 709.89 Q 132.48 709.26 130.75 705.21"/>
          <path stroke="#015e7c" vector-effect="non-scaling-stroke" d=" M 163.78 629.79 Q 166.76 629.24 169.64 628.41 Q 172.46 627.60 175.02 625.84 C 194.57 612.37 206.27 592.18 213.96 570.00"/>
          <path stroke="#029fa1" vector-effect="non-scaling-stroke" d=" M 878.37 734.52 L 893.89 719.85 Q 894.28 719.49 894.25 718.95 Q 894.16 717.51 895.00 716.46"/>
          <path stroke="#01758e" vector-effect="non-scaling-stroke" d=" M 763.25 722.29 L 762.85 723.34 Q 762.66 723.86 763.06 724.25 Q 768.08 729.05 770.11 735.76 Q 770.18 736.00 770.13 736.02 C 769.73 736.16 771.15 737.27 771.87 737.15 C 773.12 736.94 774.23 736.96 775.51 736.75 Q 775.91 736.69 775.93 737.09 Q 775.95 737.34 775.75 737.46"/>
          <path stroke="#015a7d" vector-effect="non-scaling-stroke" d=" M 633.49 730.22 Q 627.91 727.05 621.53 727.03"/>
          <path stroke="#018191" vector-effect="non-scaling-stroke" d=" M 541.97 678.28 Q 550.94 680.36 560.01 679.88 Q 560.18 679.87 560.26 680.03 L 560.41 680.34 Q 560.84 681.23 561.16 680.29 L 561.30 679.83 Q 561.46 679.36 561.96 679.32 Q 565.26 679.04 568.52 679.57 Q 568.63 679.59 568.67 679.48 Q 568.72 679.34 568.76 679.17 Q 568.87 678.56 569.48 678.69 Q 573.94 679.65 577.39 676.73"/>
          <path stroke="#019298" vector-effect="non-scaling-stroke" d=" M 818.00 707.29 Q 818.07 707.43 818.24 707.51 Q 818.88 707.77 818.25 707.75 Q 818.12 707.75 817.99 707.75 Q 817.70 707.75 817.79 708.02 C 820.02 715.08 768.70 721.85 763.25 722.29"/>
          <path stroke="#018e99" vector-effect="non-scaling-stroke" d=" M 763.25 722.29 Q 749.63 723.12 736.01 723.53 C 688.42 724.96 635.87 703.49 604.16 667.52 C 588.22 649.45 579.54 628.01 579.14 603.23 Q 579.04 596.99 579.69 593.36 C 579.86 592.42 579.57 591.63 578.75 591.21"/>
          <path stroke="#7fb8c7" vector-effect="non-scaling-stroke" d=" M 567.29 601.00 Q 563.68 606.70 563.51 613.51 C 562.84 640.64 569.83 666.52 590.60 685.15 Q 608.53 701.23 633.25 711.45 Q 633.87 711.70 633.20 711.74 Q 632.08 711.80 631.28 711.50 C 612.66 704.44 591.11 691.97 577.39 676.73"/>
          <path stroke="#7fc8c9" vector-effect="non-scaling-stroke" d=" M 577.39 676.73 C 567.49 665.44 563.10 649.81 561.71 635.25"/>
          <path stroke="#018590" vector-effect="non-scaling-stroke" d=" M 535.29 617.50 Q 533.00 625.09 532.08 632.92 C 530.29 648.08 535.29 664.76 541.97 678.28"/>
          <path stroke="#01758e" vector-effect="non-scaling-stroke" d=" M 541.97 678.28 L 550.42 692.92"/>
          <path stroke="#6ad4ba" vector-effect="non-scaling-stroke" d=" M 718.71 583.50 Q 738.26 604.14 748.96 630.50"/>
          <path stroke="#37cbb3" vector-effect="non-scaling-stroke" d=" M 748.96 630.50 L 744.58 630.38 Q 744.07 630.36 743.71 629.99 Q 741.08 627.16 740.33 623.28 Q 740.25 622.88 739.90 622.69 L 737.72 621.50 Q 737.28 621.26 736.98 620.86 C 718.89 596.63 692.06 576.71 661.95 570.56 C 641.10 566.30 613.97 569.94 595.28 581.16"/>
          <path stroke="#37beaa" vector-effect="non-scaling-stroke" d=" M 595.28 581.16 Q 586.46 585.40 578.75 591.21"/>
          <path stroke="#37a1a0" vector-effect="non-scaling-stroke" d=" M 578.75 591.21 Q 572.61 595.61 567.29 601.00"/>
          <path stroke="#b5e7d8" vector-effect="non-scaling-stroke" d=" M 567.29 601.00 C 572.22 584.68 584.20 574.19 597.64 564.80 Q 603.33 560.83 608.50 556.21"/>
          <path stroke="#02b8ac" vector-effect="non-scaling-stroke" d=" M 632.75 631.29 Q 630.89 633.56 630.68 637.93 Q 630.55 640.61 627.66 639.89 Q 627.23 639.78 626.98 639.42 Q 622.79 633.43 621.39 626.30 C 620.69 622.75 618.59 620.07 617.57 616.60 Q 616.78 613.90 615.57 612.26 C 610.98 606.07 605.38 600.47 600.73 594.42 Q 600.44 594.05 600.91 594.01 Q 601.06 594.00 601.21 594.01 Q 601.72 594.07 601.45 593.63 L 599.12 590.03 Q 598.83 589.57 598.96 589.05 Q 600.38 583.43 595.28 581.16"/>
          <path stroke="#37cbb3" vector-effect="non-scaling-stroke" d=" M 653.74 547.82 Q 629.99 546.15 608.50 556.21"/>
          <path stroke="#80e2da" vector-effect="non-scaling-stroke" d=" M 608.50 556.21 Q 607.26 556.73 606.15 557.43 C 586.71 569.73 570.64 583.50 562.61 605.72 C 559.22 615.12 560.54 626.13 561.71 635.25"/>
          <path stroke="#02aba4" vector-effect="non-scaling-stroke" d=" M 561.71 635.25 L 561.19 636.59 Q 561.01 637.04 560.53 637.02 Q 555.78 636.82 552.73 633.35 Q 552.33 632.90 551.74 632.73 Q 548.53 631.80 546.90 628.85 Q 546.64 628.38 546.16 628.16 L 544.55 627.41 Q 544.05 627.18 543.82 626.68 Q 541.08 620.65 535.29 617.50"/>
          <path stroke="#029fa1" vector-effect="non-scaling-stroke" d=" M 535.29 617.50 C 538.01 607.08 544.88 597.15 548.44 589.69 Q 548.94 588.65 548.37 587.06"/>
          <path stroke="#029fa1" vector-effect="non-scaling-stroke" d=" M 542.00 582.54 C 531.64 594.73 522.56 606.98 516.41 621.90 C 513.18 629.74 508.49 636.97 506.10 645.05 Q 505.97 645.51 506.02 646.00 Q 506.27 648.05 504.46 649.25"/>
          <path stroke="#35cfbc" vector-effect="non-scaling-stroke" d=" M 574.98 562.68 Q 559.26 572.25 548.37 587.06"/>
          <path stroke="#35a9a8" vector-effect="non-scaling-stroke" d=" M 548.37 587.06 L 544.87 580.68 Q 544.59 580.17 544.16 580.56 L 542.00 582.54"/>
          <path stroke="#35cfbc" vector-effect="non-scaling-stroke" d=" M 542.00 582.54 C 537.76 582.08 535.86 573.22 532.54 569.75"/>
          <path stroke="#35cfbc" vector-effect="non-scaling-stroke" d=" M 752.45 646.37 Q 751.60 638.39 748.96 630.50"/>
          <path stroke="#7bddc9" vector-effect="non-scaling-stroke" d=" M 747.75 558.71 L 746.89 558.86 Q 746.37 558.95 746.89 559.11 Q 747.16 559.19 747.23 559.40 Q 747.28 559.53 747.18 559.64 Q 741.77 565.85 739.43 567.17 C 732.01 571.37 723.65 574.81 718.24 581.88 Q 717.94 582.27 718.31 582.60 Q 718.74 582.98 718.71 583.50"/>
          <path stroke="#7dd9c1" vector-effect="non-scaling-stroke" d=" M 718.71 583.50 C 701.76 565.58 678.39 551.58 653.74 547.82"/>
          <path stroke="#48d3c3" vector-effect="non-scaling-stroke" d=" M 653.74 547.82 Q 642.60 545.39 631.25 546.06 C 623.78 546.50 615.67 546.80 608.89 548.10 Q 590.50 551.62 574.98 562.68"/>
          <path stroke="#7bddc9" vector-effect="non-scaling-stroke" d=" M 574.98 562.68 Q 570.16 559.57 566.77 555.13 C 564.06 551.59 560.70 549.65 557.73 546.37 Q 557.39 546.00 557.64 545.57 Q 557.94 545.05 557.50 544.46"/>
        </g>
      </g>
    </g>
  </g>
  <path fill="#8ee1d0" d="M 366.099 249.631 C 365.385 250.495 364.489 251.082 363.409 251.393 C 363.239 251.44 363.097 251.533 362.983 251.67 C 361.694 253.237 359.963 253.779 358.477 254.821 C 357.291 255.652 355.995 256.236 354.589 256.572 C 353.108 256.93 350.583 257.76 349.619 259.002 C 348.547 260.372 347.187 261.303 345.539 261.794 C 345.365 261.845 345.264 261.963 345.236 262.147 C 345.204 262.349 345.115 262.516 344.969 262.646 C 341.802 252.541 337 243.322 330.562 234.989 C 316.799 217.18 300.894 204.653 279.994 196.6 C 274.053 194.312 268.318 192.835 262.79 192.17 C 236.385 187.665 211.385 191.262 187.79 202.961 C 180.798 206.425 174.106 211.052 167.715 216.844 C 167.441 216.869 167.262 216.804 167.177 216.649 C 167.095 216.5 167.118 216.37 167.246 216.258 C 173.936 210.232 180.699 205.533 187.534 202.164 C 199.603 196.215 210.453 193.243 222.752 190.667 C 222.889 190.637 222.945 190.467 222.853 190.358 C 222.562 190.015 222.228 189.919 221.851 190.071 C 221.677 190.14 221.516 190.116 221.367 190 C 219.114 188.205 218.001 185.613 215.817 183.97 C 215.668 183.854 215.605 183.701 215.63 183.509 L 215.774 182.408 C 215.799 182.228 215.746 182.074 215.614 181.947 C 213.896 180.295 212.463 178.415 211.316 176.308 C 211.213 176.116 211.06 175.979 210.858 175.895 L 209.015 175.147 C 208.845 175.078 208.726 174.957 208.658 174.784 L 206.821 170.223 C 206.703 169.927 206.801 169.778 207.114 169.778 L 208.062 169.778 C 209.94 169.778 209.931 169.733 208.035 169.643 C 205.319 169.518 202.117 168.412 203.769 164.768 C 203.854 164.587 203.797 164.486 203.598 164.464 L 202.948 164.399 C 202.714 164.377 202.696 164.299 202.895 164.166 L 203.119 164.019 C 203.169 163.987 203.17 163.949 203.124 163.905 C 203.007 163.8 202.877 163.762 202.735 163.791 C 242.933 148.379 289.373 150.928 323.377 179.534 C 339.542 193.14 354.935 211.209 362.099 230.678 C 364.031 235.927 365.364 242.245 366.099 249.631 Z" style="" transform="matrix(0.9999999999999999, 0, 0, 0.9999999999999999, -1.4210854715202004e-14, 7.105427357601002e-15)"/>
  <path fill="#68d8c2" d="M 202.735 163.791 C 202.877 163.762 203.007 163.8 203.124 163.905 C 203.17 163.949 203.169 163.987 203.119 164.019 L 202.895 164.166 C 202.696 164.299 202.714 164.377 202.948 164.399 L 203.598 164.464 C 203.797 164.486 203.854 164.587 203.769 164.768 C 202.117 168.412 205.319 169.518 208.035 169.643 C 209.931 169.733 209.94 169.778 208.062 169.778 L 207.114 169.778 C 206.801 169.778 206.703 169.927 206.821 170.223 L 208.658 174.784 C 208.726 174.957 208.845 175.078 209.015 175.147 L 210.858 175.895 C 211.06 175.979 211.213 176.116 211.316 176.308 C 212.463 178.415 213.896 180.295 215.614 181.947 C 215.746 182.074 215.799 182.228 215.774 182.408 L 215.63 183.509 C 215.605 183.701 215.668 183.854 215.817 183.97 C 218.001 185.613 219.114 188.205 221.367 190 C 221.516 190.116 221.677 190.14 221.851 190.071 C 222.228 189.919 222.562 190.015 222.853 190.358 C 222.945 190.467 222.889 190.637 222.752 190.667 C 210.453 193.243 199.603 196.215 187.534 202.164 C 180.699 205.533 173.936 210.232 167.246 216.258 C 167.118 216.37 167.095 216.5 167.177 216.649 C 167.262 216.804 167.441 216.869 167.715 216.844 L 155.017 227.603 C 154.868 227.729 154.697 227.776 154.505 227.744 L 150.271 227.104 C 154.227 220.524 156.897 216.242 158.282 214.257 C 162.348 208.422 167.614 202.209 174.08 195.619 C 174.314 195.38 174.271 195.306 173.952 195.396 L 172.018 195.944 C 163.89 199.646 156.767 204.798 150.649 211.399 C 149.953 210.756 149.555 209.95 149.456 208.981 C 149.431 208.735 149.3 208.59 149.062 208.547 L 146.873 208.118 C 146.685 208.082 146.537 207.986 146.431 207.831 L 145.669 206.736 C 145.555 206.573 145.403 206.47 145.211 206.426 L 141.014 205.515 C 140.794 205.465 140.684 205.555 140.684 205.787 L 140.684 206.112 C 140.684 206.296 140.593 206.388 140.412 206.388 C 139.908 206.392 139.421 206.282 138.953 206.058 C 138.782 205.975 138.603 205.944 138.415 205.965 C 136.927 206.128 135.572 205.778 134.351 204.913 C 134.294 204.874 134.241 204.879 134.191 204.93 L 134.063 205.054 C 134.003 205.116 133.953 205.109 133.914 205.033 L 133.759 204.734 C 137.257 201.589 140.527 198.959 143.57 196.844 C 149.121 192.978 154.99 188.731 160.269 185.342 C 174.016 176.514 187.459 169.269 202.735 163.791 Z" style="" transform="matrix(0.9999999999999999, 0, 0, 0.9999999999999999, -1.4210854715202004e-14, 7.105427357601002e-15)"/>
  <path fill="#01aba3" d="M 262.79 192.17 C 262.577 192.441 262.221 192.569 261.724 192.555 C 257.517 192.421 252.979 192.775 248.11 193.617 C 243.759 194.371 237.442 193.851 232.387 194.778 C 209.297 199.013 183.853 210.841 169.488 230.455 C 169.08 231.012 169.396 231.811 170.069 231.925 C 173.343 232.471 176.461 232.54 179.422 232.131 C 179.916 232.066 180.478 232.258 181.11 232.706 C 181.256 232.811 181.416 232.865 181.59 232.869 C 183.917 232.961 189.292 232.961 190.304 235.087 C 190.375 235.231 190.371 235.372 190.293 235.51 L 187.555 240.39 L 183.774 247.581 C 182.005 249.902 180.991 252.539 180.732 255.493 C 177.425 264.62 176.429 271.8 175.188 280.476 C 174.389 280.166 173.615 279.828 172.865 279.462 C 172.191 279.137 171.505 278.656 170.809 278.02 C 166.703 274.273 162.394 272.722 157.989 270.162 C 157.815 270.057 157.728 269.904 157.728 269.701 L 157.728 269.023 C 157.728 268.828 157.65 268.673 157.493 268.557 L 152.513 264.951 C 154.647 256.889 157.81 249.259 162 242.06 C 162.152 241.8 162.101 241.748 161.845 241.903 L 161.616 242.039 C 161.463 242.129 161.323 242.111 161.195 241.985 C 159.736 240.51 157.547 240.184 155.129 239.723 C 155.043 239.709 154.978 239.664 154.932 239.588 L 154.83 239.414 C 154.738 239.251 154.6 239.175 154.415 239.186 C 152.386 239.311 150.639 238.389 148.934 238.487 C 147.485 238.568 146.489 239.219 145.03 239.192 C 144.92 239.192 144.842 239.141 144.796 239.04 L 144.46 238.33 C 144.375 238.145 144.43 238.071 144.625 238.107 C 144.678 238.114 144.73 238.129 144.78 238.151 C 144.939 238.216 145.057 238.169 145.131 238.01 L 145.722 236.697 C 145.772 236.589 145.761 236.488 145.69 236.394 C 145.534 236.173 145.426 235.931 145.365 235.667 C 146.757 232.666 148.393 229.812 150.271 227.104 L 154.505 227.744 C 154.697 227.776 154.868 227.729 155.017 227.603 L 167.715 216.844 C 174.106 211.052 180.798 206.425 187.79 202.961 C 211.385 191.262 236.385 187.665 262.79 192.17 Z" style="" transform="matrix(0.9999999999999999, 0, 0, 0.9999999999999999, -1.4210854715202004e-14, 7.105427357601002e-15)"/>
  <path fill="#6cd0b1" d="M 262.79 192.17 C 268.318 192.835 274.053 194.312 279.994 196.6 C 300.894 204.653 316.799 217.18 330.562 234.989 C 337 243.322 341.802 252.541 344.969 262.646 C 346.124 266.084 346.908 269.609 347.324 273.221 C 345.928 273.293 344.602 273.043 343.345 272.472 C 341.886 271.805 340.879 271.794 339.393 271.529 C 339.194 271.492 339.066 271.375 339.009 271.176 C 338.711 270.124 338.48 269.444 338.317 269.137 C 325.52 244.618 306.07 228.227 279.967 219.962 C 262.131 214.358 244.105 213.702 225.889 217.994 C 217.947 219.87 209.313 223.747 202.32 228.72 C 198.543 231.404 194.991 235.526 191.598 239.143 C 190.657 238.955 190.016 239.342 189.675 240.303 C 189.611 240.484 189.485 240.567 189.297 240.553 L 188.919 240.526 C 188.908 240.526 188.905 240.52 188.908 240.51 L 189.004 240.325 C 189.079 240.181 189.038 240.123 188.882 240.152 L 187.555 240.39 L 190.293 235.51 C 190.371 235.372 190.375 235.231 190.304 235.087 C 189.292 232.961 183.917 232.961 181.59 232.869 C 181.416 232.865 181.256 232.811 181.11 232.706 C 180.478 232.258 179.916 232.066 179.422 232.131 C 176.461 232.54 173.343 232.471 170.069 231.925 C 169.396 231.811 169.08 231.012 169.488 230.455 C 183.853 210.841 209.297 199.013 232.387 194.778 C 237.442 193.851 243.759 194.371 248.11 193.617 C 252.979 192.775 257.517 192.421 261.724 192.555 C 262.221 192.569 262.577 192.441 262.79 192.17 Z" style="" transform="matrix(0.9999999999999999, 0, 0, 0.9999999999999999, -1.4210854715202004e-14, 7.105427357601002e-15)"/>
  <path fill="#01aba3" d="M 172.018 195.944 C 168.056 198.572 164.194 201.976 160.434 206.155 C 150.17 217.565 140.215 231.177 133.893 245.314 C 133.356 244.92 132.753 244.781 132.082 244.897 C 131.819 244.94 131.803 244.893 132.034 244.756 L 132.225 244.642 C 132.35 244.566 132.348 244.495 132.22 244.43 L 125.908 241.258 C 125.749 241.178 125.617 241.211 125.514 241.355 C 115.447 255.426 106.611 270.258 99.005 285.851 C 98.089 286.344 98.03 283.86 98.132 283.389 C 98.171 283.211 98.167 283.036 98.121 282.863 C 97.848 281.832 97.798 281.024 97.972 280.439 C 98.607 278.313 98.478 276.256 97.583 274.267 C 97.508 274.105 97.487 273.964 97.674 273.893 C 97.766 273.853 97.803 273.785 97.785 273.687 C 97.278 270.947 96.429 268.906 95.239 267.564 C 94.094 266.274 88.645 261.279 85.711 260.748 C 91.616 250.195 98.533 240.381 106.462 231.307 L 106.643 231.714 C 106.718 231.876 106.842 231.967 107.016 231.985 C 108.706 232.14 110.398 232.198 112.092 232.158 C 113.237 232.131 114.276 232.673 115.49 232.695 C 115.81 232.702 115.819 232.65 115.517 232.538 L 115.117 232.386 C 114.943 232.321 114.949 232.287 115.133 232.283 C 117.818 232.207 120.753 233.416 123.373 234.083 C 123.551 234.127 123.639 234.242 123.639 234.43 L 123.639 234.642 C 123.639 234.815 123.717 234.938 123.874 235.011 L 128.076 236.958 C 128.243 237.037 128.382 237.003 128.492 236.854 C 135.238 227.787 142.624 219.302 150.649 211.399 C 156.767 204.798 163.89 199.646 172.018 195.944 Z" style="" transform="matrix(0.9999999999999999, 0, 0, 0.9999999999999999, -1.4210854715202004e-14, 7.105427357601002e-15)"/>
  <path fill="#02c5b5" d="M 133.759 204.734 L 133.914 205.033 C 133.953 205.109 134.003 205.116 134.063 205.054 L 134.191 204.93 C 134.241 204.879 134.294 204.874 134.351 204.913 C 135.572 205.778 136.927 206.128 138.415 205.965 C 138.603 205.944 138.782 205.975 138.953 206.058 C 139.421 206.282 139.908 206.392 140.412 206.388 C 140.593 206.388 140.684 206.296 140.684 206.112 L 140.684 205.787 C 140.684 205.555 140.794 205.465 141.014 205.515 L 145.211 206.426 C 145.403 206.47 145.555 206.573 145.669 206.736 L 146.431 207.831 C 146.537 207.986 146.685 208.082 146.873 208.118 L 149.062 208.547 C 149.3 208.59 149.431 208.735 149.456 208.981 C 149.555 209.95 149.953 210.756 150.649 211.399 C 142.624 219.302 135.238 227.787 128.492 236.854 C 128.382 237.003 128.243 237.037 128.076 236.958 L 123.874 235.011 C 123.717 234.938 123.639 234.815 123.639 234.642 L 123.639 234.43 C 123.639 234.242 123.551 234.127 123.373 234.083 C 120.753 233.416 117.818 232.207 115.133 232.283 C 114.949 232.287 114.943 232.321 115.117 232.386 L 115.517 232.538 C 115.819 232.65 115.81 232.702 115.49 232.695 C 114.276 232.673 113.237 232.131 112.092 232.158 C 110.398 232.198 108.706 232.14 107.016 231.985 C 106.842 231.967 106.718 231.876 106.643 231.714 L 106.462 231.307 C 114.91 221.759 124.009 212.901 133.759 204.734 Z" style="" transform="matrix(0.9999999999999999, 0, 0, 0.9999999999999999, -1.4210854715202004e-14, 7.105427357601002e-15)"/>
  <path fill="#01aba3" d="M 279.967 219.962 C 279.221 220.201 278.509 220.134 277.831 219.761 C 277.682 219.682 277.524 219.653 277.357 219.675 C 276.128 219.826 274.895 220.009 273.655 220.222 C 267.86 221.209 269.581 228.574 271.493 232.082 C 271.592 232.259 271.617 232.447 271.567 232.646 L 271.306 233.725 C 271.26 233.917 271.276 234.103 271.354 234.284 C 271.983 235.748 272.707 237.162 273.527 238.525 C 274.992 240.949 276.633 246.101 276.228 248.899 C 276.2 249.087 276.247 249.249 276.372 249.387 C 276.748 249.806 276.977 250.294 277.059 250.851 C 268.459 251.943 260.448 254.721 253.026 259.186 C 241.633 266.035 234.374 274.001 226.97 285.173 L 226.038 286.122 C 225.527 286.194 225.124 286.42 224.829 286.8 C 224.712 286.951 224.571 286.977 224.408 286.876 C 222.981 285.993 221.802 284.84 220.871 283.416 C 220.765 283.249 220.625 283.121 220.451 283.031 C 220.195 282.893 220.087 282.723 220.126 282.521 C 220.165 282.34 220.108 282.199 219.955 282.098 C 219.288 281.65 218.842 281.019 218.618 280.205 C 218.565 280.014 218.467 279.847 218.325 279.706 C 217.729 279.126 212.6 274.495 213.138 274.061 C 213.276 273.953 213.258 273.898 213.084 273.898 L 212.594 273.898 C 212.413 273.898 212.266 273.824 212.152 273.676 C 210.505 271.46 208.777 269.309 206.97 267.223 C 205.015 264.978 203.785 262.521 202.261 260.021 C 199.571 255.607 197.601 250.884 195.976 246.057 C 195.539 244.767 194.426 243.14 194.352 241.816 C 194.337 241.621 194.245 241.48 194.075 241.393 C 193.226 240.96 192.34 240.862 191.417 241.101 C 191.254 241.144 191.127 241.092 191.039 240.943 L 190.73 240.412 L 191.598 239.143 C 194.991 235.526 198.543 231.404 202.32 228.72 C 209.313 223.747 217.947 219.87 225.889 217.994 C 244.105 213.702 262.131 214.358 279.967 219.962 Z" style="" transform="matrix(0.9999999999999999, 0, 0, 0.9999999999999999, -1.4210854715202004e-14, 7.105427357601002e-15)"/>
  <path fill="#02c5b5" d="M 279.967 219.962 C 306.07 228.227 325.52 244.618 338.317 269.137 C 338.48 269.444 338.711 270.124 339.009 271.176 C 339.066 271.375 339.194 271.492 339.393 271.529 C 340.879 271.794 341.886 271.805 343.345 272.472 C 344.602 273.043 345.928 273.293 347.324 273.221 L 347.824 281.463 C 347.308 284.999 346.972 289.197 343.531 291.1 C 343.379 291.184 343.19 291.131 343.105 290.981 C 339.425 284.484 336.767 278.02 332.511 271.361 C 320.729 252.917 297.586 248.107 277.059 250.851 C 276.977 250.294 276.748 249.806 276.372 249.387 C 276.247 249.249 276.2 249.087 276.228 248.899 C 276.633 246.101 274.992 240.949 273.527 238.525 C 272.707 237.162 271.983 235.748 271.354 234.284 C 271.276 234.103 271.26 233.917 271.306 233.725 L 271.567 232.646 C 271.617 232.447 271.592 232.259 271.493 232.082 C 269.581 228.574 267.86 221.209 273.655 220.222 C 274.895 220.009 276.128 219.826 277.357 219.675 C 277.524 219.653 277.682 219.682 277.831 219.761 C 278.509 220.134 279.221 220.201 279.967 219.962 Z" style="" transform="matrix(0.9999999999999999, 0, 0, 0.9999999999999999, -1.4210854715202004e-14, 7.105427357601002e-15)"/>
  <path fill="#01798d" d="M 145.365 235.667 C 145.426 235.931 145.534 236.173 145.69 236.394 C 145.761 236.488 145.772 236.589 145.722 236.697 L 145.131 238.01 C 145.057 238.169 144.939 238.216 144.78 238.151 C 144.73 238.129 144.678 238.114 144.625 238.107 C 144.43 238.071 144.375 238.145 144.46 238.33 L 144.796 239.04 C 144.842 239.141 144.92 239.192 145.03 239.192 C 146.489 239.219 147.485 238.568 148.934 238.487 C 150.639 238.389 152.386 239.311 154.415 239.186 C 154.6 239.175 154.738 239.251 154.83 239.414 L 154.932 239.588 C 154.978 239.664 155.043 239.709 155.129 239.723 C 157.547 240.184 159.736 240.51 161.195 241.985 C 161.323 242.111 161.463 242.129 161.616 242.039 L 161.845 241.903 C 162.101 241.748 162.152 241.8 162 242.06 C 157.81 249.259 154.647 256.889 152.513 264.951 C 149.014 278.546 146.814 292.483 147.368 306.572 C 147.098 306.684 146.988 306.573 147.038 306.241 C 147.052 306.158 147.029 306.145 146.969 306.203 L 146.846 306.328 C 146.775 306.403 146.695 306.416 146.606 306.366 C 145.866 305.964 145.222 305.785 144.614 305.14 C 143.695 304.16 142.582 303.488 141.275 303.123 C 141.104 303.072 140.955 302.983 140.827 302.857 C 138.693 300.731 137.14 299.252 136.167 298.421 C 134.835 297.289 133.175 296.447 131.187 295.894 C 130.276 274.305 135.879 254.533 145.365 235.667 Z" style="" transform="matrix(0.9999999999999999, 0, 0, 0.9999999999999999, -1.4210854715202004e-14, 7.105427357601002e-15)"/>
  <path fill="#fdfefe" d="M 191.598 239.143 L 190.73 240.412 C 184.977 247.923 181.345 259.094 179.944 268.204 C 174.698 299.061 179.331 332.135 196.322 358.089 C 199.422 363.219 203.266 368.171 207.854 372.943 C 216.834 382.286 225.111 390.112 235.631 396.581 C 244.531 402.058 252.973 407.194 262.656 411.212 L 270.8 414.748 C 270.939 414.81 270.934 414.858 270.784 414.894 C 270.706 414.909 270.625 414.902 270.539 414.873 C 242.954 405.149 216.046 390.339 198.096 366.359 C 187.566 351.972 179.763 335.253 176.658 317.553 C 174.65 304.798 173.739 293.166 175.188 280.476 C 176.429 271.8 177.425 264.62 180.732 255.493 L 183.774 247.581 L 187.555 240.39 L 188.882 240.152 C 189.038 240.123 189.079 240.181 189.004 240.325 L 188.908 240.51 C 188.905 240.52 188.908 240.526 188.919 240.526 L 189.297 240.553 C 189.485 240.567 189.611 240.484 189.675 240.303 C 190.016 239.342 190.657 238.955 191.598 239.143 Z" style="" transform="matrix(0.9999999999999999, 0, 0, 0.9999999999999999, -1.4210854715202004e-14, 7.105427357601002e-15)"/>
  <path fill="#01798d" d="M 190.73 240.412 L 191.039 240.943 C 191.127 241.092 191.254 241.144 191.417 241.101 C 192.34 240.862 193.226 240.96 194.075 241.393 C 194.245 241.48 194.337 241.621 194.352 241.816 C 194.426 243.14 195.539 244.767 195.976 246.057 C 197.601 250.884 199.571 255.607 202.261 260.021 C 203.785 262.521 205.015 264.978 206.97 267.223 C 208.777 269.309 210.505 271.46 212.152 273.676 C 212.266 273.824 212.413 273.898 212.594 273.898 L 213.084 273.898 C 213.258 273.898 213.276 273.953 213.138 274.061 C 212.6 274.495 217.729 279.126 218.325 279.706 C 218.467 279.847 218.565 280.014 218.618 280.205 C 218.842 281.019 219.288 281.65 219.955 282.098 C 220.108 282.199 220.165 282.34 220.126 282.521 C 220.087 282.723 220.195 282.893 220.451 283.031 C 220.625 283.121 220.765 283.249 220.871 283.416 C 221.802 284.84 222.981 285.993 224.408 286.876 C 224.571 286.977 224.712 286.951 224.829 286.8 C 225.124 286.42 225.527 286.194 226.038 286.122 C 221.958 293.24 219.073 300.832 217.383 308.898 C 217.358 309.654 217.063 310.059 216.499 310.113 C 216.332 310.127 216.232 310.218 216.2 310.384 C 216.133 310.72 216.287 310.989 216.664 311.192 C 216.873 311.304 216.861 311.365 216.626 311.376 L 216.285 311.393 C 216.143 311.4 216.019 311.355 215.913 311.257 C 215.231 310.66 214.073 309.646 212.44 308.215 C 210.853 306.821 210.075 304.847 208.669 303.47 C 207.291 302.125 205.904 300.789 204.509 299.462 C 204.385 299.339 204.298 299.195 204.248 299.028 C 203.967 298.041 203.266 297.006 202.144 295.921 C 201.093 294.905 199.016 292.544 195.912 288.839 C 195.316 288.123 194.923 287.3 194.735 286.371 C 194.7 286.194 194.719 286.024 194.794 285.861 C 195.79 283.649 193.26 284.018 193.27 282.326 C 193.274 282.145 193.219 281.984 193.105 281.843 C 191.726 280.119 189.233 275.043 187.225 274.869 C 187.058 274.855 186.945 274.766 186.884 274.603 C 186.735 274.195 186.474 273.958 186.101 273.893 C 185.956 273.868 185.833 273.799 185.734 273.687 L 181.595 268.909 C 181.485 268.779 181.35 268.687 181.19 268.633 L 179.944 268.204 C 181.345 259.094 184.977 247.923 190.73 240.412 Z" style="" transform="matrix(0.9999999999999999, 0, 0, 0.9999999999999999, -1.4210854715202004e-14, 7.105427357601002e-15)"/>
  <path fill="#01798d" d="M 133.893 245.314 L 130.223 253.4 C 127.957 257.915 126.322 262.386 125.317 266.811 C 124.465 270.556 123.829 274.813 123.41 279.582 C 121.788 293.222 122.434 306.738 125.349 320.129 C 124.919 322.009 124.998 323.863 125.583 325.693 C 125.637 325.863 125.647 326.036 125.615 326.213 C 125.569 326.438 125.633 326.575 125.807 326.626 C 125.978 326.676 126.024 326.783 125.946 326.945 L 125.722 327.406 C 125.651 327.558 125.539 327.6 125.386 327.531 L 123.826 326.821 C 123.702 326.767 123.639 326.669 123.639 326.528 L 123.639 326.235 C 123.639 326.054 123.551 325.964 123.373 325.964 C 122.137 325.948 121.093 326.116 119.906 325.611 C 117.573 324.624 115.506 324.559 113.509 323.713 C 113.321 323.634 113.246 323.493 113.285 323.29 L 113.477 322.228 C 113.509 322.054 113.441 321.946 113.274 321.902 C 111.318 321.396 109.466 320.626 107.719 319.592 C 107.552 319.494 107.373 319.449 107.181 319.456 C 106.286 319.493 105.445 319.29 104.656 318.849 C 104.497 318.759 104.324 318.715 104.14 318.719 C 101.423 318.809 98.783 318.327 96.219 317.271 C 96.227 309.466 97.006 301.718 98.558 294.028 C 98.597 293.826 98.528 293.676 98.35 293.578 C 97.743 293.242 97.153 293.258 96.582 293.627 C 96.468 293.699 96.351 293.708 96.23 293.654 C 96.024 293.553 95.802 293.52 95.564 293.557 L 99.005 285.851 C 106.611 270.258 115.447 255.426 125.514 241.355 C 125.617 241.211 125.749 241.178 125.908 241.258 L 132.22 244.43 C 132.348 244.495 132.35 244.566 132.225 244.642 L 132.034 244.756 C 131.803 244.893 131.819 244.94 132.082 244.897 C 132.753 244.781 133.356 244.92 133.893 245.314 Z" style="" transform="matrix(0.9999999999999999, 0, 0, 0.9999999999999999, -1.4210854715202004e-14, 7.105427357601002e-15)"/>
  <path fill="#01798d" d="M 183.774 247.581 L 180.732 255.493 C 180.991 252.539 182.005 249.902 183.774 247.581 Z" style="" transform="matrix(0.9999999999999999, 0, 0, 0.9999999999999999, -1.4210854715202004e-14, 7.105427357601002e-15)"/>
  <path fill="#68d8c2" d="M 366.099 249.631 C 367.253 260.502 365.971 270.525 362.253 279.701 C 359.913 285.482 355.929 287.143 350.301 284.685 C 349.648 284.399 349.14 283.954 348.778 283.351 C 348.416 282.75 348.098 282.121 347.824 281.463 L 347.324 273.221 C 346.908 269.609 346.124 266.084 344.969 262.646 C 345.115 262.516 345.204 262.349 345.236 262.147 C 345.264 261.963 345.365 261.845 345.539 261.794 C 347.187 261.303 348.547 260.372 349.619 259.002 C 350.583 257.76 353.108 256.93 354.589 256.572 C 355.995 256.236 357.291 255.652 358.477 254.821 C 359.963 253.779 361.694 253.237 362.983 251.67 C 363.097 251.533 363.239 251.44 363.409 251.393 C 364.489 251.082 365.385 250.495 366.099 249.631 Z" style="" transform="matrix(0.9999999999999999, 0, 0, 0.9999999999999999, -1.4210854715202004e-14, 7.105427357601002e-15)"/>
  <path fill="#01577a" d="M 130.223 253.4 C 126.473 262.207 125.189 269.273 123.41 279.582 C 123.829 274.813 124.465 270.556 125.317 266.811 C 126.322 262.386 127.957 257.915 130.223 253.4 Z" style="" transform="matrix(0.9999999999999999, 0, 0, 0.9999999999999999, -1.4210854715202004e-14, 7.105427357601002e-15)"/>
  <path fill="#019193" d="M 85.711 260.748 C 88.645 261.279 94.094 266.274 95.239 267.564 C 96.429 268.906 97.278 270.947 97.785 273.687 C 97.803 273.785 97.766 273.853 97.674 273.893 C 97.487 273.964 97.508 274.105 97.583 274.267 C 98.478 276.256 98.607 278.313 97.972 280.439 C 97.798 281.024 97.848 281.832 98.121 282.863 C 98.167 283.036 98.171 283.211 98.132 283.389 C 98.03 283.86 98.089 286.344 99.005 285.851 L 95.564 293.557 L 84.203 322.705 C 83.543 321.49 83.193 320.205 83.154 318.849 C 83.09 316.463 81.929 314.093 81.412 311.74 C 80.922 309.484 80.07 308.166 78.643 306.572 C 78.149 306.026 77.741 305.386 77.418 304.652 C 76.033 301.523 73.929 300.666 71.622 298.513 C 70.962 297.895 70.236 297.365 69.444 296.924 C 73.733 284.332 79.156 272.273 85.711 260.748 Z" style="" transform="matrix(0.9999999999999999, 0, 0, 0.9999999999999999, -1.4210854715202004e-14, 7.105427357601002e-15)"/>
  <path fill="#019193" d="M 152.513 264.951 L 157.493 268.557 C 157.65 268.673 157.728 268.828 157.728 269.023 L 157.728 269.701 C 157.728 269.904 157.815 270.057 157.989 270.162 C 162.394 272.722 166.703 274.273 170.809 278.02 C 171.505 278.656 172.191 279.137 172.865 279.462 C 173.615 279.828 174.389 280.166 175.188 280.476 C 173.739 293.166 174.65 304.798 176.658 317.553 C 176.279 320.367 177.302 322.19 177.686 324.825 C 177.909 326.371 178.847 327.721 178.293 329.332 C 178.24 329.491 178.129 329.57 177.963 329.57 C 175.694 329.565 174.666 328.29 173.137 327.363 C 170.903 326 168.95 324.305 167.278 322.276 C 164.945 319.446 161.392 317.482 158.681 315.227 C 157.776 314.473 155.991 313.383 154.878 312.049 C 154.431 311.514 153.232 310.686 151.283 309.565 C 151.141 309.482 151.006 309.495 150.878 309.603 C 149.76 310.541 149.35 308.773 148.183 309.044 C 148.048 309.077 147.961 309.026 147.922 308.893 C 147.862 308.694 147.72 308.598 147.496 308.605 L 147.368 306.572 C 146.814 292.483 149.014 278.546 152.513 264.951 Z" style="" transform="matrix(0.9999999999999999, 0, 0, 0.9999999999999999, -1.4210854715202004e-14, 7.105427357601002e-15)"/>
  <path fill="#016179" d="M 179.944 268.204 L 181.19 268.633 C 181.35 268.687 181.485 268.779 181.595 268.909 L 185.734 273.687 C 185.833 273.799 185.956 273.868 186.101 273.893 C 186.474 273.958 186.735 274.195 186.884 274.603 C 186.945 274.766 187.058 274.855 187.225 274.869 C 189.233 275.043 191.726 280.119 193.105 281.843 C 193.219 281.984 193.274 282.145 193.27 282.326 C 193.26 284.018 195.79 283.649 194.794 285.861 C 194.719 286.024 194.7 286.194 194.735 286.371 C 194.923 287.3 195.316 288.123 195.912 288.839 C 199.016 292.544 201.093 294.905 202.144 295.921 C 203.266 297.006 203.967 298.041 204.248 299.028 C 204.298 299.195 204.385 299.339 204.509 299.462 C 205.904 300.789 207.291 302.125 208.669 303.47 C 210.075 304.847 210.853 306.821 212.44 308.215 C 214.073 309.646 215.231 310.66 215.913 311.257 C 216.019 311.355 216.143 311.4 216.285 311.393 L 216.626 311.376 C 216.861 311.365 216.873 311.304 216.664 311.192 C 216.287 310.989 216.133 310.72 216.2 310.384 C 216.232 310.218 216.332 310.127 216.499 310.113 C 217.063 310.059 217.358 309.654 217.383 308.898 C 215.827 316.425 215.684 323.97 216.951 331.533 C 217.615 333.525 218.052 335.544 218.262 337.591 C 218.553 342.392 219.906 346.844 222.32 350.947 L 225.617 357.547 C 224.403 357.802 227.114 361.576 227.428 362.26 C 227.538 362.498 227.465 362.621 227.21 362.628 C 226.613 362.646 226.136 362.914 225.777 363.431 C 225.649 363.615 225.479 363.682 225.266 363.632 C 222.198 362.898 219.096 362.697 215.961 363.03 C 215.808 363.048 215.675 363.004 215.561 362.899 L 214.336 361.782 C 214.187 361.649 214.013 361.587 213.814 361.598 C 212.33 361.696 211.327 361.088 210.805 359.776 C 210.741 359.617 210.632 359.499 210.48 359.423 L 205.777 357.151 C 205.613 357.072 205.532 357.124 205.532 357.308 L 205.532 357.542 C 205.532 357.769 205.438 357.822 205.249 357.699 C 202.977 356.191 200.493 355.611 197.798 355.958 C 196.972 356.061 196.589 356.631 196.962 357.428 C 197.068 357.652 196.999 357.76 196.754 357.753 C 196.502 357.746 196.358 357.858 196.322 358.089 C 179.331 332.135 174.698 299.061 179.944 268.204 Z" style="" transform="matrix(0.9999999999999999, 0, 0, 0.9999999999999999, -1.4210854715202004e-14, 7.105427357601002e-15)"/>
  <path fill="#01426b" d="M 226.97 285.173 C 220.983 295.27 217.487 306.21 216.483 317.992 C 216.223 321.062 216.38 325.575 216.951 331.533 C 215.684 323.97 215.827 316.425 217.383 308.898 C 219.073 300.832 221.958 293.24 226.038 286.122 L 226.97 285.173 Z" style="" transform="matrix(0.9999999999999999, 0, 0, 0.9999999999999999, -1.4210854715202004e-14, 7.105427357601002e-15)"/>
  <path fill="#8ee1d0" d="M 368.517 316.582 L 368.059 316.664 C 367.874 316.696 367.874 316.741 368.059 316.799 C 368.155 316.828 368.215 316.881 368.24 316.956 C 368.258 317.003 368.249 317.047 368.214 317.087 C 366.293 319.332 364.917 320.693 364.086 321.17 C 360.134 323.448 355.681 325.313 352.799 329.147 C 352.693 329.288 352.705 329.418 352.836 329.538 C 352.989 329.675 353.06 329.838 353.05 330.026 C 344.021 320.308 331.574 312.716 318.444 310.677 C 314.489 309.798 310.496 309.48 306.465 309.722 C 302.487 309.961 298.167 310.124 294.556 310.829 C 288.026 312.101 282.005 314.737 276.494 318.735 C 274.783 317.611 273.325 316.246 272.121 314.641 C 270.678 312.721 268.888 311.669 267.306 309.89 C 267.186 309.757 267.17 309.612 267.258 309.457 C 267.365 309.269 267.34 309.068 267.184 308.855 C 280.707 297.201 299.381 288.508 317.123 288.302 C 322.301 288.24 327.863 289.066 333.811 290.78 C 347.942 294.842 359.814 304.782 368.517 316.582 Z" style="" transform="matrix(0.9999999999999999, 0, 0, 0.9999999999999999, -1.4210854715202004e-14, 7.105427357601002e-15)"/>
  <path fill="#01426b" d="M 96.219 317.271 C 95.761 324.606 96.331 331.841 97.929 338.974 C 99.751 347.112 101.567 353.668 103.378 358.642 C 106.932 368.407 112.09 378.131 118.851 387.812 C 119.197 388.311 119.719 388.512 120.231 388.794 C 120.408 388.888 120.488 388.834 120.47 388.631 L 120.438 388.235 C 120.424 388.047 120.497 387.901 120.657 387.796 L 123.117 386.207 C 123.669 385.849 124.402 386.023 124.742 386.592 L 125.541 387.926 C 125.64 388.089 125.773 388.123 125.94 388.029 C 127.07 387.379 128.28 387.068 129.573 387.097 C 129.877 387.101 130.094 386.8 129.994 386.511 L 129.418 384.776 C 129.34 384.537 129.424 384.405 129.669 384.38 C 130.702 384.275 131.348 384.136 131.608 383.962 C 133.649 382.606 135.3 381.619 136.561 381.001 C 137.919 380.34 139.07 379.396 140.417 378.713 C 140.595 378.622 140.684 378.478 140.684 378.279 L 140.684 377.173 C 140.684 376.938 140.795 376.798 141.019 376.755 C 143.601 376.231 145.628 374.87 147.102 372.672 C 147.212 372.509 147.239 372.334 147.182 372.146 C 147.033 371.639 147.027 371.135 147.166 370.633 C 147.215 370.455 147.187 370.295 147.081 370.15 C 146.447 369.293 143.677 366.549 144.124 365.139 C 148.808 371.3 152.153 375.54 154.159 377.861 C 161.73 386.621 170.859 394.358 181.547 401.071 C 197.318 410.979 212.626 418.832 230.294 424.038 C 239.94 426.879 249.351 430.046 259.269 431.901 C 259.471 431.939 259.556 432.185 259.423 432.343 C 259.377 432.398 259.312 432.432 259.242 432.438 C 256.766 432.665 254.363 432.752 251.716 432.595 C 235.091 431.604 218.455 431.326 201.809 431.76 C 198.978 431.467 196.141 431.425 193.297 431.635 C 193.116 431.649 192.951 431.601 192.802 431.489 C 191.14 430.268 189.462 429.954 187.678 429.341 C 181.068 427.069 173.579 425.079 167.763 422.79 C 154.591 417.601 140.966 410.567 130.697 400.762 C 130.658 400.723 130.629 400.73 130.612 400.784 C 130.597 400.827 130.583 400.873 130.569 400.92 C 130.537 401.035 130.48 401.05 130.398 400.963 L 130.249 400.811 C 130.136 400.695 129.997 400.641 129.834 400.648 L 123.906 400.925 C 123.728 400.932 123.639 401.026 123.639 401.207 L 123.639 401.744 C 123.639 401.972 123.559 402.008 123.4 401.852 L 122.201 400.665 C 122.084 400.549 121.946 400.473 121.786 400.437 L 119.602 399.96 C 119.41 399.916 119.298 399.994 119.266 400.193 L 119.165 400.86 C 119.151 400.961 119.094 401.001 118.995 400.979 C 118.132 400.82 117.264 400.784 116.39 400.871 C 115.266 400.99 114.515 400.648 113.509 400.323 C 111.501 399.672 109.626 400.453 107.506 400.052 C 104.981 399.58 102.307 400.507 100.459 400.806 C 97.615 401.258 94.907 402.149 92.337 403.479 C 90.856 404.249 86.52 405.751 85.018 405.171 C 83.298 404.504 81.529 404.613 79.777 404.222 C 77.806 403.777 76.022 404.314 74.19 403.891 C 72.816 403.577 71.441 403.26 70.067 402.942 C 68.672 402.617 67.356 402.899 65.902 402.812 C 65.685 402.801 65.675 402.747 65.87 402.65 L 68.357 401.44 C 68.663 401.291 69.025 401.335 69.284 401.554 C 69.817 401.999 70.408 402.129 71.058 401.945 C 71.31 401.872 71.319 401.78 71.085 401.668 C 70.293 401.281 69.623 401.137 69.077 401.234 C 66.95 401.607 64.97 401.33 63.138 400.404 C 62.339 400 61.621 399.765 60.986 399.699 C 57.659 399.37 54.326 399.175 50.988 399.114 C 49.22 399.081 47.239 398.653 45.326 398.631 C 45.135 398.631 44.959 398.577 44.799 398.468 C 44.437 398.223 44.037 398.223 43.601 398.468 C 43.444 398.559 43.278 398.591 43.1 398.566 C 41.57 398.338 40.497 397.492 39.883 396.028 C 48.219 388.794 51.952 380.98 54.291 370.296 C 55.399 365.231 56.46 360.175 57.476 355.128 C 58.534 354.93 59.574 354.68 60.597 354.38 C 61.598 354.087 62.554 353.623 63.463 352.986 C 73.876 345.682 80.107 334.733 84.203 322.705 L 95.564 293.557 C 95.802 293.52 96.024 293.553 96.23 293.654 C 96.351 293.708 96.468 293.699 96.582 293.627 C 97.153 293.258 97.743 293.242 98.35 293.578 C 98.528 293.676 98.597 293.826 98.558 294.028 C 97.006 301.718 96.227 309.466 96.219 317.271 Z" style="" transform="matrix(0.9999999999999999, 0, 0, 0.9999999999999999, -1.4210854715202004e-14, 7.105427357601002e-15)"/>
  <path fill="#01577a" d="M 131.187 295.894 C 133.175 296.447 134.835 297.289 136.167 298.421 C 137.14 299.252 138.693 300.731 140.827 302.857 C 140.955 302.983 141.104 303.072 141.275 303.123 C 142.582 303.488 143.695 304.16 144.614 305.14 C 145.222 305.785 145.866 305.964 146.606 306.366 C 146.695 306.416 146.775 306.403 146.846 306.328 L 146.969 306.203 C 147.029 306.145 147.052 306.158 147.038 306.241 C 146.988 306.573 147.098 306.684 147.368 306.572 L 147.496 308.605 C 148.396 322.374 151.443 336.62 157.707 349.006 C 164.95 363.762 174.607 375.074 186.527 386.066 C 196.061 394.862 208.067 402.161 219.465 408.181 C 229.367 413.414 240.962 416.971 251.397 420.057 C 251.553 420.104 251.622 420.211 251.604 420.377 L 251.583 420.589 C 241.559 417.834 232.811 415.041 225.34 412.21 C 209.322 406.144 194.362 398.047 180.461 387.921 C 174.165 383.337 168.471 378.075 163.379 372.135 C 158.687 366.663 153.845 360.991 150.159 355.025 C 139.533 337.84 131.751 316.398 131.187 295.894 Z" style="" transform="matrix(0.9999999999999999, 0, 0, 0.9999999999999999, -1.4210854715202004e-14, 7.105427357601002e-15)"/>
  <path fill="#01798d" d="M 69.444 296.924 C 70.236 297.365 70.962 297.895 71.622 298.513 C 73.929 300.666 76.033 301.523 77.418 304.652 C 77.741 305.386 78.149 306.026 78.643 306.572 C 80.07 308.166 80.922 309.484 81.412 311.74 C 81.929 314.093 83.09 316.463 83.154 318.849 C 83.193 320.205 83.543 321.49 84.203 322.705 C 80.107 334.733 73.876 345.682 63.463 352.986 C 62.554 353.623 61.598 354.087 60.597 354.38 C 59.574 354.68 58.534 354.93 57.476 355.128 C 59.873 334.407 62.44 315.997 69.444 296.924 Z" style="" transform="matrix(0.9999999999999999, 0, 0, 0.9999999999999999, -1.4210854715202004e-14, 7.105427357601002e-15)"/>
  <path fill="#01798d" d="M 147.496 308.605 C 147.72 308.598 147.862 308.694 147.922 308.893 C 147.961 309.026 148.048 309.077 148.183 309.044 C 149.35 308.773 149.76 310.541 150.878 309.603 C 151.006 309.495 151.141 309.482 151.283 309.565 C 153.232 310.686 154.431 311.514 154.878 312.049 C 155.991 313.383 157.776 314.473 158.681 315.227 C 161.392 317.482 164.945 319.446 167.278 322.276 C 168.95 324.305 170.903 326 173.137 327.363 C 174.666 328.29 175.694 329.565 177.963 329.57 C 178.129 329.57 178.24 329.491 178.293 329.332 C 178.847 327.721 177.909 326.371 177.686 324.825 C 177.302 322.19 176.279 320.367 176.658 317.553 C 179.763 335.253 187.566 351.972 198.096 366.359 C 198.053 367.057 198.313 367.65 198.874 368.138 C 199.023 368.268 199.014 368.386 198.847 368.491 C 197.562 369.3 196.575 370.392 195.886 371.766 C 195.811 371.921 195.69 371.981 195.523 371.945 C 191.401 371.074 187.477 369.646 183.752 367.661 C 183.564 367.56 183.516 367.41 183.608 367.211 L 183.726 366.956 C 183.8 366.797 183.763 366.676 183.614 366.592 L 182.256 365.795 C 182.053 365.68 182.034 365.539 182.197 365.372 L 182.351 365.215 C 182.529 365.034 182.511 364.879 182.298 364.749 L 180.759 363.816 C 180.596 363.715 180.434 363.718 180.274 363.827 C 180.047 363.975 179.758 363.986 179.406 363.859 C 179.239 363.801 179.081 363.722 178.932 363.621 L 174.964 360.92 C 174.836 360.833 174.772 360.712 174.772 360.557 L 174.772 359.857 C 174.772 359.662 174.703 359.499 174.564 359.369 C 171.923 356.869 168.274 354.852 165.302 352.666 C 165.273 352.645 165.245 352.641 165.217 352.656 C 165.163 352.674 165.114 352.69 165.068 352.704 C 164.989 352.73 164.922 352.713 164.865 352.656 C 163.869 351.593 162.293 351.425 161.526 350.644 C 161.359 350.474 161.311 350.504 161.382 350.736 L 161.472 351.023 C 161.518 351.172 161.474 351.208 161.339 351.132 L 157.707 349.006 C 151.443 336.62 148.396 322.374 147.496 308.605 Z" style="" transform="matrix(0.9999999999999999, 0, 0, 0.9999999999999999, -1.4210854715202004e-14, 7.105427357601002e-15)"/>
  <path fill="#68d8c2" d="M 267.184 308.855 C 267.34 309.068 267.365 309.269 267.258 309.457 C 267.17 309.612 267.186 309.757 267.306 309.89 C 268.888 311.669 270.678 312.721 272.121 314.641 C 273.325 316.246 274.783 317.611 276.494 318.735 C 270.912 322.195 266.188 326.602 262.321 331.956 L 260.457 328.496 C 260.357 328.312 260.231 328.29 260.079 328.431 L 258.928 329.505 C 256.67 329.256 255.658 324.451 253.889 322.569 C 257.863 317.537 262.294 312.965 267.184 308.855 Z" style="" transform="matrix(0.9999999999999999, 0, 0, 0.9999999999999999, -1.4210854715202004e-14, 7.105427357601002e-15)"/>
  <path fill="#02c5b5" d="M 318.444 310.677 C 310.011 310.073 301.979 311.59 294.348 315.227 C 293.908 315.415 293.491 315.635 293.096 315.888 C 282.742 322.558 274.183 330.026 269.906 342.075 C 268.1 347.173 268.803 353.144 269.426 358.089 L 269.149 358.816 C 269.085 358.979 268.968 359.056 268.798 359.049 C 267.111 358.977 265.726 358.313 264.643 357.059 C 264.501 356.896 264.325 356.784 264.116 356.723 C 262.976 356.387 262.117 355.685 261.538 354.619 C 261.446 354.449 261.314 354.324 261.144 354.244 L 260.286 353.838 C 260.109 353.755 259.979 353.623 259.897 353.442 C 258.924 351.262 257.41 349.602 255.354 348.464 C 256.803 342.813 260.462 337.428 262.358 333.383 C 262.536 333.007 262.523 332.531 262.321 331.956 C 266.188 326.602 270.912 322.195 276.494 318.735 C 282.005 314.737 288.026 312.101 294.556 310.829 C 298.167 310.124 302.487 309.961 306.465 309.722 C 310.496 309.48 314.489 309.798 318.444 310.677 Z" style="" transform="matrix(0.9999999999999999, 0, 0, 0.9999999999999999, -1.4210854715202004e-14, 7.105427357601002e-15)"/>
  <path fill="#6cd0b1" d="M 318.444 310.677 C 331.574 312.716 344.021 320.308 353.05 330.026 C 359.991 337.488 365.362 345.984 369.162 355.513 L 366.829 355.448 C 366.648 355.441 366.493 355.371 366.365 355.237 C 365.431 354.214 364.831 353.001 364.565 351.598 C 364.537 351.453 364.46 351.347 364.336 351.278 L 363.175 350.633 C 363.019 350.546 362.887 350.43 362.781 350.286 C 353.145 337.146 338.855 326.344 322.817 323.008 C 311.712 320.698 297.262 322.672 287.307 328.757 C 284.175 330.29 281.24 332.106 278.502 334.207 C 276.322 335.798 274.287 337.567 272.398 339.516 C 275.024 330.666 281.405 324.977 288.564 319.885 C 290.584 318.45 292.512 316.897 294.348 315.227 C 301.979 311.59 310.011 310.073 318.444 310.677 Z" style="" transform="matrix(0.9999999999999999, 0, 0, 0.9999999999999999, -1.4210854715202004e-14, 7.105427357601002e-15)"/>
  <path fill="#fdfefe" d="M 294.348 315.227 C 292.512 316.897 290.584 318.45 288.564 319.885 C 281.405 324.977 275.024 330.666 272.398 339.516 C 271.116 341.577 270.445 343.838 270.385 346.3 C 270.028 361.012 273.751 375.047 284.814 385.15 C 291.181 390.963 298.753 395.717 307.531 399.412 C 307.751 399.502 307.742 399.555 307.504 399.569 C 307.106 399.591 306.766 399.548 306.481 399.439 C 296.564 395.611 285.086 388.848 277.778 380.584 C 272.505 374.461 270.167 365.985 269.426 358.089 C 268.803 353.144 268.1 347.173 269.906 342.075 C 274.183 330.026 282.742 322.558 293.096 315.888 C 293.491 315.635 293.908 315.415 294.348 315.227 Z" style="" transform="matrix(0.9999999999999999, 0, 0, 0.9999999999999999, -1.4210854715202004e-14, 7.105427357601002e-15)"/>
  <path fill="#68d8c2" d="M 368.517 316.582 C 374.831 325.328 378.692 335.094 380.102 345.882 C 380.656 350.145 381.103 363.095 375.889 364.613 C 374.316 365.072 372.693 364.908 371.021 364.12 C 370.719 361.235 370.099 358.366 369.162 355.513 C 365.362 345.984 359.991 337.488 353.05 330.026 C 353.06 329.838 352.989 329.675 352.836 329.538 C 352.705 329.418 352.693 329.288 352.799 329.147 C 355.681 325.313 360.134 323.448 364.086 321.17 C 364.917 320.693 366.293 319.332 368.214 317.087 C 368.249 317.047 368.258 317.003 368.24 316.956 C 368.215 316.881 368.155 316.828 368.059 316.799 C 367.874 316.741 367.874 316.696 368.059 316.664 L 368.517 316.582 Z" style="" transform="matrix(0.9999999999999999, 0, 0, 0.9999999999999999, -1.4210854715202004e-14, 7.105427357601002e-15)"/>
  <path fill="#01577a" d="M 96.219 317.271 C 98.783 318.327 101.423 318.809 104.14 318.719 C 104.324 318.715 104.497 318.759 104.656 318.849 C 105.445 319.29 106.286 319.493 107.181 319.456 C 107.373 319.449 107.552 319.494 107.719 319.592 C 109.466 320.626 111.318 321.396 113.274 321.902 C 113.441 321.946 113.509 322.054 113.477 322.228 L 113.285 323.29 C 113.246 323.493 113.321 323.634 113.509 323.713 C 115.506 324.559 117.573 324.624 119.906 325.611 C 121.093 326.116 122.137 325.948 123.373 325.964 C 123.551 325.964 123.639 326.054 123.639 326.235 L 123.639 326.528 C 123.639 326.669 123.702 326.767 123.826 326.821 L 125.386 327.531 C 125.539 327.6 125.651 327.558 125.722 327.406 L 125.946 326.945 C 126.024 326.783 125.978 326.676 125.807 326.626 C 125.633 326.575 125.569 326.438 125.615 326.213 C 125.647 326.036 125.637 325.863 125.583 325.693 C 124.998 323.863 124.919 322.009 125.349 320.129 L 127.48 329.348 C 127.37 330.114 127.551 331.21 128.023 332.634 C 128.886 335.226 129.687 337.108 130.425 338.279 C 133.909 347.806 138.475 356.759 144.124 365.139 C 143.677 366.549 146.447 369.293 147.081 370.15 C 147.187 370.295 147.215 370.455 147.166 370.633 C 147.027 371.135 147.033 371.639 147.182 372.146 C 147.239 372.334 147.212 372.509 147.102 372.672 C 145.628 374.87 143.601 376.231 141.019 376.755 C 140.795 376.798 140.684 376.938 140.684 377.173 L 140.684 378.279 C 140.684 378.478 140.595 378.622 140.417 378.713 C 139.07 379.396 137.919 380.34 136.561 381.001 C 135.3 381.619 133.649 382.606 131.608 383.962 C 131.348 384.136 130.702 384.275 129.669 384.38 C 129.424 384.405 129.34 384.537 129.418 384.776 L 129.994 386.511 C 130.094 386.8 129.877 387.101 129.573 387.097 C 128.28 387.068 127.07 387.379 125.94 388.029 C 125.773 388.123 125.64 388.089 125.541 387.926 L 124.742 386.592 C 124.402 386.023 123.669 385.849 123.117 386.207 L 120.657 387.796 C 120.497 387.901 120.424 388.047 120.438 388.235 L 120.47 388.631 C 120.488 388.834 120.408 388.888 120.231 388.794 C 119.719 388.512 119.197 388.311 118.851 387.812 C 112.09 378.131 106.932 368.407 103.378 358.642 C 101.567 353.668 99.751 347.112 97.929 338.974 C 96.331 331.841 95.761 324.606 96.219 317.271 Z" style="" transform="matrix(0.9999999999999999, 0, 0, 0.9999999999999999, -1.4210854715202004e-14, 7.105427357601002e-15)"/>
  <path fill="#02c5b5" d="M 369.162 355.513 C 370.099 358.366 370.719 361.235 371.021 364.12 C 370.919 365.953 370.839 367.796 368.949 368.653 C 368.468 368.874 367.9 368.681 367.644 368.209 C 364.821 363.013 361.854 356.994 358.019 352.807 C 352.213 346.463 344.767 342.444 336.202 341.831 C 326.018 341.105 309.549 342.802 307.264 355.942 C 306.604 356.763 306.236 357.963 306.162 359.543 C 306.116 360.512 305.58 360.866 304.553 360.606 C 304.401 360.566 304.28 360.481 304.191 360.351 C 302.703 358.185 301.711 355.814 301.214 353.236 C 300.841 351.311 299.722 349.857 299.179 347.976 C 298.899 346.999 298.543 346.215 298.114 345.622 C 295.669 342.265 292.686 339.228 290.21 335.948 C 290.107 335.814 290.139 335.74 290.305 335.725 C 290.359 335.722 290.412 335.722 290.465 335.725 C 290.646 335.747 290.689 335.678 290.593 335.519 L 289.352 333.567 C 289.249 333.401 289.221 333.223 289.267 333.035 C 289.771 331.004 289.118 329.577 287.307 328.757 C 297.262 322.672 311.712 320.698 322.817 323.008 C 338.855 326.344 353.145 337.146 362.781 350.286 C 362.887 350.43 363.019 350.546 363.175 350.633 L 364.336 351.278 C 364.46 351.347 364.537 351.453 364.565 351.598 C 364.831 353.001 365.431 354.214 366.365 355.237 C 366.493 355.371 366.648 355.441 366.829 355.448 L 369.162 355.513 Z" style="" transform="matrix(0.9999999999999999, 0, 0, 0.9999999999999999, -1.4210854715202004e-14, 7.105427357601002e-15)"/>
  <path fill="#02c5b5" d="M 253.889 322.569 C 255.658 324.451 256.67 329.256 258.928 329.505 C 253.41 336.116 248.574 342.759 245.298 350.85 C 243.578 355.101 241.08 359.022 239.807 363.404 C 239.76 363.57 239.746 363.742 239.764 363.919 C 239.853 364.66 239.576 365.248 238.933 365.681 L 234.059 359.819 C 233.942 359.678 233.921 359.525 233.995 359.358 C 236.012 354.745 238.425 349.044 241.234 342.254 C 244.1 335.318 249.261 328.41 253.889 322.569 Z" style="" transform="matrix(0.9999999999999999, 0, 0, 0.9999999999999999, -1.4210854715202004e-14, 7.105427357601002e-15)"/>
  <path fill="#01798d" d="M 262.321 331.956 C 262.523 332.531 262.536 333.007 262.358 333.383 C 260.462 337.428 256.803 342.813 255.354 348.464 C 254.541 351.208 253.971 353.995 253.644 356.826 C 252.691 365.047 255.354 374.092 258.912 381.424 L 263.413 389.363 C 254.156 382.603 245.996 374.709 238.933 365.681 C 239.576 365.248 239.853 364.66 239.764 363.919 C 239.746 363.742 239.76 363.57 239.807 363.404 C 241.08 359.022 243.578 355.101 245.298 350.85 C 248.574 342.759 253.41 336.116 258.928 329.505 L 260.079 328.431 C 260.231 328.29 260.357 328.312 260.457 328.496 L 262.321 331.956 Z" style="" transform="matrix(0.9999999999999999, 0, 0, 0.9999999999999999, -1.4210854715202004e-14, 7.105427357601002e-15)"/>
  <path fill="#01aba3" d="M 287.307 328.757 C 289.118 329.577 289.771 331.004 289.267 333.035 C 289.221 333.223 289.249 333.401 289.352 333.567 L 290.593 335.519 C 290.689 335.678 290.646 335.747 290.465 335.725 C 290.412 335.722 290.359 335.722 290.305 335.725 C 290.139 335.74 290.107 335.814 290.21 335.948 C 292.686 339.228 295.669 342.265 298.114 345.622 C 298.543 346.215 298.899 346.999 299.179 347.976 C 299.722 349.857 300.841 351.311 301.214 353.236 C 301.711 355.814 302.703 358.185 304.191 360.351 C 304.28 360.481 304.401 360.566 304.553 360.606 C 305.58 360.866 306.116 360.512 306.162 359.543 C 306.236 357.963 306.604 356.763 307.264 355.942 C 305.789 366.012 312.213 373.415 319.653 378.794 C 328.286 385.038 337.507 389.488 347.318 392.145 C 361.156 395.898 375.457 398.219 389.828 397.807 C 395.197 397.655 400.566 397.438 405.935 397.156 C 405.959 397.207 406.002 397.246 406.062 397.275 C 406.29 397.369 406.291 397.413 406.068 397.406 C 406.022 397.406 405.975 397.406 405.929 397.406 C 405.826 397.406 405.791 397.454 405.823 397.552 C 407.01 401.381 379.676 405.052 376.773 405.29 C 371.937 405.591 367.1 405.815 362.264 405.963 C 336.916 406.738 308.926 395.095 292.036 375.589 C 283.546 365.79 278.923 354.163 278.71 340.725 C 278.674 338.469 278.772 336.685 279.003 335.373 C 279.093 334.863 278.939 334.435 278.502 334.207 C 281.24 332.106 284.175 330.29 287.307 328.757 Z" style="" transform="matrix(0.9999999999999999, 0, 0, 0.9999999999999999, -1.4210854715202004e-14, 7.105427357601002e-15)"/>
  <path fill="#01426b" d="M 127.48 329.348 L 130.425 338.279 C 129.687 337.108 128.886 335.226 128.023 332.634 C 127.551 331.21 127.37 330.114 127.48 329.348 Z" style="" transform="matrix(0.9999999999999999, 0, 0, 0.9999999999999999, -1.4210854715202004e-14, 7.105427357601002e-15)"/>
  <path fill="#01718f" d="M 278.502 334.207 C 278.939 334.435 279.093 334.863 279.003 335.373 C 278.772 336.685 278.674 338.469 278.71 340.725 C 278.923 354.163 283.546 365.79 292.036 375.589 C 308.926 395.095 336.916 406.738 362.264 405.963 C 367.1 405.815 371.937 405.591 376.773 405.29 L 376.56 405.86 C 376.492 406.048 376.53 406.212 376.672 406.353 C 378.454 408.089 379.706 410.169 380.427 412.595 C 380.452 412.682 380.455 412.729 380.437 412.736 C 380.224 412.812 380.981 413.414 381.364 413.349 C 382.03 413.235 382.621 413.246 383.303 413.132 C 383.445 413.11 383.52 413.172 383.527 413.316 C 383.534 413.407 383.502 413.474 383.431 413.517 C 378.286 414.363 373.103 414.81 367.883 414.857 C 347.446 415.046 327.217 415.095 307.659 409.591 C 305.677 408.445 303.554 407.868 301.288 407.861 C 290.54 404.893 280.292 400.448 270.545 394.526 C 267.874 392.903 265.497 391.182 263.413 389.363 L 258.912 381.424 C 262.097 382.176 265.3 382.465 268.521 382.292 C 268.581 382.288 268.625 382.315 268.654 382.373 L 268.734 382.541 C 268.886 382.863 269.02 382.854 269.133 382.514 L 269.208 382.265 C 269.265 382.095 269.382 382.003 269.559 381.988 C 270.731 381.887 271.896 381.932 273.053 382.124 C 273.092 382.131 273.119 382.115 273.133 382.075 C 273.151 382.024 273.167 381.968 273.181 381.907 C 273.22 381.686 273.348 381.6 273.565 381.647 C 275.148 381.994 276.553 381.639 277.778 380.584 C 285.086 388.848 296.564 395.611 306.481 399.439 C 306.766 399.548 307.106 399.591 307.504 399.569 C 307.742 399.555 307.751 399.502 307.531 399.412 C 298.753 395.717 291.181 390.963 284.814 385.15 C 273.751 375.047 270.028 361.012 270.385 346.3 C 270.445 343.838 271.116 341.577 272.398 339.516 C 274.287 337.567 276.322 335.798 278.502 334.207 Z" style="" transform="matrix(0.9999999999999999, 0, 0, 0.9999999999999999, -1.4210854715202004e-14, 7.105427357601002e-15)"/>
  <path fill="#01426b" d="M 218.262 337.591 C 219.369 342.121 220.722 346.573 222.32 350.947 C 219.906 346.844 218.553 342.392 218.262 337.591 Z" style="" transform="matrix(0.9999999999999999, 0, 0, 0.9999999999999999, -1.4210854715202004e-14, 7.105427357601002e-15)"/>
  <path fill="#019193" d="M 255.354 348.464 C 257.41 349.602 258.924 351.262 259.897 353.442 C 259.979 353.623 260.109 353.755 260.286 353.838 L 261.144 354.244 C 261.314 354.324 261.446 354.449 261.538 354.619 C 262.117 355.685 262.976 356.387 264.116 356.723 C 264.325 356.784 264.501 356.896 264.643 357.059 C 265.726 358.313 267.111 358.977 268.798 359.049 C 268.968 359.056 269.085 358.979 269.149 358.816 L 269.426 358.089 C 270.167 365.985 272.505 374.461 277.778 380.584 C 276.553 381.639 275.148 381.994 273.565 381.647 C 273.348 381.6 273.22 381.686 273.181 381.907 C 273.167 381.968 273.151 382.024 273.133 382.075 C 273.119 382.115 273.092 382.131 273.053 382.124 C 271.896 381.932 270.731 381.887 269.559 381.988 C 269.382 382.003 269.265 382.095 269.208 382.265 L 269.133 382.514 C 269.02 382.854 268.886 382.863 268.734 382.541 L 268.654 382.373 C 268.625 382.315 268.581 382.288 268.521 382.292 C 265.3 382.465 262.097 382.176 258.912 381.424 C 255.354 374.092 252.691 365.047 253.644 356.826 C 253.971 353.995 254.541 351.208 255.354 348.464 Z" style="" transform="matrix(0.9999999999999999, 0, 0, 0.9999999999999999, -1.4210854715202004e-14, 7.105427357601002e-15)"/>
  <path fill="#016179" d="M 198.096 366.359 C 216.046 390.339 242.954 405.149 270.539 414.873 C 270.625 414.902 270.706 414.909 270.784 414.894 C 270.934 414.858 270.939 414.81 270.8 414.748 L 262.656 411.212 C 262.632 411.093 262.637 410.988 262.672 410.898 C 262.754 410.71 262.885 410.663 263.067 410.757 C 264.359 411.436 265.726 411.863 267.168 412.037 C 267.58 412.087 267.592 412.035 267.205 411.879 L 266.353 411.532 C 265.806 411.315 265.771 411.261 266.246 411.37 C 266.456 411.42 266.619 411.438 266.736 411.424 C 267.621 411.304 267.601 411.176 266.678 411.039 C 266.351 410.992 266.172 410.793 266.14 410.442 C 266.122 410.269 266.051 410.124 265.927 410.008 C 263.445 407.725 261.479 405.464 261.639 401.847 C 261.646 401.666 261.687 401.494 261.762 401.332 C 262.024 400.75 261.907 400.298 261.41 399.976 C 261.222 399.857 261.147 399.685 261.186 399.461 L 261.277 398.929 C 261.288 398.857 261.263 398.799 261.202 398.756 C 257.051 395.748 252.964 392.655 248.941 389.477 C 241.809 383.843 237.836 377.075 231.961 369.445 C 230.835 367.984 230.008 366.368 229.479 364.597 C 238.548 379.383 250.64 391.343 265.756 400.475 C 275.642 406.451 285.171 411.256 295.85 414.634 C 309.544 418.967 322.455 421.782 336.788 421.836 C 353.22 421.895 368.235 419.645 384.395 414.667 C 386.547 414.001 388.72 413.387 390.914 412.823 C 391.9 412.611 392.853 412.069 393.737 411.852 C 408.592 408.175 421.312 402.612 437.131 395.545 C 441.278 393.691 445.609 392.485 450.122 391.928 C 450.278 391.91 450.385 391.827 450.441 391.679 L 452.449 386.598 C 452.609 386.195 452.281 385.767 451.859 385.828 C 451.841 385.831 451.823 385.834 451.805 385.838 C 451.033 386.023 447.895 387.27 447.613 386.31 L 453.323 384.125 C 453.589 384.02 453.69 384.11 453.626 384.396 C 452.322 390.03 449.61 395.909 447.592 399.981 C 446.86 399.298 445.896 399.041 444.7 399.211 C 441.578 399.66 438.754 400.455 436.225 401.597 C 434.564 402.349 433.076 402.984 431.762 403.501 C 427.874 405.036 424.758 407.563 421.226 409.737 C 418.478 411.435 415.565 413.891 412.401 415.529 C 411.948 415.762 411.873 415.968 411.927 416.467 C 411.944 416.651 411.877 416.792 411.724 416.89 C 410.869 417.418 410.261 418.005 409.903 418.653 C 409.327 419.687 409.478 420.744 410.355 421.825 C 396.241 426.033 381.077 429.694 366.403 430.789 C 345.083 432.383 323.803 431.968 302.561 429.542 C 285.458 427.59 268.329 424.341 251.583 420.589 L 251.604 420.377 C 251.622 420.211 251.553 420.104 251.397 420.057 C 240.962 416.971 229.367 413.414 219.465 408.181 C 208.067 402.161 196.061 394.862 186.527 386.066 C 174.607 375.074 164.95 363.762 157.707 349.006 L 161.339 351.132 C 161.474 351.208 161.518 351.172 161.472 351.023 L 161.382 350.736 C 161.311 350.504 161.359 350.474 161.526 350.644 C 162.293 351.425 163.869 351.593 164.865 352.656 C 164.922 352.713 164.989 352.73 165.068 352.704 C 165.114 352.69 165.163 352.674 165.217 352.656 C 165.245 352.641 165.273 352.645 165.302 352.666 C 168.274 354.852 171.923 356.869 174.564 359.369 C 174.703 359.499 174.772 359.662 174.772 359.857 L 174.772 360.557 C 174.772 360.712 174.836 360.833 174.964 360.92 L 178.932 363.621 C 179.081 363.722 179.239 363.801 179.406 363.859 C 179.758 363.986 180.047 363.975 180.274 363.827 C 180.434 363.718 180.596 363.715 180.759 363.816 L 182.298 364.749 C 182.511 364.879 182.529 365.034 182.351 365.215 L 182.197 365.372 C 182.034 365.539 182.053 365.68 182.256 365.795 L 183.614 366.592 C 183.763 366.676 183.8 366.797 183.726 366.956 L 183.608 367.211 C 183.516 367.41 183.564 367.56 183.752 367.661 C 187.477 369.646 191.401 371.074 195.523 371.945 C 195.69 371.981 195.811 371.921 195.886 371.766 C 196.575 370.392 197.562 369.3 198.847 368.491 C 199.014 368.386 199.023 368.268 198.874 368.138 C 198.313 367.65 198.053 367.057 198.096 366.359 Z" style="" transform="matrix(0.9999999999999999, 0, 0, 0.9999999999999999, -1.4210854715202004e-14, 7.105427357601002e-15)"/>
  <path fill="#01426b" d="M 225.617 357.547 L 229.479 364.597 C 230.008 366.368 230.835 367.984 231.961 369.445 C 237.836 377.075 241.809 383.843 248.941 389.477 C 252.964 392.655 257.051 395.748 261.202 398.756 C 261.263 398.799 261.288 398.857 261.277 398.929 L 261.186 399.461 C 261.147 399.685 261.222 399.857 261.41 399.976 C 261.907 400.298 262.024 400.75 261.762 401.332 C 261.687 401.494 261.646 401.666 261.639 401.847 C 261.479 405.464 263.445 407.725 265.927 410.008 C 266.051 410.124 266.122 410.269 266.14 410.442 C 266.172 410.793 266.351 410.992 266.678 411.039 C 267.601 411.176 267.621 411.304 266.736 411.424 C 266.619 411.438 266.456 411.42 266.246 411.37 C 265.771 411.261 265.806 411.315 266.353 411.532 L 267.205 411.879 C 267.592 412.035 267.58 412.087 267.168 412.037 C 265.726 411.863 264.359 411.436 263.067 410.757 C 262.885 410.663 262.754 410.71 262.672 410.898 C 262.637 410.988 262.632 411.093 262.656 411.212 C 252.973 407.194 244.531 402.058 235.631 396.581 C 225.111 390.112 216.834 382.286 207.854 372.943 C 203.266 368.171 199.422 363.219 196.322 358.089 C 196.358 357.858 196.502 357.746 196.754 357.753 C 196.999 357.76 197.068 357.652 196.962 357.428 C 196.589 356.631 196.972 356.061 197.798 355.958 C 200.493 355.611 202.977 356.191 205.249 357.699 C 205.438 357.822 205.532 357.769 205.532 357.542 L 205.532 357.308 C 205.532 357.124 205.613 357.072 205.777 357.151 L 210.48 359.423 C 210.632 359.499 210.741 359.617 210.805 359.776 C 211.327 361.088 212.33 361.696 213.814 361.598 C 214.013 361.587 214.187 361.649 214.336 361.782 L 215.561 362.899 C 215.675 363.004 215.808 363.048 215.961 363.03 C 219.096 362.697 222.198 362.898 225.266 363.632 C 225.479 363.682 225.649 363.615 225.777 363.431 C 226.136 362.914 226.613 362.646 227.21 362.628 C 227.465 362.621 227.538 362.498 227.428 362.26 C 227.114 361.576 224.403 357.802 225.617 357.547 Z" style="" transform="matrix(0.9999999999999999, 0, 0, 0.9999999999999999, -1.4210854715202004e-14, 7.105427357601002e-15)"/>
  <path fill="#02c5b5" d="M 438.09 411.923 L 446.356 403.967 C 446.495 403.837 446.558 403.674 446.548 403.479 C 446.516 402.959 446.649 402.509 446.947 402.129 C 452.732 396.402 459.294 392.373 465.994 387.921 C 467.352 387.021 468.53 385.741 469.84 384.7 C 469.962 384.604 470.143 384.675 470.165 384.828 C 470.172 384.874 470.162 384.92 470.138 384.96 C 468.466 387.97 466.82 390.903 464.599 393.496 C 458.947 400.079 454.132 403.322 446.18 408.143 C 443.293 409.893 440.597 411.153 438.09 411.923 Z" style="" transform="matrix(0.9999999999999999, 0, 0, 0.9999999999999999, -1.4210854715202004e-14, 7.105427357601002e-15)"/>
  <path fill="#01798d" d="M 390.914 412.823 L 383.431 413.517 C 383.502 413.474 383.534 413.407 383.527 413.316 C 383.52 413.172 383.445 413.11 383.303 413.132 C 382.621 413.246 382.03 413.235 381.364 413.349 C 380.981 413.414 380.224 412.812 380.437 412.736 C 380.455 412.729 380.452 412.682 380.427 412.595 C 379.706 410.169 378.454 408.089 376.672 406.353 C 376.53 406.212 376.492 406.048 376.56 405.86 L 376.773 405.29 C 379.676 405.052 407.01 401.381 405.823 397.552 C 405.791 397.454 405.826 397.406 405.929 397.406 C 405.975 397.406 406.022 397.406 406.068 397.406 C 406.291 397.413 406.29 397.369 406.062 397.275 C 406.002 397.246 405.959 397.207 405.935 397.156 C 420.341 395.565 434.233 391.95 447.613 386.31 C 447.895 387.27 451.033 386.023 451.805 385.838 C 452.219 385.736 452.587 386.128 452.467 386.545 C 452.462 386.563 452.456 386.58 452.449 386.598 L 450.441 391.679 C 450.385 391.827 450.278 391.91 450.122 391.928 C 445.609 392.485 441.278 393.691 437.131 395.545 C 421.312 402.612 408.592 408.175 393.737 411.852 C 392.853 412.069 391.9 412.611 390.914 412.823 Z" style="" transform="matrix(0.9999999999999999, 0, 0, 0.9999999999999999, -1.4210854715202004e-14, 7.105427357601002e-15)"/>
  <path fill="#022d6a" d="M 39.883 396.028 C 40.497 397.492 41.57 398.338 43.1 398.566 C 43.278 398.591 43.444 398.559 43.601 398.468 C 44.037 398.223 44.437 398.223 44.799 398.468 C 44.959 398.577 45.135 398.631 45.326 398.631 C 47.239 398.653 49.22 399.081 50.988 399.114 C 54.326 399.175 57.659 399.37 60.986 399.699 C 61.621 399.765 62.339 400 63.138 400.404 C 64.97 401.33 66.95 401.607 69.077 401.234 C 69.623 401.137 70.293 401.281 71.085 401.668 C 71.319 401.78 71.31 401.872 71.058 401.945 C 70.408 402.129 69.817 401.999 69.284 401.554 C 69.025 401.335 68.663 401.291 68.357 401.44 L 65.87 402.65 C 65.675 402.747 65.685 402.801 65.902 402.812 C 67.356 402.899 68.672 402.617 70.067 402.942 C 71.441 403.26 72.816 403.577 74.19 403.891 C 76.022 404.314 77.806 403.777 79.777 404.222 C 81.529 404.613 83.298 404.504 85.018 405.171 C 86.52 405.751 90.856 404.249 92.337 403.479 C 94.907 402.149 97.615 401.258 100.459 400.806 C 102.307 400.507 104.981 399.58 107.506 400.052 C 109.626 400.453 111.501 399.672 113.509 400.323 C 114.515 400.648 115.266 400.99 116.39 400.871 C 117.264 400.784 118.132 400.82 118.995 400.979 C 119.094 401.001 119.151 400.961 119.165 400.86 L 119.266 400.193 C 119.298 399.994 119.41 399.916 119.602 399.96 L 121.786 400.437 C 121.946 400.473 122.084 400.549 122.201 400.665 L 123.4 401.852 C 123.559 402.008 123.639 401.972 123.639 401.744 L 123.639 401.207 C 123.639 401.026 123.728 400.932 123.906 400.925 L 129.834 400.648 C 129.997 400.641 130.136 400.695 130.249 400.811 L 130.398 400.963 C 130.48 401.05 130.537 401.035 130.569 400.92 C 130.583 400.873 130.597 400.827 130.612 400.784 C 130.629 400.73 130.658 400.723 130.697 400.762 C 140.966 410.567 154.591 417.601 167.763 422.79 C 173.579 425.079 181.068 427.069 187.678 429.341 C 189.462 429.954 191.14 430.268 192.802 431.489 C 192.951 431.601 193.116 431.649 193.297 431.635 C 196.141 431.425 198.978 431.467 201.809 431.76 C 196.972 432.237 191.103 432.297 187.294 432.492 C 164.583 433.642 141.944 432.745 119.378 429.802 C 116.605 429.441 111.183 428.251 103.112 426.234 C 83.127 421.234 64.443 413.555 46.823 402.66 C 44.671 401.334 42.159 399.483 39.286 397.107 C 39.144 396.992 39.121 396.854 39.217 396.695 C 39.384 396.42 39.606 396.198 39.883 396.028 Z" style="" transform="matrix(0.9999999999999999, 0, 0, 0.9999999999999999, -1.4210854715202004e-14, 7.105427357601002e-15)"/>
  <path fill="#01798d" d="M 447.592 399.981 C 447.201 400.643 446.986 401.359 446.947 402.129 C 446.649 402.509 446.516 402.959 446.548 403.479 C 446.558 403.674 446.495 403.837 446.356 403.967 L 438.09 411.923 C 428.996 415.628 419.751 418.929 410.355 421.825 C 409.478 420.744 409.327 419.687 409.903 418.653 C 410.261 418.005 410.869 417.418 411.724 416.89 C 411.877 416.792 411.944 416.651 411.927 416.467 C 411.873 415.968 411.948 415.762 412.401 415.529 C 415.565 413.891 418.478 411.435 421.226 409.737 C 424.758 407.563 427.874 405.036 431.762 403.501 C 433.076 402.984 434.564 402.349 436.225 401.597 C 438.754 400.455 441.578 399.66 444.7 399.211 C 445.896 399.041 446.86 399.298 447.592 399.981 Z" style="" transform="matrix(0.9999999999999999, 0, 0, 0.9999999999999999, -1.4210854715202004e-14, 7.105427357601002e-15)"/>
  <path fill="#01426b" d="M 307.659 409.591 C 305.482 409.211 303.358 408.635 301.288 407.861 C 303.554 407.868 305.677 408.445 307.659 409.591 Z" style="" transform="matrix(0.9999999999999999, 0, 0, 0.9999999999999999, -1.4210854715202004e-14, 7.105427357601002e-15)"/>
  <text style="fill: rgb(51, 51, 51); font-family: Arial, sans-serif; font-size: 31.2px; font-weight: 700; white-space: pre;" transform="matrix(0.9999999999999999, 0, 0, 0.9999999999999999, -28.9634075164795, 72.96550750732422)"><tspan x="525.347" y="192.818">Log-On Wave-NextGen</tspan><tspan x="525.3469848632812" dy="1em"></tspan><tspan x="525.3469848632812" dy="1em"></tspan><tspan>       4 LinuxOne</tspan></text>
</svg>