<?xml version="1.0" encoding="UTF-8" standalone="no"?>
<!DOCTYPE svg PUBLIC "-//W3C//DTD SVG 1.1//EN" "http://www.w3.org/Graphics/SVG/1.1/DTD/svg11.dtd">
<svg xmlns="http://www.w3.org/2000/svg" version="1.1" viewBox="0.00 0.00 1024.00 1024.00">
<g stroke-width="2.00" fill="none" stroke-linecap="butt">
<path stroke="#7fb0bc" vector-effect="non-scaling-stroke" d="
  M 6.44 1024.00
  L 6.70 1013.63"
/>
<path stroke="#c7c8c8" vector-effect="non-scaling-stroke" d="
  M 6.70 1013.63
  L 6.43 993.98
  Q 6.42 993.63 6.08 993.61
  L 0.82 993.21
  Q 0.39 993.18 0.26 993.59
  L 0.00 994.44"
/>
<path stroke="#b3ebe0" vector-effect="non-scaling-stroke" d="
  M 436.50 276.96
  C 407.82 287.06 382.58 300.42 356.77 316.70
  C 346.86 322.95 335.84 330.78 325.42 337.91
  Q 316.85 343.76 307.00 352.46"
/>
<path stroke="#80e2da" vector-effect="non-scaling-stroke" d="
  M 307.00 352.46
  Q 279.54 375.05 255.75 401.46"
/>
<path stroke="#7fd5d1" vector-effect="non-scaling-stroke" d="
  M 255.75 401.46
  Q 233.42 426.56 216.79 455.75"
/>
<path stroke="#7fc8c9" vector-effect="non-scaling-stroke" d="
  M 216.79 455.75
  Q 198.33 487.63 186.25 522.46"
/>
<path stroke="#7fbcc6" vector-effect="non-scaling-stroke" d="
  M 186.25 522.46
  C 173.10 557.63 168.28 591.58 163.78 629.79"
/>
<path stroke="#7fa0b5" vector-effect="non-scaling-stroke" d="
  M 163.78 629.79
  Q 160.92 643.75 157.80 657.76
  C 153.41 677.46 146.40 691.87 130.75 705.21"
/>
<path stroke="#8096b4" vector-effect="non-scaling-stroke" d="
  M 130.75 705.21
  Q 129.97 705.68 129.50 706.44
  Q 129.23 706.88 129.63 707.20
  Q 137.72 713.77 143.78 717.44
  C 176.86 737.53 211.94 751.69 249.46 760.91
  Q 272.19 766.49 280.00 767.49
  Q 343.55 775.63 407.51 772.45
  C 414.66 772.09 425.68 771.98 434.76 771.10"
/>
<path stroke="#7fa0b5" vector-effect="non-scaling-stroke" d="
  M 434.76 771.10
  Q 481.64 769.90 528.46 772.64
  C 533.43 772.93 537.94 772.77 542.59 772.35
  A 0.50 0.50 0.0 0 0 542.64 771.36
  C 524.02 767.94 506.35 762.10 488.24 756.86
  C 455.07 747.26 426.33 732.78 396.72 714.51
  Q 366.62 695.94 345.30 671.71
  Q 339.65 665.29 326.46 648.25"
/>
<path stroke="#7fabbc" vector-effect="non-scaling-stroke" d="
  M 326.46 648.25
  Q 310.55 625.07 300.74 598.72"
/>
<path stroke="#7fa0b5" vector-effect="non-scaling-stroke" d="
  M 300.74 598.72
  L 295.21 582.25"
/>
<path stroke="#7fabbc" vector-effect="non-scaling-stroke" d="
  M 295.21 582.25
  L 291.21 565.25"
/>
<path stroke="#7fbcc6" vector-effect="non-scaling-stroke" d="
  M 291.21 565.25
  Q 283.00 528.21 287.57 490.48"
/>
<path stroke="#7fabbc" vector-effect="non-scaling-stroke" d="
  M 287.57 490.48
  C 290.91 471.47 293.32 458.44 300.36 442.20"
/>
<path stroke="#7fbcc6" vector-effect="non-scaling-stroke" d="
  M 300.36 442.20
  L 307.25 427.29"
/>
<path stroke="#7fd5d1" vector-effect="non-scaling-stroke" d="
  M 307.25 427.29
  C 319.12 401.22 337.81 376.12 357.08 355.08
  Q 367.67 343.52 378.83 336.25"
/>
<path stroke="#b3ebe0" vector-effect="non-scaling-stroke" d="
  M 378.83 336.25
  L 382.46 335.24
  Q 383.36 334.99 382.70 335.65
  Q 364.49 353.88 353.04 370.02
  Q 349.14 375.51 338.00 393.71"
/>
<path stroke="#7fd5d1" vector-effect="non-scaling-stroke" d="
  M 338.00 393.71
  Q 332.71 401.20 328.79 409.50"
/>
<path stroke="#7fbcc6" vector-effect="non-scaling-stroke" d="
  M 328.79 409.50
  C 310.98 444.29 300.46 480.75 302.17 520.56"
/>
<path stroke="#7fabbc" vector-effect="non-scaling-stroke" d="
  M 302.17 520.56
  C 303.23 558.37 317.84 597.91 337.79 629.60
  C 344.71 640.60 353.80 651.06 362.61 661.15
  Q 376.95 677.58 394.68 690.26
  Q 433.83 718.27 478.94 735.05
  Q 499.98 742.88 528.21 750.50"
/>
<path stroke="#7fb0bc" vector-effect="non-scaling-stroke" d="
  M 528.21 750.50
  C 559.65 757.42 591.81 763.41 623.92 767.01
  Q 683.74 773.72 743.78 769.31
  C 771.33 767.29 799.80 760.54 826.30 752.78"
/>
<path stroke="#7fbcc6" vector-effect="non-scaling-stroke" d="
  M 826.30 752.78
  Q 852.76 744.77 878.37 734.52"
/>
<path stroke="#80e2da" vector-effect="non-scaling-stroke" d="
  M 878.37 734.52
  Q 885.43 732.39 893.56 727.55
  C 908.49 718.66 917.53 712.68 928.14 700.54
  C 932.31 695.76 935.40 690.35 938.54 684.80
  A 0.38 0.37 -4.2 0 0 937.98 684.32
  C 935.52 686.24 933.31 688.60 930.76 690.26
  C 918.18 698.47 905.86 705.90 895.00 716.46"
/>
<path stroke="#7fbcc6" vector-effect="non-scaling-stroke" d="
  M 895.00 716.46
  Q 895.11 714.33 896.21 712.50"
/>
<path stroke="#7fb0bc" vector-effect="non-scaling-stroke" d="
  M 896.21 712.50
  C 900.00 704.99 905.09 694.15 907.54 683.76
  Q 907.72 682.97 906.97 683.26
  L 896.25 687.29"
/>
<path stroke="#7fbcc6" vector-effect="non-scaling-stroke" d="
  M 896.25 687.29
  Q 858.57 702.89 818.00 707.29"
/>
<path stroke="#7fd5d1" vector-effect="non-scaling-stroke" d="
  M 818.00 707.29
  Q 802.88 708.07 787.76 708.49
  C 760.78 709.25 733.93 704.97 707.95 698.05
  Q 680.32 690.70 656.01 673.43
  C 642.04 663.51 629.98 649.86 632.75 631.29"
/>
<path stroke="#80e2da" vector-effect="non-scaling-stroke" d="
  M 632.75 631.29
  C 637.04 607.06 667.96 603.93 687.08 605.27
  C 703.16 606.40 717.14 613.81 728.04 625.51
  C 735.24 633.23 740.81 644.33 746.11 653.91
  A 1.91 1.90 63.4 0 0 748.56 654.73
  C 752.11 653.15 752.26 649.75 752.45 646.37"
/>
<path stroke="#b3ebe0" vector-effect="non-scaling-stroke" d="
  M 752.45 646.37
  Q 757.16 648.55 761.59 647.28
  C 771.38 644.48 770.54 620.60 769.50 612.74
  Q 765.53 582.90 747.75 558.71"
/>
<path stroke="#c6f0e7" vector-effect="non-scaling-stroke" d="
  M 747.75 558.71
  C 731.41 536.95 709.12 518.62 682.59 511.13
  Q 665.84 506.39 651.26 506.56
  C 617.95 506.94 582.89 522.97 557.50 544.46"
/>
<path stroke="#b3ebe0" vector-effect="non-scaling-stroke" d="
  M 557.50 544.46
  Q 543.73 555.83 532.54 569.75"
/>
<path stroke="#80e2da" vector-effect="non-scaling-stroke" d="
  M 532.54 569.75
  C 523.85 580.52 514.16 593.26 508.78 606.05
  Q 500.87 624.83 495.19 637.59
  Q 494.98 638.05 495.31 638.44
  L 504.46 649.25"
/>
<path stroke="#7fbcc6" vector-effect="non-scaling-stroke" d="
  M 504.46 649.25
  Q 524.35 674.22 550.42 692.92"
/>
<path stroke="#7fb8c7" vector-effect="non-scaling-stroke" d="
  M 550.42 692.92
  Q 556.29 697.95 563.81 702.44
  Q 591.26 718.82 621.53 727.03"
/>
<path stroke="#7fa0b5" vector-effect="non-scaling-stroke" d="
  M 621.53 727.03
  Q 627.36 729.17 633.49 730.22"
/>
<path stroke="#7fb8c7" vector-effect="non-scaling-stroke" d="
  M 633.49 730.22
  C 670.21 740.37 708.19 740.28 746.56 739.93
  Q 761.26 739.80 775.75 737.46"
/>
<path stroke="#7fbcc6" vector-effect="non-scaling-stroke" d="
  M 775.75 737.46
  L 789.80 736.18"
/>
<path stroke="#7fb0bc" vector-effect="non-scaling-stroke" d="
  M 789.80 736.18
  Q 783.62 737.74 777.56 739.58
  C 747.22 748.76 719.03 752.91 688.18 752.80
  C 661.27 752.70 637.03 747.51 611.32 739.52
  C 591.27 733.29 573.38 724.43 554.82 713.41
  Q 512.25 688.15 486.71 647.25"
/>
<path stroke="#7fa0b5" vector-effect="non-scaling-stroke" d="
  M 486.71 647.25
  L 479.46 634.25"
/>
<path stroke="#7fb0bc" vector-effect="non-scaling-stroke" d="
  M 479.46 634.25
  L 473.27 622.08"
/>
<path stroke="#7fa0b5" vector-effect="non-scaling-stroke" d="
  M 473.27 622.08
  Q 468.77 609.98 465.65 597.45"
/>
<path stroke="#7fb0bc" vector-effect="non-scaling-stroke" d="
  M 465.65 597.45
  Q 465.06 591.79 463.19 586.28"
/>
<path stroke="#7fa0b5" vector-effect="non-scaling-stroke" d="
  M 463.19 586.28
  Q 461.58 569.80 462.31 561.31
  Q 465.14 528.72 482.00 500.79"
/>
<path stroke="#7fd5d1" vector-effect="non-scaling-stroke" d="
  M 482.00 500.79
  C 495.90 480.19 509.53 465.50 530.92 452.87
  Q 551.82 440.52 576.04 437.50"
/>
<path stroke="#80e2da" vector-effect="non-scaling-stroke" d="
  M 576.04 437.50
  C 614.58 432.44 658.03 441.31 680.15 475.32
  C 688.14 487.60 693.13 499.52 700.04 511.50
  A 0.60 0.59 -29.4 0 0 700.84 511.72
  C 707.30 508.21 707.93 500.47 708.90 493.95"
/>
<path stroke="#b3ebe0" vector-effect="non-scaling-stroke" d="
  M 708.90 493.95
  Q 709.67 495.77 710.69 497.43
  Q 711.71 499.10 713.55 499.89
  Q 729.40 506.69 735.99 490.70
  Q 746.46 465.32 743.21 435.25"
/>
<path stroke="#c6f0e7" vector-effect="non-scaling-stroke" d="
  M 743.21 435.25
  Q 741.14 414.82 735.70 400.30
  C 722.25 364.40 693.35 331.08 663.00 305.99
  C 599.16 253.24 511.97 248.54 436.50 276.96"
/>
<path stroke="#7bddc9" vector-effect="non-scaling-stroke" d="
  M 743.21 435.25
  Q 741.20 437.64 738.16 438.50
  Q 737.68 438.63 737.36 439.01
  C 734.94 441.90 731.69 442.90 728.90 444.82
  Q 725.56 447.12 721.60 448.05
  C 718.82 448.71 714.08 450.24 712.27 452.53
  Q 709.25 456.32 704.61 457.68
  Q 704.12 457.82 704.04 458.33
  Q 703.95 458.89 703.54 459.25"
/>
<path stroke="#7dd9c1" vector-effect="non-scaling-stroke" d="
  M 703.54 459.25
  Q 694.62 431.30 676.49 408.25
  C 650.65 375.41 620.79 352.31 581.55 337.46
  Q 564.82 331.13 549.25 329.29"
/>
<path stroke="#48c6ba" vector-effect="non-scaling-stroke" d="
  M 549.25 329.29
  Q 474.89 316.83 408.44 349.19
  Q 388.75 358.77 370.75 374.79"
/>
<path stroke="#7bddc9" vector-effect="non-scaling-stroke" d="
  M 370.75 374.79
  Q 369.98 374.86 369.74 374.43
  Q 369.51 374.02 369.87 373.71
  Q 388.71 357.04 407.96 347.72
  C 430.62 336.75 450.99 331.27 474.08 326.52
  A 0.35 0.35 0.0 0 0 474.27 325.95
  Q 473.45 325.00 472.39 325.42
  Q 471.90 325.61 471.48 325.29
  C 467.25 321.98 465.16 317.20 461.06 314.17
  Q 460.64 313.85 460.71 313.32
  L 460.98 311.29
  Q 461.05 310.79 460.68 310.44
  Q 455.84 305.87 452.61 300.04
  Q 452.32 299.51 451.75 299.28
  L 448.29 297.90
  Q 447.81 297.71 447.62 297.23
  L 444.17 288.82
  Q 443.84 288.00 444.72 288.00
  L 446.50 288.00
  Q 451.79 288.00 446.45 287.75
  C 441.35 287.52 435.34 285.48 438.44 278.76
  Q 438.68 278.26 438.12 278.20
  L 436.90 278.08
  Q 436.24 278.02 436.80 277.65
  L 437.22 277.38
  Q 437.36 277.29 437.23 277.17
  Q 436.90 276.88 436.50 276.96"
/>
<path stroke="#37beaa" vector-effect="non-scaling-stroke" d="
  M 549.25 329.29
  Q 548.65 330.04 547.25 330.00
  Q 535.40 329.63 521.69 331.96
  C 513.52 333.35 501.66 332.39 492.17 334.10
  C 448.82 341.91 401.05 363.72 374.08 399.89
  A 1.71 1.71 0.0 0 0 375.17 402.60
  Q 384.39 404.11 392.73 402.98
  Q 394.12 402.80 395.90 404.04
  Q 396.31 404.33 396.80 404.34
  C 401.17 404.51 411.26 404.51 413.16 408.43
  Q 413.36 408.83 413.14 409.21
  L 408.00 418.21"
/>
<path stroke="#7fd5d1" vector-effect="non-scaling-stroke" d="
  M 408.00 418.21
  L 400.90 431.47"
/>
<path stroke="#019298" vector-effect="non-scaling-stroke" d="
  M 400.90 431.47
  Q 395.92 437.89 395.19 446.06"
/>
<path stroke="#7fd5d1" vector-effect="non-scaling-stroke" d="
  M 395.19 446.06
  C 388.98 462.89 387.11 476.13 384.78 492.13"
/>
<path stroke="#019e9b" vector-effect="non-scaling-stroke" d="
  M 384.78 492.13
  Q 382.53 491.27 380.42 490.26
  Q 378.52 489.36 376.56 487.60
  C 368.85 480.69 360.76 477.83 352.49 473.11
  Q 352.00 472.82 352.00 472.26
  L 352.00 471.01
  Q 352.00 470.47 351.56 470.15
  L 342.21 463.50"
/>
<path stroke="#019298" vector-effect="non-scaling-stroke" d="
  M 342.21 463.50
  Q 348.22 441.20 360.02 421.29
  Q 360.45 420.57 359.73 421.00
  L 359.30 421.25
  Q 358.87 421.50 358.51 421.15
  C 355.77 418.43 351.66 417.83 347.12 416.98
  Q 346.88 416.94 346.75 416.73
  L 346.56 416.41
  Q 346.30 415.96 345.78 415.99
  C 341.97 416.22 338.69 414.52 335.49 414.70
  C 332.77 414.85 330.90 416.05 328.16 416.00
  Q 327.85 416.00 327.72 415.72
  L 327.09 414.41
  Q 326.85 413.90 327.40 414.00
  Q 327.55 414.02 327.69 414.08
  Q 328.14 414.26 328.35 413.82
  L 329.46 411.40
  Q 329.60 411.10 329.40 410.84
  Q 328.96 410.23 328.79 409.50"
/>
<path stroke="#35c2b3" vector-effect="non-scaling-stroke" d="
  M 370.75 374.79
  L 346.91 394.63
  Q 346.49 394.98 345.95 394.89
  L 338.00 393.71"
/>
<path stroke="#35c2b3" vector-effect="non-scaling-stroke" d="
  M 378.83 336.25
  Q 355.94 346.49 338.71 364.75"
/>
<path stroke="#35cfbc" vector-effect="non-scaling-stroke" d="
  M 338.71 364.75
  Q 336.75 362.97 336.47 360.29
  Q 336.40 359.61 335.73 359.49
  L 331.62 358.70
  Q 331.09 358.60 330.79 358.17
  L 329.36 356.15
  Q 329.04 355.70 328.50 355.58
  L 320.62 353.90
  Q 320.00 353.76 320.00 354.40
  L 320.00 355.00
  Q 320.00 355.51 319.49 355.51
  Q 318.07 355.52 316.75 354.90
  Q 316.27 354.67 315.74 354.73
  Q 311.55 355.18 308.11 352.79
  Q 307.95 352.68 307.81 352.82
  L 307.57 353.05
  Q 307.40 353.22 307.29 353.01
  L 307.00 352.46"
/>
<path stroke="#6ad4ba" vector-effect="non-scaling-stroke" d="
  M 703.54 459.25
  Q 706.79 468.76 707.96 478.75"
/>
<path stroke="#37cbb3" vector-effect="non-scaling-stroke" d="
  M 707.96 478.75
  Q 704.03 478.95 700.49 477.37
  C 697.75 476.14 695.86 476.12 693.07 475.63
  Q 692.51 475.53 692.35 474.98
  Q 691.51 472.07 691.05 471.22
  Q 655.01 403.40 581.50 380.54"
/>
<path stroke="#37beaa" vector-effect="non-scaling-stroke" d="
  M 581.50 380.54
  Q 531.27 365.04 479.97 376.91
  C 465.06 380.37 448.85 387.52 435.72 396.69
  C 428.63 401.64 421.96 409.24 415.59 415.91"
/>
<path stroke="#b5e7d8" vector-effect="non-scaling-stroke" d="
  M 415.59 415.91
  Q 412.94 415.39 411.98 418.05
  Q 411.80 418.55 411.27 418.51
  L 410.56 418.46
  Q 410.53 418.46 410.54 418.43
  L 410.72 418.09
  Q 410.93 417.69 410.49 417.77
  L 408.00 418.21"
/>
<path stroke="#7fbcc6" vector-effect="non-scaling-stroke" d="
  M 413.96 418.25
  C 403.16 432.10 396.34 452.70 393.71 469.50"
/>
<path stroke="#7fb0bc" vector-effect="non-scaling-stroke" d="
  M 393.71 469.50
  C 383.86 526.40 392.56 587.39 424.46 635.25"
/>
<path stroke="#7fa0b5" vector-effect="non-scaling-stroke" d="
  M 424.46 635.25
  Q 433.19 649.44 446.11 662.64
  C 462.97 679.87 478.51 694.30 498.26 706.23
  C 514.97 716.33 530.82 725.80 549.00 733.21"
/>
<path stroke="#7fb0bc" vector-effect="non-scaling-stroke" d="
  M 549.00 733.21
  L 564.29 739.73
  Q 564.68 739.90 564.26 740.00
  Q 564.04 740.04 563.80 739.96
  C 512.01 722.03 461.49 694.72 427.79 650.50"
/>
<path stroke="#7fbcc6" vector-effect="non-scaling-stroke" d="
  M 427.79 650.50
  C 408.02 623.97 393.37 593.14 387.54 560.50"
/>
<path stroke="#7fc8c9" vector-effect="non-scaling-stroke" d="
  M 387.54 560.50
  C 383.77 536.98 382.06 515.53 384.78 492.13"
/>
<path stroke="#7fbcc6" vector-effect="non-scaling-stroke" d="
  M 395.19 446.06
  L 400.90 431.47"
/>
<path stroke="#018590" vector-effect="non-scaling-stroke" d="
  M 342.21 463.50
  C 335.64 488.57 331.51 514.27 332.55 540.25"
/>
<path stroke="#016884" vector-effect="non-scaling-stroke" d="
  M 332.55 540.25
  Q 331.79 540.56 331.93 539.64
  Q 331.97 539.41 331.80 539.57
  L 331.57 539.80
  Q 331.37 540.01 331.12 539.87
  C 329.73 539.13 328.52 538.80 327.38 537.61
  Q 324.79 534.90 321.11 533.89
  Q 320.63 533.75 320.27 533.40
  Q 314.26 527.52 311.52 525.22
  Q 307.77 522.09 302.17 520.56"
/>
<path stroke="#018590" vector-effect="non-scaling-stroke" d="
  M 387.54 560.50
  C 386.83 565.69 388.75 569.05 389.47 573.91
  C 389.89 576.76 391.65 579.25 390.61 582.22
  Q 390.46 582.66 389.99 582.66
  C 385.73 582.65 383.80 580.30 380.93 578.59
  Q 374.64 574.82 369.93 569.21
  C 365.55 563.99 358.88 560.37 353.79 556.21
  C 352.09 554.82 348.74 552.81 346.65 550.35
  Q 345.39 548.87 339.90 545.77
  Q 339.50 545.54 339.14 545.84
  C 337.04 547.57 336.27 544.31 334.08 544.81
  Q 333.70 544.90 333.59 544.53
  Q 333.42 543.98 332.79 544.00"
/>
<path stroke="#017487" vector-effect="non-scaling-stroke" d="
  M 332.79 544.00
  L 332.55 540.25"
/>
<path stroke="#019298" vector-effect="non-scaling-stroke" d="
  M 307.25 427.29
  Q 305.74 426.20 303.85 426.52
  Q 303.11 426.64 303.76 426.26
  L 304.12 426.05
  Q 304.47 425.84 304.11 425.66
  L 292.26 419.81
  Q 291.81 419.59 291.52 419.99
  Q 263.17 458.91 241.75 502.04"
/>
<path stroke="#019e9b" vector-effect="non-scaling-stroke" d="
  M 241.75 502.04
  C 240.03 502.95 239.92 498.37 240.11 497.50
  Q 240.22 497.01 240.09 496.53
  Q 239.32 493.68 239.81 492.06
  Q 241.60 486.18 239.08 480.68
  C 238.94 480.38 238.90 480.12 239.25 479.99
  Q 239.51 479.88 239.46 479.61
  Q 238.03 472.03 234.68 468.32
  C 232.53 465.94 222.30 456.73 216.79 455.75"
/>
<path stroke="#02b8ac" vector-effect="non-scaling-stroke" d="
  M 255.75 401.46
  L 256.09 402.21
  Q 256.30 402.66 256.79 402.71
  Q 261.55 403.14 266.32 403.03
  C 268.47 402.98 270.42 403.98 272.70 404.02
  Q 273.60 404.04 272.75 403.73
  L 272.00 403.45
  Q 271.51 403.27 272.03 403.26
  C 277.07 403.12 282.58 405.35 287.50 406.58
  Q 288.00 406.70 288.00 407.22
  L 288.00 407.61
  Q 288.00 408.09 288.44 408.29
  L 296.33 411.88
  Q 296.80 412.10 297.11 411.69
  Q 316.11 386.61 338.71 364.75"
/>
<path stroke="#35cfbc" vector-effect="non-scaling-stroke" d="
  M 707.96 478.75
  L 708.90 493.95"
/>
<path stroke="#02b8ac" vector-effect="non-scaling-stroke" d="
  M 581.50 380.54
  Q 579.40 381.20 577.49 380.17
  Q 577.07 379.95 576.60 380.01
  Q 573.14 380.43 569.65 381.02
  C 558.77 382.84 562.00 396.42 565.59 402.89
  Q 565.87 403.38 565.73 403.93
  L 565.24 405.92
  Q 565.11 406.45 565.33 406.95
  Q 567.10 411.00 569.41 414.77
  C 572.16 419.24 575.24 428.74 574.48 433.90
  Q 574.40 434.42 574.75 434.80
  Q 575.81 435.96 576.04 437.50"
/>
<path stroke="#017787" vector-effect="non-scaling-stroke" d="
  M 482.00 500.79
  L 480.25 502.54"
/>
<path stroke="#019298" vector-effect="non-scaling-stroke" d="
  M 480.25 502.54
  Q 478.81 502.74 477.98 503.79
  Q 477.65 504.21 477.19 503.93
  Q 473.17 501.49 470.55 497.55
  Q 470.25 497.09 469.76 496.84
  Q 469.04 496.46 469.15 495.90
  Q 469.26 495.40 468.83 495.12
  Q 466.95 493.88 466.32 491.63
  Q 466.17 491.10 465.77 490.71
  C 464.65 489.64 455.02 481.10 456.03 480.30
  Q 456.42 480.00 455.93 480.00
  L 455.01 480.00
  Q 454.50 480.00 454.18 479.59
  Q 449.54 473.46 444.45 467.69
  C 440.78 463.55 438.47 459.02 435.61 454.41
  C 430.56 446.27 426.86 437.56 423.81 428.66
  C 422.99 426.28 420.90 423.28 420.76 420.84
  Q 420.72 420.30 420.24 420.06
  Q 417.85 418.86 415.25 419.52
  Q 414.79 419.64 414.54 419.23
  L 413.96 418.25"
/>
<path stroke="#7fd5d1" vector-effect="non-scaling-stroke" d="
  M 413.96 418.25
  L 415.59 415.91"
/>
<path stroke="#015272" vector-effect="non-scaling-stroke" d="
  M 549.00 733.21
  Q 548.93 732.88 549.03 732.63
  Q 549.26 732.11 549.77 732.37
  Q 553.41 734.25 557.47 734.73
  Q 558.63 734.87 557.54 734.44
  L 555.94 733.80
  Q 554.40 733.20 555.74 733.50
  Q 556.33 733.64 556.66 733.60
  Q 559.15 733.27 556.55 732.89
  Q 555.63 732.76 555.54 731.79
  Q 555.49 731.31 555.14 730.99
  C 550.48 726.78 546.79 722.61 547.09 715.94
  Q 547.11 715.44 547.32 714.99
  Q 548.06 713.38 546.66 712.49
  Q 546.13 712.16 546.24 711.54
  L 546.41 710.56
  Q 546.44 710.36 546.27 710.24
  Q 534.58 701.92 523.25 693.13
  C 509.86 682.74 502.40 670.26 491.37 656.19
  Q 488.20 652.15 486.71 647.25"
/>
<path stroke="#016d83" vector-effect="non-scaling-stroke" d="
  M 789.80 736.18
  C 791.65 735.79 793.44 734.79 795.10 734.39
  C 822.99 727.61 846.87 717.35 876.57 704.32
  Q 888.25 699.19 900.96 697.65
  Q 901.40 697.60 901.56 697.19
  L 905.33 687.82
  A 1.04 1.04 0.0 0 0 904.12 686.42
  C 902.67 686.76 896.78 689.06 896.25 687.29"
/>
<path stroke="#016d83" vector-effect="non-scaling-stroke" d="
  M 896.21 712.50
  Q 894.15 710.61 890.78 711.08
  Q 881.99 712.32 874.87 715.48
  Q 870.19 717.56 866.49 718.99
  C 859.19 721.82 853.34 726.48 846.71 730.49
  C 841.55 733.62 836.08 738.15 830.14 741.17
  C 829.29 741.60 829.15 741.98 829.25 742.90
  Q 829.30 743.41 828.87 743.68
  Q 826.46 745.14 825.45 746.93
  Q 823.83 749.79 826.30 752.78"
/>
<path stroke="#015e7c" vector-effect="non-scaling-stroke" d="
  M 480.25 502.54
  Q 468.76 522.23 464.00 544.54"
/>
<path stroke="#016d83" vector-effect="non-scaling-stroke" d="
  M 464.00 544.54
  Q 463.93 546.63 462.34 546.78
  Q 461.87 546.82 461.78 547.28
  Q 461.59 548.21 462.65 548.77
  Q 463.24 549.08 462.58 549.11
  L 461.94 549.14
  Q 461.54 549.16 461.24 548.89
  Q 459.32 547.24 454.72 543.28
  C 451.74 540.71 450.28 537.07 447.64 534.53
  Q 443.76 530.81 439.83 527.14
  Q 439.48 526.80 439.34 526.34
  Q 438.55 523.61 435.39 520.61
  Q 432.43 517.80 423.69 507.55
  Q 422.01 505.57 421.48 503.00
  Q 421.38 502.51 421.59 502.06
  C 423.46 497.98 418.71 498.66 418.73 495.54
  Q 418.74 495.04 418.42 494.65
  C 415.83 491.47 411.15 482.11 407.38 481.79
  Q 406.91 481.75 406.74 481.30
  Q 406.32 480.17 405.27 479.99
  Q 404.86 479.92 404.58 479.61
  L 396.81 470.80
  Q 396.50 470.44 396.05 470.29
  L 393.71 469.50"
/>
<path stroke="#015272" vector-effect="non-scaling-stroke" d="
  M 464.00 544.54
  Q 459.62 565.36 463.19 586.28"
/>
<path stroke="#015272" vector-effect="non-scaling-stroke" d="
  M 465.65 597.45
  Q 466.47 610.73 473.27 622.08"
/>
<path stroke="#015272" vector-effect="non-scaling-stroke" d="
  M 479.46 634.25
  C 477.18 634.72 482.27 641.68 482.86 642.94
  Q 483.17 643.60 482.45 643.62
  Q 480.77 643.67 479.76 645.10
  Q 479.40 645.61 478.80 645.47
  Q 470.16 643.44 461.33 644.36
  Q 460.90 644.41 460.58 644.12
  L 458.28 642.06
  Q 457.86 641.69 457.30 641.72
  Q 453.12 641.99 451.65 638.36
  Q 451.47 637.92 451.04 637.71
  L 442.21 633.52
  Q 441.75 633.30 441.75 633.81
  L 441.75 634.24
  Q 441.75 634.87 441.22 634.53
  Q 434.82 630.36 427.23 631.32
  C 425.68 631.51 424.96 632.56 425.66 634.03
  Q 425.96 634.65 425.27 634.63
  Q 424.56 634.61 424.46 635.25"
/>
<path stroke="#016d83" vector-effect="non-scaling-stroke" d="
  M 427.79 650.50
  Q 427.67 652.43 429.25 653.78
  Q 429.67 654.14 429.20 654.43
  Q 425.58 656.67 423.64 660.47
  Q 423.43 660.90 422.96 660.80
  Q 411.35 658.39 400.86 652.90
  Q 400.33 652.62 400.59 652.07
  L 400.81 651.60
  Q 401.02 651.16 400.60 650.93
  L 398.05 649.46
  Q 397.48 649.14 397.94 648.68
  L 398.23 648.39
  Q 398.73 647.89 398.13 647.53
  L 395.24 645.81
  Q 394.78 645.53 394.33 645.83
  Q 393.69 646.24 392.70 645.89
  Q 392.23 645.73 391.81 645.45
  L 384.36 640.47
  Q 384.00 640.23 384.00 639.80
  L 384.00 638.51
  Q 384.00 637.97 383.61 637.61
  C 378.65 633.00 371.80 629.28 366.22 625.25
  Q 366.14 625.19 366.06 625.23
  Q 365.91 625.28 365.78 625.32
  Q 365.56 625.39 365.40 625.23
  C 363.53 623.27 360.57 622.96 359.13 621.52
  Q 358.66 621.05 358.86 621.69
  L 359.03 622.22
  Q 359.16 622.63 358.78 622.42
  L 351.96 618.50"
/>
<path stroke="#016884" vector-effect="non-scaling-stroke" d="
  M 332.79 544.00
  C 334.48 569.39 340.20 595.66 351.96 618.50"
/>
<path stroke="#015c7a" vector-effect="non-scaling-stroke" d="
  M 351.96 618.50
  C 365.56 645.71 383.69 666.57 406.07 686.84
  C 423.97 703.06 446.51 716.52 467.91 727.62
  C 486.50 737.27 508.27 743.83 527.86 749.52
  Q 528.30 749.65 528.25 750.11
  L 528.21 750.50"
/>
<path stroke="#016884" vector-effect="non-scaling-stroke" d="
  M 300.36 442.20
  Q 293.98 454.69 291.15 466.93
  Q 288.75 477.29 287.57 490.48"
/>
<path stroke="#016884" vector-effect="non-scaling-stroke" d="
  M 291.21 565.25
  Q 290.00 570.45 291.65 575.51
  Q 291.80 575.98 291.71 576.47
  Q 291.58 577.09 292.07 577.23
  Q 292.55 577.37 292.33 577.82
  L 291.91 578.67
  Q 291.71 579.09 291.28 578.90
  L 288.35 577.59
  Q 288.00 577.44 288.00 577.05
  L 288.00 576.51
  Q 288.00 576.01 287.50 576.01
  C 285.18 575.98 283.22 576.29 280.99 575.36
  C 276.61 573.54 272.73 573.42 268.98 571.86
  Q 268.45 571.64 268.56 571.08
  L 268.92 569.12
  Q 269.01 568.64 268.54 568.52
  Q 263.03 567.12 258.11 564.26
  Q 257.64 563.99 257.10 564.01
  Q 254.58 564.11 252.36 562.89
  Q 251.91 562.64 251.39 562.65
  Q 243.74 562.90 236.52 559.98"
/>
<path stroke="#015e7c" vector-effect="non-scaling-stroke" d="
  M 236.52 559.98
  Q 236.54 538.39 240.91 517.12
  Q 241.02 516.56 240.52 516.29
  Q 238.81 515.36 237.20 516.38
  Q 236.88 516.58 236.54 516.43
  Q 235.96 516.15 235.29 516.25"
/>
<path stroke="#018590" vector-effect="non-scaling-stroke" d="
  M 235.29 516.25
  L 241.75 502.04"
/>
<path stroke="#016a7f" vector-effect="non-scaling-stroke" d="
  M 235.29 516.25
  L 213.96 570.00"
/>
<path stroke="#018590" vector-effect="non-scaling-stroke" d="
  M 213.96 570.00
  Q 212.10 566.64 211.99 562.89
  C 211.87 558.49 209.69 554.12 208.72 549.78
  C 207.80 545.62 206.20 543.19 203.52 540.25
  Q 202.13 538.74 201.22 536.71
  C 198.62 530.94 194.67 529.36 190.34 525.39
  Q 188.48 523.68 186.25 522.46"
/>
<path stroke="#014d73" vector-effect="non-scaling-stroke" d="
  M 295.21 582.25
  Q 294.90 584.37 296.23 588.31
  Q 298.66 595.48 300.74 598.72"
/>
<path stroke="#014d73" vector-effect="non-scaling-stroke" d="
  M 236.52 559.98
  Q 235.23 580.27 239.73 600.00
  Q 244.86 622.51 249.96 636.27
  Q 259.97 663.28 279.01 690.06
  C 279.66 690.98 280.64 691.35 281.60 691.87
  Q 282.10 692.13 282.05 691.57
  L 281.99 690.84
  Q 281.95 690.32 282.40 690.03
  L 287.02 687.10
  A 2.19 2.19 0.0 0 1 290.07 687.81
  L 291.57 690.27
  Q 291.85 690.72 292.32 690.46
  Q 295.50 688.66 299.14 688.74
  A 0.82 0.81 -9.0 0 0 299.93 687.66
  L 298.85 684.46
  Q 298.63 683.80 299.32 683.73
  Q 302.23 683.44 302.96 682.96
  Q 308.71 679.21 312.26 677.50
  C 314.81 676.28 316.97 674.54 319.50 673.28
  Q 320.00 673.03 320.00 672.48
  L 320.00 670.44
  Q 320.00 669.79 320.63 669.67
  Q 327.90 668.22 332.05 662.14
  Q 332.36 661.69 332.20 661.17
  Q 331.78 659.77 332.17 658.38
  Q 332.31 657.89 332.01 657.49
  C 330.82 655.91 325.62 650.85 326.46 648.25"
/>
<path stroke="#02386b" vector-effect="non-scaling-stroke" d="
  M 434.76 771.10
  Q 426.79 770.29 418.78 770.87
  Q 418.27 770.91 417.85 770.60
  C 414.73 768.35 411.58 767.77 408.23 766.64
  C 395.82 762.45 381.76 758.78 370.84 754.56
  C 346.11 744.99 320.53 732.02 301.25 713.94
  Q 301.14 713.83 301.09 713.98
  Q 301.05 714.10 301.01 714.23
  Q 300.92 714.55 300.69 714.31
  L 300.41 714.03
  Q 300.09 713.71 299.63 713.73
  L 288.50 714.24
  Q 288.00 714.26 288.00 714.76
  L 288.00 715.75
  Q 288.00 716.38 287.55 715.95
  L 285.30 713.76
  Q 284.97 713.44 284.52 713.34
  L 280.42 712.46
  Q 279.88 712.34 279.79 712.89
  L 279.60 714.12
  Q 279.56 714.40 279.28 714.34
  Q 276.85 713.90 274.39 714.14
  C 272.28 714.36 270.87 713.73 268.98 713.13
  C 265.21 711.93 261.69 713.37 257.71 712.63
  C 252.97 711.76 247.95 713.47 244.48 714.02
  Q 236.47 715.27 229.23 718.95
  C 226.45 720.37 218.31 723.14 215.49 722.07
  C 212.26 720.84 208.94 721.04 205.65 720.32
  C 201.95 719.50 198.60 720.49 195.16 719.71
  Q 191.29 718.84 187.42 717.96
  C 184.80 717.36 182.33 717.88 179.60 717.72
  Q 178.99 717.69 179.54 717.42
  L 184.21 715.19
  A 1.63 1.62 -38.0 0 1 185.95 715.40
  Q 187.45 716.63 189.28 716.12
  Q 189.99 715.92 189.33 715.61
  Q 187.10 714.54 185.56 714.81
  Q 179.57 715.84 174.41 713.28
  Q 172.16 712.16 170.37 711.98
  Q 161.00 711.07 151.60 710.90
  C 148.28 710.84 144.56 710.05 140.97 710.01
  Q 140.43 710.01 139.98 709.71
  Q 138.96 709.03 137.73 709.71
  Q 137.29 709.96 136.79 709.89
  Q 132.48 709.26 130.75 705.21"
/>
<path stroke="#015e7c" vector-effect="non-scaling-stroke" d="
  M 163.78 629.79
  Q 166.76 629.24 169.64 628.41
  Q 172.46 627.60 175.02 625.84
  C 194.57 612.37 206.27 592.18 213.96 570.00"
/>
<path stroke="#029fa1" vector-effect="non-scaling-stroke" d="
  M 878.37 734.52
  L 893.89 719.85
  Q 894.28 719.49 894.25 718.95
  Q 894.16 717.51 895.00 716.46"
/>
<path stroke="#01758e" vector-effect="non-scaling-stroke" d="
  M 763.25 722.29
  L 762.85 723.34
  Q 762.66 723.86 763.06 724.25
  Q 768.08 729.05 770.11 735.76
  Q 770.18 736.00 770.13 736.02
  C 769.73 736.16 771.15 737.27 771.87 737.15
  C 773.12 736.94 774.23 736.96 775.51 736.75
  Q 775.91 736.69 775.93 737.09
  Q 775.95 737.34 775.75 737.46"
/>
<path stroke="#015a7d" vector-effect="non-scaling-stroke" d="
  M 633.49 730.22
  Q 627.91 727.05 621.53 727.03"
/>
<path stroke="#018191" vector-effect="non-scaling-stroke" d="
  M 541.97 678.28
  Q 550.94 680.36 560.01 679.88
  Q 560.18 679.87 560.26 680.03
  L 560.41 680.34
  Q 560.84 681.23 561.16 680.29
  L 561.30 679.83
  Q 561.46 679.36 561.96 679.32
  Q 565.26 679.04 568.52 679.57
  Q 568.63 679.59 568.67 679.48
  Q 568.72 679.34 568.76 679.17
  Q 568.87 678.56 569.48 678.69
  Q 573.94 679.65 577.39 676.73"
/>
<path stroke="#019298" vector-effect="non-scaling-stroke" d="
  M 818.00 707.29
  Q 818.07 707.43 818.24 707.51
  Q 818.88 707.77 818.25 707.75
  Q 818.12 707.75 817.99 707.75
  Q 817.70 707.75 817.79 708.02
  C 820.02 715.08 768.70 721.85 763.25 722.29"
/>
<path stroke="#018e99" vector-effect="non-scaling-stroke" d="
  M 763.25 722.29
  Q 749.63 723.12 736.01 723.53
  C 688.42 724.96 635.87 703.49 604.16 667.52
  C 588.22 649.45 579.54 628.01 579.14 603.23
  Q 579.04 596.99 579.69 593.36
  C 579.86 592.42 579.57 591.63 578.75 591.21"
/>
<path stroke="#7fb8c7" vector-effect="non-scaling-stroke" d="
  M 567.29 601.00
  Q 563.68 606.70 563.51 613.51
  C 562.84 640.64 569.83 666.52 590.60 685.15
  Q 608.53 701.23 633.25 711.45
  Q 633.87 711.70 633.20 711.74
  Q 632.08 711.80 631.28 711.50
  C 612.66 704.44 591.11 691.97 577.39 676.73"
/>
<path stroke="#7fc8c9" vector-effect="non-scaling-stroke" d="
  M 577.39 676.73
  C 567.49 665.44 563.10 649.81 561.71 635.25"
/>
<path stroke="#018590" vector-effect="non-scaling-stroke" d="
  M 535.29 617.50
  Q 533.00 625.09 532.08 632.92
  C 530.29 648.08 535.29 664.76 541.97 678.28"
/>
<path stroke="#01758e" vector-effect="non-scaling-stroke" d="
  M 541.97 678.28
  L 550.42 692.92"
/>
<path stroke="#6ad4ba" vector-effect="non-scaling-stroke" d="
  M 718.71 583.50
  Q 738.26 604.14 748.96 630.50"
/>
<path stroke="#37cbb3" vector-effect="non-scaling-stroke" d="
  M 748.96 630.50
  L 744.58 630.38
  Q 744.07 630.36 743.71 629.99
  Q 741.08 627.16 740.33 623.28
  Q 740.25 622.88 739.90 622.69
  L 737.72 621.50
  Q 737.28 621.26 736.98 620.86
  C 718.89 596.63 692.06 576.71 661.95 570.56
  C 641.10 566.30 613.97 569.94 595.28 581.16"
/>
<path stroke="#37beaa" vector-effect="non-scaling-stroke" d="
  M 595.28 581.16
  Q 586.46 585.40 578.75 591.21"
/>
<path stroke="#37a1a0" vector-effect="non-scaling-stroke" d="
  M 578.75 591.21
  Q 572.61 595.61 567.29 601.00"
/>
<path stroke="#b5e7d8" vector-effect="non-scaling-stroke" d="
  M 567.29 601.00
  C 572.22 584.68 584.20 574.19 597.64 564.80
  Q 603.33 560.83 608.50 556.21"
/>
<path stroke="#02b8ac" vector-effect="non-scaling-stroke" d="
  M 632.75 631.29
  Q 630.89 633.56 630.68 637.93
  Q 630.55 640.61 627.66 639.89
  Q 627.23 639.78 626.98 639.42
  Q 622.79 633.43 621.39 626.30
  C 620.69 622.75 618.59 620.07 617.57 616.60
  Q 616.78 613.90 615.57 612.26
  C 610.98 606.07 605.38 600.47 600.73 594.42
  Q 600.44 594.05 600.91 594.01
  Q 601.06 594.00 601.21 594.01
  Q 601.72 594.07 601.45 593.63
  L 599.12 590.03
  Q 598.83 589.57 598.96 589.05
  Q 600.38 583.43 595.28 581.16"
/>
<path stroke="#37cbb3" vector-effect="non-scaling-stroke" d="
  M 653.74 547.82
  Q 629.99 546.15 608.50 556.21"
/>
<path stroke="#80e2da" vector-effect="non-scaling-stroke" d="
  M 608.50 556.21
  Q 607.26 556.73 606.15 557.43
  C 586.71 569.73 570.64 583.50 562.61 605.72
  C 559.22 615.12 560.54 626.13 561.71 635.25"
/>
<path stroke="#02aba4" vector-effect="non-scaling-stroke" d="
  M 561.71 635.25
  L 561.19 636.59
  Q 561.01 637.04 560.53 637.02
  Q 555.78 636.82 552.73 633.35
  Q 552.33 632.90 551.74 632.73
  Q 548.53 631.80 546.90 628.85
  Q 546.64 628.38 546.16 628.16
  L 544.55 627.41
  Q 544.05 627.18 543.82 626.68
  Q 541.08 620.65 535.29 617.50"
/>
<path stroke="#029fa1" vector-effect="non-scaling-stroke" d="
  M 535.29 617.50
  C 538.01 607.08 544.88 597.15 548.44 589.69
  Q 548.94 588.65 548.37 587.06"
/>
<path stroke="#029fa1" vector-effect="non-scaling-stroke" d="
  M 542.00 582.54
  C 531.64 594.73 522.56 606.98 516.41 621.90
  C 513.18 629.74 508.49 636.97 506.10 645.05
  Q 505.97 645.51 506.02 646.00
  Q 506.27 648.05 504.46 649.25"
/>
<path stroke="#35cfbc" vector-effect="non-scaling-stroke" d="
  M 574.98 562.68
  Q 559.26 572.25 548.37 587.06"
/>
<path stroke="#35a9a8" vector-effect="non-scaling-stroke" d="
  M 548.37 587.06
  L 544.87 580.68
  Q 544.59 580.17 544.16 580.56
  L 542.00 582.54"
/>
<path stroke="#35cfbc" vector-effect="non-scaling-stroke" d="
  M 542.00 582.54
  C 537.76 582.08 535.86 573.22 532.54 569.75"
/>
<path stroke="#35cfbc" vector-effect="non-scaling-stroke" d="
  M 752.45 646.37
  Q 751.60 638.39 748.96 630.50"
/>
<path stroke="#7bddc9" vector-effect="non-scaling-stroke" d="
  M 747.75 558.71
  L 746.89 558.86
  Q 746.37 558.95 746.89 559.11
  Q 747.16 559.19 747.23 559.40
  Q 747.28 559.53 747.18 559.64
  Q 741.77 565.85 739.43 567.17
  C 732.01 571.37 723.65 574.81 718.24 581.88
  Q 717.94 582.27 718.31 582.60
  Q 718.74 582.98 718.71 583.50"
/>
<path stroke="#7dd9c1" vector-effect="non-scaling-stroke" d="
  M 718.71 583.50
  C 701.76 565.58 678.39 551.58 653.74 547.82"
/>
<path stroke="#48d3c3" vector-effect="non-scaling-stroke" d="
  M 653.74 547.82
  Q 642.60 545.39 631.25 546.06
  C 623.78 546.50 615.67 546.80 608.89 548.10
  Q 590.50 551.62 574.98 562.68"
/>
<path stroke="#7bddc9" vector-effect="non-scaling-stroke" d="
  M 574.98 562.68
  Q 570.16 559.57 566.77 555.13
  C 564.06 551.59 560.70 549.65 557.73 546.37
  Q 557.39 546.00 557.64 545.57
  Q 557.94 545.05 557.50 544.46"
/>
<path stroke="#497985" vector-effect="non-scaling-stroke" d="
  M 6.70 1013.63
  L 0.00 1013.86"
/>
</g>
<path fill="#fdfefe" d="
  M 0.00 0.00
  L 1024.00 0.00
  L 1024.00 1024.00
  L 6.44 1024.00
  L 6.70 1013.63
  L 6.43 993.98
  Q 6.42 993.63 6.08 993.61
  L 0.82 993.21
  Q 0.39 993.18 0.26 993.59
  L 0.00 994.44
  L 0.00 0.00
  Z
  M 436.50 276.96
  C 407.82 287.06 382.58 300.42 356.77 316.70
  C 346.86 322.95 335.84 330.78 325.42 337.91
  Q 316.85 343.76 307.00 352.46
  Q 279.54 375.05 255.75 401.46
  Q 233.42 426.56 216.79 455.75
  Q 198.33 487.63 186.25 522.46
  C 173.10 557.63 168.28 591.58 163.78 629.79
  Q 160.92 643.75 157.80 657.76
  C 153.41 677.46 146.40 691.87 130.75 705.21
  Q 129.97 705.68 129.50 706.44
  Q 129.23 706.88 129.63 707.20
  Q 137.72 713.77 143.78 717.44
  C 176.86 737.53 211.94 751.69 249.46 760.91
  Q 272.19 766.49 280.00 767.49
  Q 343.55 775.63 407.51 772.45
  C 414.66 772.09 425.68 771.98 434.76 771.10
  Q 481.64 769.90 528.46 772.64
  C 533.43 772.93 537.94 772.77 542.59 772.35
  A 0.50 0.50 0.0 0 0 542.64 771.36
  C 524.02 767.94 506.35 762.10 488.24 756.86
  C 455.07 747.26 426.33 732.78 396.72 714.51
  Q 366.62 695.94 345.30 671.71
  Q 339.65 665.29 326.46 648.25
  Q 310.55 625.07 300.74 598.72
  L 295.21 582.25
  L 291.21 565.25
  Q 283.00 528.21 287.57 490.48
  C 290.91 471.47 293.32 458.44 300.36 442.20
  L 307.25 427.29
  C 319.12 401.22 337.81 376.12 357.08 355.08
  Q 367.67 343.52 378.83 336.25
  L 382.46 335.24
  Q 383.36 334.99 382.70 335.65
  Q 364.49 353.88 353.04 370.02
  Q 349.14 375.51 338.00 393.71
  Q 332.71 401.20 328.79 409.50
  C 310.98 444.29 300.46 480.75 302.17 520.56
  C 303.23 558.37 317.84 597.91 337.79 629.60
  C 344.71 640.60 353.80 651.06 362.61 661.15
  Q 376.95 677.58 394.68 690.26
  Q 433.83 718.27 478.94 735.05
  Q 499.98 742.88 528.21 750.50
  C 559.65 757.42 591.81 763.41 623.92 767.01
  Q 683.74 773.72 743.78 769.31
  C 771.33 767.29 799.80 760.54 826.30 752.78
  Q 852.76 744.77 878.37 734.52
  Q 885.43 732.39 893.56 727.55
  C 908.49 718.66 917.53 712.68 928.14 700.54
  C 932.31 695.76 935.40 690.35 938.54 684.80
  A 0.38 0.37 -4.2 0 0 937.98 684.32
  C 935.52 686.24 933.31 688.60 930.76 690.26
  C 918.18 698.47 905.86 705.90 895.00 716.46
  Q 895.11 714.33 896.21 712.50
  C 900.00 704.99 905.09 694.15 907.54 683.76
  Q 907.72 682.97 906.97 683.26
  L 896.25 687.29
  Q 858.57 702.89 818.00 707.29
  Q 802.88 708.07 787.76 708.49
  C 760.78 709.25 733.93 704.97 707.95 698.05
  Q 680.32 690.70 656.01 673.43
  C 642.04 663.51 629.98 649.86 632.75 631.29
  C 637.04 607.06 667.96 603.93 687.08 605.27
  C 703.16 606.40 717.14 613.81 728.04 625.51
  C 735.24 633.23 740.81 644.33 746.11 653.91
  A 1.91 1.90 63.4 0 0 748.56 654.73
  C 752.11 653.15 752.26 649.75 752.45 646.37
  Q 757.16 648.55 761.59 647.28
  C 771.38 644.48 770.54 620.60 769.50 612.74
  Q 765.53 582.90 747.75 558.71
  C 731.41 536.95 709.12 518.62 682.59 511.13
  Q 665.84 506.39 651.26 506.56
  C 617.95 506.94 582.89 522.97 557.50 544.46
  Q 543.73 555.83 532.54 569.75
  C 523.85 580.52 514.16 593.26 508.78 606.05
  Q 500.87 624.83 495.19 637.59
  Q 494.98 638.05 495.31 638.44
  L 504.46 649.25
  Q 524.35 674.22 550.42 692.92
  Q 556.29 697.95 563.81 702.44
  Q 591.26 718.82 621.53 727.03
  Q 627.36 729.17 633.49 730.22
  C 670.21 740.37 708.19 740.28 746.56 739.93
  Q 761.26 739.80 775.75 737.46
  L 789.80 736.18
  Q 783.62 737.74 777.56 739.58
  C 747.22 748.76 719.03 752.91 688.18 752.80
  C 661.27 752.70 637.03 747.51 611.32 739.52
  C 591.27 733.29 573.38 724.43 554.82 713.41
  Q 512.25 688.15 486.71 647.25
  L 479.46 634.25
  L 473.27 622.08
  Q 468.77 609.98 465.65 597.45
  Q 465.06 591.79 463.19 586.28
  Q 461.58 569.80 462.31 561.31
  Q 465.14 528.72 482.00 500.79
  C 495.90 480.19 509.53 465.50 530.92 452.87
  Q 551.82 440.52 576.04 437.50
  C 614.58 432.44 658.03 441.31 680.15 475.32
  C 688.14 487.60 693.13 499.52 700.04 511.50
  A 0.60 0.59 -29.4 0 0 700.84 511.72
  C 707.30 508.21 707.93 500.47 708.90 493.95
  Q 709.67 495.77 710.69 497.43
  Q 711.71 499.10 713.55 499.89
  Q 729.40 506.69 735.99 490.70
  Q 746.46 465.32 743.21 435.25
  Q 741.14 414.82 735.70 400.30
  C 722.25 364.40 693.35 331.08 663.00 305.99
  C 599.16 253.24 511.97 248.54 436.50 276.96
  Z"
/>
<path fill="#8ee1d0" d="
  M 743.21 435.25
  Q 741.20 437.64 738.16 438.50
  Q 737.68 438.63 737.36 439.01
  C 734.94 441.90 731.69 442.90 728.90 444.82
  Q 725.56 447.12 721.60 448.05
  C 718.82 448.71 714.08 450.24 712.27 452.53
  Q 709.25 456.32 704.61 457.68
  Q 704.12 457.82 704.04 458.33
  Q 703.95 458.89 703.54 459.25
  Q 694.62 431.30 676.49 408.25
  C 650.65 375.41 620.79 352.31 581.55 337.46
  Q 564.82 331.13 549.25 329.29
  Q 474.89 316.83 408.44 349.19
  Q 388.75 358.77 370.75 374.79
  Q 369.98 374.86 369.74 374.43
  Q 369.51 374.02 369.87 373.71
  Q 388.71 357.04 407.96 347.72
  C 430.62 336.75 450.99 331.27 474.08 326.52
  A 0.35 0.35 0.0 0 0 474.27 325.95
  Q 473.45 325.00 472.39 325.42
  Q 471.90 325.61 471.48 325.29
  C 467.25 321.98 465.16 317.20 461.06 314.17
  Q 460.64 313.85 460.71 313.32
  L 460.98 311.29
  Q 461.05 310.79 460.68 310.44
  Q 455.84 305.87 452.61 300.04
  Q 452.32 299.51 451.75 299.28
  L 448.29 297.90
  Q 447.81 297.71 447.62 297.23
  L 444.17 288.82
  Q 443.84 288.00 444.72 288.00
  L 446.50 288.00
  Q 451.79 288.00 446.45 287.75
  C 441.35 287.52 435.34 285.48 438.44 278.76
  Q 438.68 278.26 438.12 278.20
  L 436.90 278.08
  Q 436.24 278.02 436.80 277.65
  L 437.22 277.38
  Q 437.36 277.29 437.23 277.17
  Q 436.90 276.88 436.50 276.96
  C 511.97 248.54 599.16 253.24 663.00 305.99
  C 693.35 331.08 722.25 364.40 735.70 400.30
  Q 741.14 414.82 743.21 435.25
  Z"
/>
<path fill="#68d8c2" d="
  M 436.50 276.96
  Q 436.90 276.88 437.23 277.17
  Q 437.36 277.29 437.22 277.38
  L 436.80 277.65
  Q 436.24 278.02 436.90 278.08
  L 438.12 278.20
  Q 438.68 278.26 438.44 278.76
  C 435.34 285.48 441.35 287.52 446.45 287.75
  Q 451.79 288.00 446.50 288.00
  L 444.72 288.00
  Q 443.84 288.00 444.17 288.82
  L 447.62 297.23
  Q 447.81 297.71 448.29 297.90
  L 451.75 299.28
  Q 452.32 299.51 452.61 300.04
  Q 455.84 305.87 460.68 310.44
  Q 461.05 310.79 460.98 311.29
  L 460.71 313.32
  Q 460.64 313.85 461.06 314.17
  C 465.16 317.20 467.25 321.98 471.48 325.29
  Q 471.90 325.61 472.39 325.42
  Q 473.45 325.00 474.27 325.95
  A 0.35 0.35 0.0 0 1 474.08 326.52
  C 450.99 331.27 430.62 336.75 407.96 347.72
  Q 388.71 357.04 369.87 373.71
  Q 369.51 374.02 369.74 374.43
  Q 369.98 374.86 370.75 374.79
  L 346.91 394.63
  Q 346.49 394.98 345.95 394.89
  L 338.00 393.71
  Q 349.14 375.51 353.04 370.02
  Q 364.49 353.88 382.70 335.65
  Q 383.36 334.99 382.46 335.24
  L 378.83 336.25
  Q 355.94 346.49 338.71 364.75
  Q 336.75 362.97 336.47 360.29
  Q 336.40 359.61 335.73 359.49
  L 331.62 358.70
  Q 331.09 358.60 330.79 358.17
  L 329.36 356.15
  Q 329.04 355.70 328.50 355.58
  L 320.62 353.90
  Q 320.00 353.76 320.00 354.40
  L 320.00 355.00
  Q 320.00 355.51 319.49 355.51
  Q 318.07 355.52 316.75 354.90
  Q 316.27 354.67 315.74 354.73
  Q 311.55 355.18 308.11 352.79
  Q 307.95 352.68 307.81 352.82
  L 307.57 353.05
  Q 307.40 353.22 307.29 353.01
  L 307.00 352.46
  Q 316.85 343.76 325.42 337.91
  C 335.84 330.78 346.86 322.95 356.77 316.70
  C 382.58 300.42 407.82 287.06 436.50 276.96
  Z"
/>
<path fill="#01aba3" d="
  M 549.25 329.29
  Q 548.65 330.04 547.25 330.00
  Q 535.40 329.63 521.69 331.96
  C 513.52 333.35 501.66 332.39 492.17 334.10
  C 448.82 341.91 401.05 363.72 374.08 399.89
  A 1.71 1.71 0.0 0 0 375.17 402.60
  Q 384.39 404.11 392.73 402.98
  Q 394.12 402.80 395.90 404.04
  Q 396.31 404.33 396.80 404.34
  C 401.17 404.51 411.26 404.51 413.16 408.43
  Q 413.36 408.83 413.14 409.21
  L 408.00 418.21
  L 400.90 431.47
  Q 395.92 437.89 395.19 446.06
  C 388.98 462.89 387.11 476.13 384.78 492.13
  Q 382.53 491.27 380.42 490.26
  Q 378.52 489.36 376.56 487.60
  C 368.85 480.69 360.76 477.83 352.49 473.11
  Q 352.00 472.82 352.00 472.26
  L 352.00 471.01
  Q 352.00 470.47 351.56 470.15
  L 342.21 463.50
  Q 348.22 441.20 360.02 421.29
  Q 360.45 420.57 359.73 421.00
  L 359.30 421.25
  Q 358.87 421.50 358.51 421.15
  C 355.77 418.43 351.66 417.83 347.12 416.98
  Q 346.88 416.94 346.75 416.73
  L 346.56 416.41
  Q 346.30 415.96 345.78 415.99
  C 341.97 416.22 338.69 414.52 335.49 414.70
  C 332.77 414.85 330.90 416.05 328.16 416.00
  Q 327.85 416.00 327.72 415.72
  L 327.09 414.41
  Q 326.85 413.90 327.40 414.00
  Q 327.55 414.02 327.69 414.08
  Q 328.14 414.26 328.35 413.82
  L 329.46 411.40
  Q 329.60 411.10 329.40 410.84
  Q 328.96 410.23 328.79 409.50
  Q 332.71 401.20 338.00 393.71
  L 345.95 394.89
  Q 346.49 394.98 346.91 394.63
  L 370.75 374.79
  Q 388.75 358.77 408.44 349.19
  Q 474.89 316.83 549.25 329.29
  Z"
/>
<path fill="#6cd0b1" d="
  M 549.25 329.29
  Q 564.82 331.13 581.55 337.46
  C 620.79 352.31 650.65 375.41 676.49 408.25
  Q 694.62 431.30 703.54 459.25
  Q 706.79 468.76 707.96 478.75
  Q 704.03 478.95 700.49 477.37
  C 697.75 476.14 695.86 476.12 693.07 475.63
  Q 692.51 475.53 692.35 474.98
  Q 691.51 472.07 691.05 471.22
  Q 655.01 403.40 581.50 380.54
  Q 531.27 365.04 479.97 376.91
  C 465.06 380.37 448.85 387.52 435.72 396.69
  C 428.63 401.64 421.96 409.24 415.59 415.91
  Q 412.94 415.39 411.98 418.05
  Q 411.80 418.55 411.27 418.51
  L 410.56 418.46
  Q 410.53 418.46 410.54 418.43
  L 410.72 418.09
  Q 410.93 417.69 410.49 417.77
  L 408.00 418.21
  L 413.14 409.21
  Q 413.36 408.83 413.16 408.43
  C 411.26 404.51 401.17 404.51 396.80 404.34
  Q 396.31 404.33 395.90 404.04
  Q 394.12 402.80 392.73 402.98
  Q 384.39 404.11 375.17 402.60
  A 1.71 1.71 0.0 0 1 374.08 399.89
  C 401.05 363.72 448.82 341.91 492.17 334.10
  C 501.66 332.39 513.52 333.35 521.69 331.96
  Q 535.40 329.63 547.25 330.00
  Q 548.65 330.04 549.25 329.29
  Z"
/>
<path fill="#01aba3" d="
  M 378.83 336.25
  Q 367.67 343.52 357.08 355.08
  C 337.81 376.12 319.12 401.22 307.25 427.29
  Q 305.74 426.20 303.85 426.52
  Q 303.11 426.64 303.76 426.26
  L 304.12 426.05
  Q 304.47 425.84 304.11 425.66
  L 292.26 419.81
  Q 291.81 419.59 291.52 419.99
  Q 263.17 458.91 241.75 502.04
  C 240.03 502.95 239.92 498.37 240.11 497.50
  Q 240.22 497.01 240.09 496.53
  Q 239.32 493.68 239.81 492.06
  Q 241.60 486.18 239.08 480.68
  C 238.94 480.38 238.90 480.12 239.25 479.99
  Q 239.51 479.88 239.46 479.61
  Q 238.03 472.03 234.68 468.32
  C 232.53 465.94 222.30 456.73 216.79 455.75
  Q 233.42 426.56 255.75 401.46
  L 256.09 402.21
  Q 256.30 402.66 256.79 402.71
  Q 261.55 403.14 266.32 403.03
  C 268.47 402.98 270.42 403.98 272.70 404.02
  Q 273.60 404.04 272.75 403.73
  L 272.00 403.45
  Q 271.51 403.27 272.03 403.26
  C 277.07 403.12 282.58 405.35 287.50 406.58
  Q 288.00 406.70 288.00 407.22
  L 288.00 407.61
  Q 288.00 408.09 288.44 408.29
  L 296.33 411.88
  Q 296.80 412.10 297.11 411.69
  Q 316.11 386.61 338.71 364.75
  Q 355.94 346.49 378.83 336.25
  Z"
/>
<path fill="#02c5b5" d="
  M 307.00 352.46
  L 307.29 353.01
  Q 307.40 353.22 307.57 353.05
  L 307.81 352.82
  Q 307.95 352.68 308.11 352.79
  Q 311.55 355.18 315.74 354.73
  Q 316.27 354.67 316.75 354.90
  Q 318.07 355.52 319.49 355.51
  Q 320.00 355.51 320.00 355.00
  L 320.00 354.40
  Q 320.00 353.76 320.62 353.90
  L 328.50 355.58
  Q 329.04 355.70 329.36 356.15
  L 330.79 358.17
  Q 331.09 358.60 331.62 358.70
  L 335.73 359.49
  Q 336.40 359.61 336.47 360.29
  Q 336.75 362.97 338.71 364.75
  Q 316.11 386.61 297.11 411.69
  Q 296.80 412.10 296.33 411.88
  L 288.44 408.29
  Q 288.00 408.09 288.00 407.61
  L 288.00 407.22
  Q 288.00 406.70 287.50 406.58
  C 282.58 405.35 277.07 403.12 272.03 403.26
  Q 271.51 403.27 272.00 403.45
  L 272.75 403.73
  Q 273.60 404.04 272.70 404.02
  C 270.42 403.98 268.47 402.98 266.32 403.03
  Q 261.55 403.14 256.79 402.71
  Q 256.30 402.66 256.09 402.21
  L 255.75 401.46
  Q 279.54 375.05 307.00 352.46
  Z"
/>
<path fill="#01aba3" d="
  M 581.50 380.54
  Q 579.40 381.20 577.49 380.17
  Q 577.07 379.95 576.60 380.01
  Q 573.14 380.43 569.65 381.02
  C 558.77 382.84 562.00 396.42 565.59 402.89
  Q 565.87 403.38 565.73 403.93
  L 565.24 405.92
  Q 565.11 406.45 565.33 406.95
  Q 567.10 411.00 569.41 414.77
  C 572.16 419.24 575.24 428.74 574.48 433.90
  Q 574.40 434.42 574.75 434.80
  Q 575.81 435.96 576.04 437.50
  Q 551.82 440.52 530.92 452.87
  C 509.53 465.50 495.90 480.19 482.00 500.79
  L 480.25 502.54
  Q 478.81 502.74 477.98 503.79
  Q 477.65 504.21 477.19 503.93
  Q 473.17 501.49 470.55 497.55
  Q 470.25 497.09 469.76 496.84
  Q 469.04 496.46 469.15 495.90
  Q 469.26 495.40 468.83 495.12
  Q 466.95 493.88 466.32 491.63
  Q 466.17 491.10 465.77 490.71
  C 464.65 489.64 455.02 481.10 456.03 480.30
  Q 456.42 480.00 455.93 480.00
  L 455.01 480.00
  Q 454.50 480.00 454.18 479.59
  Q 449.54 473.46 444.45 467.69
  C 440.78 463.55 438.47 459.02 435.61 454.41
  C 430.56 446.27 426.86 437.56 423.81 428.66
  C 422.99 426.28 420.90 423.28 420.76 420.84
  Q 420.72 420.30 420.24 420.06
  Q 417.85 418.86 415.25 419.52
  Q 414.79 419.64 414.54 419.23
  L 413.96 418.25
  L 415.59 415.91
  C 421.96 409.24 428.63 401.64 435.72 396.69
  C 448.85 387.52 465.06 380.37 479.97 376.91
  Q 531.27 365.04 581.50 380.54
  Z"
/>
<path fill="#02c5b5" d="
  M 581.50 380.54
  Q 655.01 403.40 691.05 471.22
  Q 691.51 472.07 692.35 474.98
  Q 692.51 475.53 693.07 475.63
  C 695.86 476.12 697.75 476.14 700.49 477.37
  Q 704.03 478.95 707.96 478.75
  L 708.90 493.95
  C 707.93 500.47 707.30 508.21 700.84 511.72
  A 0.60 0.59 -29.4 0 1 700.04 511.50
  C 693.13 499.52 688.14 487.60 680.15 475.32
  C 658.03 441.31 614.58 432.44 576.04 437.50
  Q 575.81 435.96 574.75 434.80
  Q 574.40 434.42 574.48 433.90
  C 575.24 428.74 572.16 419.24 569.41 414.77
  Q 567.10 411.00 565.33 406.95
  Q 565.11 406.45 565.24 405.92
  L 565.73 403.93
  Q 565.87 403.38 565.59 402.89
  C 562.00 396.42 558.77 382.84 569.65 381.02
  Q 573.14 380.43 576.60 380.01
  Q 577.07 379.95 577.49 380.17
  Q 579.40 381.20 581.50 380.54
  Z"
/>
<path fill="#01798d" d="
  M 328.79 409.50
  Q 328.96 410.23 329.40 410.84
  Q 329.60 411.10 329.46 411.40
  L 328.35 413.82
  Q 328.14 414.26 327.69 414.08
  Q 327.55 414.02 327.40 414.00
  Q 326.85 413.90 327.09 414.41
  L 327.72 415.72
  Q 327.85 416.00 328.16 416.00
  C 330.90 416.05 332.77 414.85 335.49 414.70
  C 338.69 414.52 341.97 416.22 345.78 415.99
  Q 346.30 415.96 346.56 416.41
  L 346.75 416.73
  Q 346.88 416.94 347.12 416.98
  C 351.66 417.83 355.77 418.43 358.51 421.15
  Q 358.87 421.50 359.30 421.25
  L 359.73 421.00
  Q 360.45 420.57 360.02 421.29
  Q 348.22 441.20 342.21 463.50
  C 335.64 488.57 331.51 514.27 332.55 540.25
  Q 331.79 540.56 331.93 539.64
  Q 331.97 539.41 331.80 539.57
  L 331.57 539.80
  Q 331.37 540.01 331.12 539.87
  C 329.73 539.13 328.52 538.80 327.38 537.61
  Q 324.79 534.90 321.11 533.89
  Q 320.63 533.75 320.27 533.40
  Q 314.26 527.52 311.52 525.22
  Q 307.77 522.09 302.17 520.56
  C 300.46 480.75 310.98 444.29 328.79 409.50
  Z"
/>
<path fill="#fdfefe" d="
  M 415.59 415.91
  L 413.96 418.25
  C 403.16 432.10 396.34 452.70 393.71 469.50
  C 383.86 526.40 392.56 587.39 424.46 635.25
  Q 433.19 649.44 446.11 662.64
  C 462.97 679.87 478.51 694.30 498.26 706.23
  C 514.97 716.33 530.82 725.80 549.00 733.21
  L 564.29 739.73
  Q 564.68 739.90 564.26 740.00
  Q 564.04 740.04 563.80 739.96
  C 512.01 722.03 461.49 694.72 427.79 650.50
  C 408.02 623.97 393.37 593.14 387.54 560.50
  C 383.77 536.98 382.06 515.53 384.78 492.13
  C 387.11 476.13 388.98 462.89 395.19 446.06
  L 400.90 431.47
  L 408.00 418.21
  L 410.49 417.77
  Q 410.93 417.69 410.72 418.09
  L 410.54 418.43
  Q 410.53 418.46 410.56 418.46
  L 411.27 418.51
  Q 411.80 418.55 411.98 418.05
  Q 412.94 415.39 415.59 415.91
  Z"
/>
<path fill="#01798d" d="
  M 413.96 418.25
  L 414.54 419.23
  Q 414.79 419.64 415.25 419.52
  Q 417.85 418.86 420.24 420.06
  Q 420.72 420.30 420.76 420.84
  C 420.90 423.28 422.99 426.28 423.81 428.66
  C 426.86 437.56 430.56 446.27 435.61 454.41
  C 438.47 459.02 440.78 463.55 444.45 467.69
  Q 449.54 473.46 454.18 479.59
  Q 454.50 480.00 455.01 480.00
  L 455.93 480.00
  Q 456.42 480.00 456.03 480.30
  C 455.02 481.10 464.65 489.64 465.77 490.71
  Q 466.17 491.10 466.32 491.63
  Q 466.95 493.88 468.83 495.12
  Q 469.26 495.40 469.15 495.90
  Q 469.04 496.46 469.76 496.84
  Q 470.25 497.09 470.55 497.55
  Q 473.17 501.49 477.19 503.93
  Q 477.65 504.21 477.98 503.79
  Q 478.81 502.74 480.25 502.54
  Q 468.76 522.23 464.00 544.54
  Q 463.93 546.63 462.34 546.78
  Q 461.87 546.82 461.78 547.28
  Q 461.59 548.21 462.65 548.77
  Q 463.24 549.08 462.58 549.11
  L 461.94 549.14
  Q 461.54 549.16 461.24 548.89
  Q 459.32 547.24 454.72 543.28
  C 451.74 540.71 450.28 537.07 447.64 534.53
  Q 443.76 530.81 439.83 527.14
  Q 439.48 526.80 439.34 526.34
  Q 438.55 523.61 435.39 520.61
  Q 432.43 517.80 423.69 507.55
  Q 422.01 505.57 421.48 503.00
  Q 421.38 502.51 421.59 502.06
  C 423.46 497.98 418.71 498.66 418.73 495.54
  Q 418.74 495.04 418.42 494.65
  C 415.83 491.47 411.15 482.11 407.38 481.79
  Q 406.91 481.75 406.74 481.30
  Q 406.32 480.17 405.27 479.99
  Q 404.86 479.92 404.58 479.61
  L 396.81 470.80
  Q 396.50 470.44 396.05 470.29
  L 393.71 469.50
  C 396.34 452.70 403.16 432.10 413.96 418.25
  Z"
/>
<path fill="#01798d" d="
  M 307.25 427.29
  L 300.36 442.20
  Q 293.98 454.69 291.15 466.93
  Q 288.75 477.29 287.57 490.48
  Q 283.00 528.21 291.21 565.25
  Q 290.00 570.45 291.65 575.51
  Q 291.80 575.98 291.71 576.47
  Q 291.58 577.09 292.07 577.23
  Q 292.55 577.37 292.33 577.82
  L 291.91 578.67
  Q 291.71 579.09 291.28 578.90
  L 288.35 577.59
  Q 288.00 577.44 288.00 577.05
  L 288.00 576.51
  Q 288.00 576.01 287.50 576.01
  C 285.18 575.98 283.22 576.29 280.99 575.36
  C 276.61 573.54 272.73 573.42 268.98 571.86
  Q 268.45 571.64 268.56 571.08
  L 268.92 569.12
  Q 269.01 568.64 268.54 568.52
  Q 263.03 567.12 258.11 564.26
  Q 257.64 563.99 257.10 564.01
  Q 254.58 564.11 252.36 562.89
  Q 251.91 562.64 251.39 562.65
  Q 243.74 562.90 236.52 559.98
  Q 236.54 538.39 240.91 517.12
  Q 241.02 516.56 240.52 516.29
  Q 238.81 515.36 237.20 516.38
  Q 236.88 516.58 236.54 516.43
  Q 235.96 516.15 235.29 516.25
  L 241.75 502.04
  Q 263.17 458.91 291.52 419.99
  Q 291.81 419.59 292.26 419.81
  L 304.11 425.66
  Q 304.47 425.84 304.12 426.05
  L 303.76 426.26
  Q 303.11 426.64 303.85 426.52
  Q 305.74 426.20 307.25 427.29
  Z"
/>
<path fill="#01798d" d="
  M 400.90 431.47
  L 395.19 446.06
  Q 395.92 437.89 400.90 431.47
  Z"
/>
<path fill="#68d8c2" d="
  M 743.21 435.25
  Q 746.46 465.32 735.99 490.70
  Q 729.40 506.69 713.55 499.89
  Q 711.71 499.10 710.69 497.43
  Q 709.67 495.77 708.90 493.95
  L 707.96 478.75
  Q 706.79 468.76 703.54 459.25
  Q 703.95 458.89 704.04 458.33
  Q 704.12 457.82 704.61 457.68
  Q 709.25 456.32 712.27 452.53
  C 714.08 450.24 718.82 448.71 721.60 448.05
  Q 725.56 447.12 728.90 444.82
  C 731.69 442.90 734.94 441.90 737.36 439.01
  Q 737.68 438.63 738.16 438.50
  Q 741.20 437.64 743.21 435.25
  Z"
/>
<path fill="#01577a" d="
  M 300.36 442.20
  C 293.32 458.44 290.91 471.47 287.57 490.48
  Q 288.75 477.29 291.15 466.93
  Q 293.98 454.69 300.36 442.20
  Z"
/>
<path fill="#019193" d="
  M 216.79 455.75
  C 222.30 456.73 232.53 465.94 234.68 468.32
  Q 238.03 472.03 239.46 479.61
  Q 239.51 479.88 239.25 479.99
  C 238.90 480.12 238.94 480.38 239.08 480.68
  Q 241.60 486.18 239.81 492.06
  Q 239.32 493.68 240.09 496.53
  Q 240.22 497.01 240.11 497.50
  C 239.92 498.37 240.03 502.95 241.75 502.04
  L 235.29 516.25
  L 213.96 570.00
  Q 212.10 566.64 211.99 562.89
  C 211.87 558.49 209.69 554.12 208.72 549.78
  C 207.80 545.62 206.20 543.19 203.52 540.25
  Q 202.13 538.74 201.22 536.71
  C 198.62 530.94 194.67 529.36 190.34 525.39
  Q 188.48 523.68 186.25 522.46
  Q 198.33 487.63 216.79 455.75
  Z"
/>
<path fill="#019193" d="
  M 342.21 463.50
  L 351.56 470.15
  Q 352.00 470.47 352.00 471.01
  L 352.00 472.26
  Q 352.00 472.82 352.49 473.11
  C 360.76 477.83 368.85 480.69 376.56 487.60
  Q 378.52 489.36 380.42 490.26
  Q 382.53 491.27 384.78 492.13
  C 382.06 515.53 383.77 536.98 387.54 560.50
  C 386.83 565.69 388.75 569.05 389.47 573.91
  C 389.89 576.76 391.65 579.25 390.61 582.22
  Q 390.46 582.66 389.99 582.66
  C 385.73 582.65 383.80 580.30 380.93 578.59
  Q 374.64 574.82 369.93 569.21
  C 365.55 563.99 358.88 560.37 353.79 556.21
  C 352.09 554.82 348.74 552.81 346.65 550.35
  Q 345.39 548.87 339.90 545.77
  Q 339.50 545.54 339.14 545.84
  C 337.04 547.57 336.27 544.31 334.08 544.81
  Q 333.70 544.90 333.59 544.53
  Q 333.42 543.98 332.79 544.00
  L 332.55 540.25
  C 331.51 514.27 335.64 488.57 342.21 463.50
  Z"
/>
<path fill="#016179" d="
  M 393.71 469.50
  L 396.05 470.29
  Q 396.50 470.44 396.81 470.80
  L 404.58 479.61
  Q 404.86 479.92 405.27 479.99
  Q 406.32 480.17 406.74 481.30
  Q 406.91 481.75 407.38 481.79
  C 411.15 482.11 415.83 491.47 418.42 494.65
  Q 418.74 495.04 418.73 495.54
  C 418.71 498.66 423.46 497.98 421.59 502.06
  Q 421.38 502.51 421.48 503.00
  Q 422.01 505.57 423.69 507.55
  Q 432.43 517.80 435.39 520.61
  Q 438.55 523.61 439.34 526.34
  Q 439.48 526.80 439.83 527.14
  Q 443.76 530.81 447.64 534.53
  C 450.28 537.07 451.74 540.71 454.72 543.28
  Q 459.32 547.24 461.24 548.89
  Q 461.54 549.16 461.94 549.14
  L 462.58 549.11
  Q 463.24 549.08 462.65 548.77
  Q 461.59 548.21 461.78 547.28
  Q 461.87 546.82 462.34 546.78
  Q 463.93 546.63 464.00 544.54
  Q 459.62 565.36 463.19 586.28
  Q 465.06 591.79 465.65 597.45
  Q 466.47 610.73 473.27 622.08
  L 479.46 634.25
  C 477.18 634.72 482.27 641.68 482.86 642.94
  Q 483.17 643.60 482.45 643.62
  Q 480.77 643.67 479.76 645.10
  Q 479.40 645.61 478.80 645.47
  Q 470.16 643.44 461.33 644.36
  Q 460.90 644.41 460.58 644.12
  L 458.28 642.06
  Q 457.86 641.69 457.30 641.72
  Q 453.12 641.99 451.65 638.36
  Q 451.47 637.92 451.04 637.71
  L 442.21 633.52
  Q 441.75 633.30 441.75 633.81
  L 441.75 634.24
  Q 441.75 634.87 441.22 634.53
  Q 434.82 630.36 427.23 631.32
  C 425.68 631.51 424.96 632.56 425.66 634.03
  Q 425.96 634.65 425.27 634.63
  Q 424.56 634.61 424.46 635.25
  C 392.56 587.39 383.86 526.40 393.71 469.50
  Z"
/>
<path fill="#01426b" d="
  M 482.00 500.79
  Q 465.14 528.72 462.31 561.31
  Q 461.58 569.80 463.19 586.28
  Q 459.62 565.36 464.00 544.54
  Q 468.76 522.23 480.25 502.54
  L 482.00 500.79
  Z"
/>
<path fill="#8ee1d0" d="
  M 747.75 558.71
  L 746.89 558.86
  Q 746.37 558.95 746.89 559.11
  Q 747.16 559.19 747.23 559.40
  Q 747.28 559.53 747.18 559.64
  Q 741.77 565.85 739.43 567.17
  C 732.01 571.37 723.65 574.81 718.24 581.88
  Q 717.94 582.27 718.31 582.60
  Q 718.74 582.98 718.71 583.50
  C 701.76 565.58 678.39 551.58 653.74 547.82
  Q 642.60 545.39 631.25 546.06
  C 623.78 546.50 615.67 546.80 608.89 548.10
  Q 590.50 551.62 574.98 562.68
  Q 570.16 559.57 566.77 555.13
  C 564.06 551.59 560.70 549.65 557.73 546.37
  Q 557.39 546.00 557.64 545.57
  Q 557.94 545.05 557.50 544.46
  C 582.89 522.97 617.95 506.94 651.26 506.56
  Q 665.84 506.39 682.59 511.13
  C 709.12 518.62 731.41 536.95 747.75 558.71
  Z"
/>
<path fill="#01426b" d="
  M 236.52 559.98
  Q 235.23 580.27 239.73 600.00
  Q 244.86 622.51 249.96 636.27
  Q 259.97 663.28 279.01 690.06
  C 279.66 690.98 280.64 691.35 281.60 691.87
  Q 282.10 692.13 282.05 691.57
  L 281.99 690.84
  Q 281.95 690.32 282.40 690.03
  L 287.02 687.10
  A 2.19 2.19 0.0 0 1 290.07 687.81
  L 291.57 690.27
  Q 291.85 690.72 292.32 690.46
  Q 295.50 688.66 299.14 688.74
  A 0.82 0.81 -9.0 0 0 299.93 687.66
  L 298.85 684.46
  Q 298.63 683.80 299.32 683.73
  Q 302.23 683.44 302.96 682.96
  Q 308.71 679.21 312.26 677.50
  C 314.81 676.28 316.97 674.54 319.50 673.28
  Q 320.00 673.03 320.00 672.48
  L 320.00 670.44
  Q 320.00 669.79 320.63 669.67
  Q 327.90 668.22 332.05 662.14
  Q 332.36 661.69 332.20 661.17
  Q 331.78 659.77 332.17 658.38
  Q 332.31 657.89 332.01 657.49
  C 330.82 655.91 325.62 650.85 326.46 648.25
  Q 339.65 665.29 345.30 671.71
  Q 366.62 695.94 396.72 714.51
  C 426.33 732.78 455.07 747.26 488.24 756.86
  C 506.35 762.10 524.02 767.94 542.64 771.36
  A 0.50 0.50 0.0 0 1 542.59 772.35
  C 537.94 772.77 533.43 772.93 528.46 772.64
  Q 481.64 769.90 434.76 771.10
  Q 426.79 770.29 418.78 770.87
  Q 418.27 770.91 417.85 770.60
  C 414.73 768.35 411.58 767.77 408.23 766.64
  C 395.82 762.45 381.76 758.78 370.84 754.56
  C 346.11 744.99 320.53 732.02 301.25 713.94
  Q 301.14 713.83 301.09 713.98
  Q 301.05 714.10 301.01 714.23
  Q 300.92 714.55 300.69 714.31
  L 300.41 714.03
  Q 300.09 713.71 299.63 713.73
  L 288.50 714.24
  Q 288.00 714.26 288.00 714.76
  L 288.00 715.75
  Q 288.00 716.38 287.55 715.95
  L 285.30 713.76
  Q 284.97 713.44 284.52 713.34
  L 280.42 712.46
  Q 279.88 712.34 279.79 712.89
  L 279.60 714.12
  Q 279.56 714.40 279.28 714.34
  Q 276.85 713.90 274.39 714.14
  C 272.28 714.36 270.87 713.73 268.98 713.13
  C 265.21 711.93 261.69 713.37 257.71 712.63
  C 252.97 711.76 247.95 713.47 244.48 714.02
  Q 236.47 715.27 229.23 718.95
  C 226.45 720.37 218.31 723.14 215.49 722.07
  C 212.26 720.84 208.94 721.04 205.65 720.32
  C 201.95 719.50 198.60 720.49 195.16 719.71
  Q 191.29 718.84 187.42 717.96
  C 184.80 717.36 182.33 717.88 179.60 717.72
  Q 178.99 717.69 179.54 717.42
  L 184.21 715.19
  A 1.63 1.62 -38.0 0 1 185.95 715.40
  Q 187.45 716.63 189.28 716.12
  Q 189.99 715.92 189.33 715.61
  Q 187.10 714.54 185.56 714.81
  Q 179.57 715.84 174.41 713.28
  Q 172.16 712.16 170.37 711.98
  Q 161.00 711.07 151.60 710.90
  C 148.28 710.84 144.56 710.05 140.97 710.01
  Q 140.43 710.01 139.98 709.71
  Q 138.96 709.03 137.73 709.71
  Q 137.29 709.96 136.79 709.89
  Q 132.48 709.26 130.75 705.21
  C 146.40 691.87 153.41 677.46 157.80 657.76
  Q 160.92 643.75 163.78 629.79
  Q 166.76 629.24 169.64 628.41
  Q 172.46 627.60 175.02 625.84
  C 194.57 612.37 206.27 592.18 213.96 570.00
  L 235.29 516.25
  Q 235.96 516.15 236.54 516.43
  Q 236.88 516.58 237.20 516.38
  Q 238.81 515.36 240.52 516.29
  Q 241.02 516.56 240.91 517.12
  Q 236.54 538.39 236.52 559.98
  Z"
/>
<path fill="#01577a" d="
  M 302.17 520.56
  Q 307.77 522.09 311.52 525.22
  Q 314.26 527.52 320.27 533.40
  Q 320.63 533.75 321.11 533.89
  Q 324.79 534.90 327.38 537.61
  C 328.52 538.80 329.73 539.13 331.12 539.87
  Q 331.37 540.01 331.57 539.80
  L 331.80 539.57
  Q 331.97 539.41 331.93 539.64
  Q 331.79 540.56 332.55 540.25
  L 332.79 544.00
  C 334.48 569.39 340.20 595.66 351.96 618.50
  C 365.56 645.71 383.69 666.57 406.07 686.84
  C 423.97 703.06 446.51 716.52 467.91 727.62
  C 486.50 737.27 508.27 743.83 527.86 749.52
  Q 528.30 749.65 528.25 750.11
  L 528.21 750.50
  Q 499.98 742.88 478.94 735.05
  Q 433.83 718.27 394.68 690.26
  Q 376.95 677.58 362.61 661.15
  C 353.80 651.06 344.71 640.60 337.79 629.60
  C 317.84 597.91 303.23 558.37 302.17 520.56
  Z"
/>
<path fill="#01798d" d="
  M 186.25 522.46
  Q 188.48 523.68 190.34 525.39
  C 194.67 529.36 198.62 530.94 201.22 536.71
  Q 202.13 538.74 203.52 540.25
  C 206.20 543.19 207.80 545.62 208.72 549.78
  C 209.69 554.12 211.87 558.49 211.99 562.89
  Q 212.10 566.64 213.96 570.00
  C 206.27 592.18 194.57 612.37 175.02 625.84
  Q 172.46 627.60 169.64 628.41
  Q 166.76 629.24 163.78 629.79
  C 168.28 591.58 173.10 557.63 186.25 522.46
  Z"
/>
<path fill="#01798d" d="
  M 332.79 544.00
  Q 333.42 543.98 333.59 544.53
  Q 333.70 544.90 334.08 544.81
  C 336.27 544.31 337.04 547.57 339.14 545.84
  Q 339.50 545.54 339.90 545.77
  Q 345.39 548.87 346.65 550.35
  C 348.74 552.81 352.09 554.82 353.79 556.21
  C 358.88 560.37 365.55 563.99 369.93 569.21
  Q 374.64 574.82 380.93 578.59
  C 383.80 580.30 385.73 582.65 389.99 582.66
  Q 390.46 582.66 390.61 582.22
  C 391.65 579.25 389.89 576.76 389.47 573.91
  C 388.75 569.05 386.83 565.69 387.54 560.50
  C 393.37 593.14 408.02 623.97 427.79 650.50
  Q 427.67 652.43 429.25 653.78
  Q 429.67 654.14 429.20 654.43
  Q 425.58 656.67 423.64 660.47
  Q 423.43 660.90 422.96 660.80
  Q 411.35 658.39 400.86 652.90
  Q 400.33 652.62 400.59 652.07
  L 400.81 651.60
  Q 401.02 651.16 400.60 650.93
  L 398.05 649.46
  Q 397.48 649.14 397.94 648.68
  L 398.23 648.39
  Q 398.73 647.89 398.13 647.53
  L 395.24 645.81
  Q 394.78 645.53 394.33 645.83
  Q 393.69 646.24 392.70 645.89
  Q 392.23 645.73 391.81 645.45
  L 384.36 640.47
  Q 384.00 640.23 384.00 639.80
  L 384.00 638.51
  Q 384.00 637.97 383.61 637.61
  C 378.65 633.00 371.80 629.28 366.22 625.25
  Q 366.14 625.19 366.06 625.23
  Q 365.91 625.28 365.78 625.32
  Q 365.56 625.39 365.40 625.23
  C 363.53 623.27 360.57 622.96 359.13 621.52
  Q 358.66 621.05 358.86 621.69
  L 359.03 622.22
  Q 359.16 622.63 358.78 622.42
  L 351.96 618.50
  C 340.20 595.66 334.48 569.39 332.79 544.00
  Z"
/>
<path fill="#68d8c2" d="
  M 557.50 544.46
  Q 557.94 545.05 557.64 545.57
  Q 557.39 546.00 557.73 546.37
  C 560.70 549.65 564.06 551.59 566.77 555.13
  Q 570.16 559.57 574.98 562.68
  Q 559.26 572.25 548.37 587.06
  L 544.87 580.68
  Q 544.59 580.17 544.16 580.56
  L 542.00 582.54
  C 537.76 582.08 535.86 573.22 532.54 569.75
  Q 543.73 555.83 557.50 544.46
  Z"
/>
<path fill="#02c5b5" d="
  M 653.74 547.82
  Q 629.99 546.15 608.50 556.21
  Q 607.26 556.73 606.15 557.43
  C 586.71 569.73 570.64 583.50 562.61 605.72
  C 559.22 615.12 560.54 626.13 561.71 635.25
  L 561.19 636.59
  Q 561.01 637.04 560.53 637.02
  Q 555.78 636.82 552.73 633.35
  Q 552.33 632.90 551.74 632.73
  Q 548.53 631.80 546.90 628.85
  Q 546.64 628.38 546.16 628.16
  L 544.55 627.41
  Q 544.05 627.18 543.82 626.68
  Q 541.08 620.65 535.29 617.50
  C 538.01 607.08 544.88 597.15 548.44 589.69
  Q 548.94 588.65 548.37 587.06
  Q 559.26 572.25 574.98 562.68
  Q 590.50 551.62 608.89 548.10
  C 615.67 546.80 623.78 546.50 631.25 546.06
  Q 642.60 545.39 653.74 547.82
  Z"
/>
<path fill="#6cd0b1" d="
  M 653.74 547.82
  C 678.39 551.58 701.76 565.58 718.71 583.50
  Q 738.26 604.14 748.96 630.50
  L 744.58 630.38
  Q 744.07 630.36 743.71 629.99
  Q 741.08 627.16 740.33 623.28
  Q 740.25 622.88 739.90 622.69
  L 737.72 621.50
  Q 737.28 621.26 736.98 620.86
  C 718.89 596.63 692.06 576.71 661.95 570.56
  C 641.10 566.30 613.97 569.94 595.28 581.16
  Q 586.46 585.40 578.75 591.21
  Q 572.61 595.61 567.29 601.00
  C 572.22 584.68 584.20 574.19 597.64 564.80
  Q 603.33 560.83 608.50 556.21
  Q 629.99 546.15 653.74 547.82
  Z"
/>
<path fill="#fdfefe" d="
  M 608.50 556.21
  Q 603.33 560.83 597.64 564.80
  C 584.20 574.19 572.22 584.68 567.29 601.00
  Q 563.68 606.70 563.51 613.51
  C 562.84 640.64 569.83 666.52 590.60 685.15
  Q 608.53 701.23 633.25 711.45
  Q 633.87 711.70 633.20 711.74
  Q 632.08 711.80 631.28 711.50
  C 612.66 704.44 591.11 691.97 577.39 676.73
  C 567.49 665.44 563.10 649.81 561.71 635.25
  C 560.54 626.13 559.22 615.12 562.61 605.72
  C 570.64 583.50 586.71 569.73 606.15 557.43
  Q 607.26 556.73 608.50 556.21
  Z"
/>
<path fill="#68d8c2" d="
  M 747.75 558.71
  Q 765.53 582.90 769.50 612.74
  C 770.54 620.60 771.38 644.48 761.59 647.28
  Q 757.16 648.55 752.45 646.37
  Q 751.60 638.39 748.96 630.50
  Q 738.26 604.14 718.71 583.50
  Q 718.74 582.98 718.31 582.60
  Q 717.94 582.27 718.24 581.88
  C 723.65 574.81 732.01 571.37 739.43 567.17
  Q 741.77 565.85 747.18 559.64
  Q 747.28 559.53 747.23 559.40
  Q 747.16 559.19 746.89 559.11
  Q 746.37 558.95 746.89 558.86
  L 747.75 558.71
  Z"
/>
<path fill="#01577a" d="
  M 236.52 559.98
  Q 243.74 562.90 251.39 562.65
  Q 251.91 562.64 252.36 562.89
  Q 254.58 564.11 257.10 564.01
  Q 257.64 563.99 258.11 564.26
  Q 263.03 567.12 268.54 568.52
  Q 269.01 568.64 268.92 569.12
  L 268.56 571.08
  Q 268.45 571.64 268.98 571.86
  C 272.73 573.42 276.61 573.54 280.99 575.36
  C 283.22 576.29 285.18 575.98 287.50 576.01
  Q 288.00 576.01 288.00 576.51
  L 288.00 577.05
  Q 288.00 577.44 288.35 577.59
  L 291.28 578.90
  Q 291.71 579.09 291.91 578.67
  L 292.33 577.82
  Q 292.55 577.37 292.07 577.23
  Q 291.58 577.09 291.71 576.47
  Q 291.80 575.98 291.65 575.51
  Q 290.00 570.45 291.21 565.25
  L 295.21 582.25
  Q 294.90 584.37 296.23 588.31
  Q 298.66 595.48 300.74 598.72
  Q 310.55 625.07 326.46 648.25
  C 325.62 650.85 330.82 655.91 332.01 657.49
  Q 332.31 657.89 332.17 658.38
  Q 331.78 659.77 332.20 661.17
  Q 332.36 661.69 332.05 662.14
  Q 327.90 668.22 320.63 669.67
  Q 320.00 669.79 320.00 670.44
  L 320.00 672.48
  Q 320.00 673.03 319.50 673.28
  C 316.97 674.54 314.81 676.28 312.26 677.50
  Q 308.71 679.21 302.96 682.96
  Q 302.23 683.44 299.32 683.73
  Q 298.63 683.80 298.85 684.46
  L 299.93 687.66
  A 0.82 0.81 -9.0 0 1 299.14 688.74
  Q 295.50 688.66 292.32 690.46
  Q 291.85 690.72 291.57 690.27
  L 290.07 687.81
  A 2.19 2.19 0.0 0 0 287.02 687.10
  L 282.40 690.03
  Q 281.95 690.32 281.99 690.84
  L 282.05 691.57
  Q 282.10 692.13 281.60 691.87
  C 280.64 691.35 279.66 690.98 279.01 690.06
  Q 259.97 663.28 249.96 636.27
  Q 244.86 622.51 239.73 600.00
  Q 235.23 580.27 236.52 559.98
  Z"
/>
<path fill="#02c5b5" d="
  M 748.96 630.50
  Q 751.60 638.39 752.45 646.37
  C 752.26 649.75 752.11 653.15 748.56 654.73
  A 1.91 1.90 63.4 0 1 746.11 653.91
  C 740.81 644.33 735.24 633.23 728.04 625.51
  C 717.14 613.81 703.16 606.40 687.08 605.27
  C 667.96 603.93 637.04 607.06 632.75 631.29
  Q 630.89 633.56 630.68 637.93
  Q 630.55 640.61 627.66 639.89
  Q 627.23 639.78 626.98 639.42
  Q 622.79 633.43 621.39 626.30
  C 620.69 622.75 618.59 620.07 617.57 616.60
  Q 616.78 613.90 615.57 612.26
  C 610.98 606.07 605.38 600.47 600.73 594.42
  Q 600.44 594.05 600.91 594.01
  Q 601.06 594.00 601.21 594.01
  Q 601.72 594.07 601.45 593.63
  L 599.12 590.03
  Q 598.83 589.57 598.96 589.05
  Q 600.38 583.43 595.28 581.16
  C 613.97 569.94 641.10 566.30 661.95 570.56
  C 692.06 576.71 718.89 596.63 736.98 620.86
  Q 737.28 621.26 737.72 621.50
  L 739.90 622.69
  Q 740.25 622.88 740.33 623.28
  Q 741.08 627.16 743.71 629.99
  Q 744.07 630.36 744.58 630.38
  L 748.96 630.50
  Z"
/>
<path fill="#02c5b5" d="
  M 532.54 569.75
  C 535.86 573.22 537.76 582.08 542.00 582.54
  C 531.64 594.73 522.56 606.98 516.41 621.90
  C 513.18 629.74 508.49 636.97 506.10 645.05
  Q 505.97 645.51 506.02 646.00
  Q 506.27 648.05 504.46 649.25
  L 495.31 638.44
  Q 494.98 638.05 495.19 637.59
  Q 500.87 624.83 508.78 606.05
  C 514.16 593.26 523.85 580.52 532.54 569.75
  Z"
/>
<path fill="#01798d" d="
  M 548.37 587.06
  Q 548.94 588.65 548.44 589.69
  C 544.88 597.15 538.01 607.08 535.29 617.50
  Q 533.00 625.09 532.08 632.92
  C 530.29 648.08 535.29 664.76 541.97 678.28
  L 550.42 692.92
  Q 524.35 674.22 504.46 649.25
  Q 506.27 648.05 506.02 646.00
  Q 505.97 645.51 506.10 645.05
  C 508.49 636.97 513.18 629.74 516.41 621.90
  C 522.56 606.98 531.64 594.73 542.00 582.54
  L 544.16 580.56
  Q 544.59 580.17 544.87 580.68
  L 548.37 587.06
  Z"
/>
<path fill="#01aba3" d="
  M 595.28 581.16
  Q 600.38 583.43 598.96 589.05
  Q 598.83 589.57 599.12 590.03
  L 601.45 593.63
  Q 601.72 594.07 601.21 594.01
  Q 601.06 594.00 600.91 594.01
  Q 600.44 594.05 600.73 594.42
  C 605.38 600.47 610.98 606.07 615.57 612.26
  Q 616.78 613.90 617.57 616.60
  C 618.59 620.07 620.69 622.75 621.39 626.30
  Q 622.79 633.43 626.98 639.42
  Q 627.23 639.78 627.66 639.89
  Q 630.55 640.61 630.68 637.93
  Q 630.89 633.56 632.75 631.29
  C 629.98 649.86 642.04 663.51 656.01 673.43
  Q 680.32 690.70 707.95 698.05
  C 733.93 704.97 760.78 709.25 787.76 708.49
  Q 802.88 708.07 818.00 707.29
  Q 818.07 707.43 818.24 707.51
  Q 818.88 707.77 818.25 707.75
  Q 818.12 707.75 817.99 707.75
  Q 817.70 707.75 817.79 708.02
  C 820.02 715.08 768.70 721.85 763.25 722.29
  Q 749.63 723.12 736.01 723.53
  C 688.42 724.96 635.87 703.49 604.16 667.52
  C 588.22 649.45 579.54 628.01 579.14 603.23
  Q 579.04 596.99 579.69 593.36
  C 579.86 592.42 579.57 591.63 578.75 591.21
  Q 586.46 585.40 595.28 581.16
  Z"
/>
<path fill="#01426b" d="
  M 295.21 582.25
  L 300.74 598.72
  Q 298.66 595.48 296.23 588.31
  Q 294.90 584.37 295.21 582.25
  Z"
/>
<path fill="#01718f" d="
  M 578.75 591.21
  C 579.57 591.63 579.86 592.42 579.69 593.36
  Q 579.04 596.99 579.14 603.23
  C 579.54 628.01 588.22 649.45 604.16 667.52
  C 635.87 703.49 688.42 724.96 736.01 723.53
  Q 749.63 723.12 763.25 722.29
  L 762.85 723.34
  Q 762.66 723.86 763.06 724.25
  Q 768.08 729.05 770.11 735.76
  Q 770.18 736.00 770.13 736.02
  C 769.73 736.16 771.15 737.27 771.87 737.15
  C 773.12 736.94 774.23 736.96 775.51 736.75
  Q 775.91 736.69 775.93 737.09
  Q 775.95 737.34 775.75 737.46
  Q 761.26 739.80 746.56 739.93
  C 708.19 740.28 670.21 740.37 633.49 730.22
  Q 627.91 727.05 621.53 727.03
  Q 591.26 718.82 563.81 702.44
  Q 556.29 697.95 550.42 692.92
  L 541.97 678.28
  Q 550.94 680.36 560.01 679.88
  Q 560.18 679.87 560.26 680.03
  L 560.41 680.34
  Q 560.84 681.23 561.16 680.29
  L 561.30 679.83
  Q 561.46 679.36 561.96 679.32
  Q 565.26 679.04 568.52 679.57
  Q 568.63 679.59 568.67 679.48
  Q 568.72 679.34 568.76 679.17
  Q 568.87 678.56 569.48 678.69
  Q 573.94 679.65 577.39 676.73
  C 591.11 691.97 612.66 704.44 631.28 711.50
  Q 632.08 711.80 633.20 711.74
  Q 633.87 711.70 633.25 711.45
  Q 608.53 701.23 590.60 685.15
  C 569.83 666.52 562.84 640.64 563.51 613.51
  Q 563.68 606.70 567.29 601.00
  Q 572.61 595.61 578.75 591.21
  Z"
/>
<path fill="#01426b" d="
  M 465.65 597.45
  Q 468.77 609.98 473.27 622.08
  Q 466.47 610.73 465.65 597.45
  Z"
/>
<path fill="#019193" d="
  M 535.29 617.50
  Q 541.08 620.65 543.82 626.68
  Q 544.05 627.18 544.55 627.41
  L 546.16 628.16
  Q 546.64 628.38 546.90 628.85
  Q 548.53 631.80 551.74 632.73
  Q 552.33 632.90 552.73 633.35
  Q 555.78 636.82 560.53 637.02
  Q 561.01 637.04 561.19 636.59
  L 561.71 635.25
  C 563.10 649.81 567.49 665.44 577.39 676.73
  Q 573.94 679.65 569.48 678.69
  Q 568.87 678.56 568.76 679.17
  Q 568.72 679.34 568.67 679.48
  Q 568.63 679.59 568.52 679.57
  Q 565.26 679.04 561.96 679.32
  Q 561.46 679.36 561.30 679.83
  L 561.16 680.29
  Q 560.84 681.23 560.41 680.34
  L 560.26 680.03
  Q 560.18 679.87 560.01 679.88
  Q 550.94 680.36 541.97 678.28
  C 535.29 664.76 530.29 648.08 532.08 632.92
  Q 533.00 625.09 535.29 617.50
  Z"
/>
<path fill="#016179" d="
  M 427.79 650.50
  C 461.49 694.72 512.01 722.03 563.80 739.96
  Q 564.04 740.04 564.26 740.00
  Q 564.68 739.90 564.29 739.73
  L 549.00 733.21
  Q 548.93 732.88 549.03 732.63
  Q 549.26 732.11 549.77 732.37
  Q 553.41 734.25 557.47 734.73
  Q 558.63 734.87 557.54 734.44
  L 555.94 733.80
  Q 554.40 733.20 555.74 733.50
  Q 556.33 733.64 556.66 733.60
  Q 559.15 733.27 556.55 732.89
  Q 555.63 732.76 555.54 731.79
  Q 555.49 731.31 555.14 730.99
  C 550.48 726.78 546.79 722.61 547.09 715.94
  Q 547.11 715.44 547.32 714.99
  Q 548.06 713.38 546.66 712.49
  Q 546.13 712.16 546.24 711.54
  L 546.41 710.56
  Q 546.44 710.36 546.27 710.24
  Q 534.58 701.92 523.25 693.13
  C 509.86 682.74 502.40 670.26 491.37 656.19
  Q 488.20 652.15 486.71 647.25
  Q 512.25 688.15 554.82 713.41
  C 573.38 724.43 591.27 733.29 611.32 739.52
  C 637.03 747.51 661.27 752.70 688.18 752.80
  C 719.03 752.91 747.22 748.76 777.56 739.58
  Q 783.62 737.74 789.80 736.18
  C 791.65 735.79 793.44 734.79 795.10 734.39
  C 822.99 727.61 846.87 717.35 876.57 704.32
  Q 888.25 699.19 900.96 697.65
  Q 901.40 697.60 901.56 697.19
  L 905.33 687.82
  A 1.04 1.04 0.0 0 0 904.12 686.42
  C 902.67 686.76 896.78 689.06 896.25 687.29
  L 906.97 683.26
  Q 907.72 682.97 907.54 683.76
  C 905.09 694.15 900.00 704.99 896.21 712.50
  Q 894.15 710.61 890.78 711.08
  Q 881.99 712.32 874.87 715.48
  Q 870.19 717.56 866.49 718.99
  C 859.19 721.82 853.34 726.48 846.71 730.49
  C 841.55 733.62 836.08 738.15 830.14 741.17
  C 829.29 741.60 829.15 741.98 829.25 742.90
  Q 829.30 743.41 828.87 743.68
  Q 826.46 745.14 825.45 746.93
  Q 823.83 749.79 826.30 752.78
  C 799.80 760.54 771.33 767.29 743.78 769.31
  Q 683.74 773.72 623.92 767.01
  C 591.81 763.41 559.65 757.42 528.21 750.50
  L 528.25 750.11
  Q 528.30 749.65 527.86 749.52
  C 508.27 743.83 486.50 737.27 467.91 727.62
  C 446.51 716.52 423.97 703.06 406.07 686.84
  C 383.69 666.57 365.56 645.71 351.96 618.50
  L 358.78 622.42
  Q 359.16 622.63 359.03 622.22
  L 358.86 621.69
  Q 358.66 621.05 359.13 621.52
  C 360.57 622.96 363.53 623.27 365.40 625.23
  Q 365.56 625.39 365.78 625.32
  Q 365.91 625.28 366.06 625.23
  Q 366.14 625.19 366.22 625.25
  C 371.80 629.28 378.65 633.00 383.61 637.61
  Q 384.00 637.97 384.00 638.51
  L 384.00 639.80
  Q 384.00 640.23 384.36 640.47
  L 391.81 645.45
  Q 392.23 645.73 392.70 645.89
  Q 393.69 646.24 394.33 645.83
  Q 394.78 645.53 395.24 645.81
  L 398.13 647.53
  Q 398.73 647.89 398.23 648.39
  L 397.94 648.68
  Q 397.48 649.14 398.05 649.46
  L 400.60 650.93
  Q 401.02 651.16 400.81 651.60
  L 400.59 652.07
  Q 400.33 652.62 400.86 652.90
  Q 411.35 658.39 422.96 660.80
  Q 423.43 660.90 423.64 660.47
  Q 425.58 656.67 429.20 654.43
  Q 429.67 654.14 429.25 653.78
  Q 427.67 652.43 427.79 650.50
  Z"
/>
<path fill="#01426b" d="
  M 479.46 634.25
  L 486.71 647.25
  Q 488.20 652.15 491.37 656.19
  C 502.40 670.26 509.86 682.74 523.25 693.13
  Q 534.58 701.92 546.27 710.24
  Q 546.44 710.36 546.41 710.56
  L 546.24 711.54
  Q 546.13 712.16 546.66 712.49
  Q 548.06 713.38 547.32 714.99
  Q 547.11 715.44 547.09 715.94
  C 546.79 722.61 550.48 726.78 555.14 730.99
  Q 555.49 731.31 555.54 731.79
  Q 555.63 732.76 556.55 732.89
  Q 559.15 733.27 556.66 733.60
  Q 556.33 733.64 555.74 733.50
  Q 554.40 733.20 555.94 733.80
  L 557.54 734.44
  Q 558.63 734.87 557.47 734.73
  Q 553.41 734.25 549.77 732.37
  Q 549.26 732.11 549.03 732.63
  Q 548.93 732.88 549.00 733.21
  C 530.82 725.80 514.97 716.33 498.26 706.23
  C 478.51 694.30 462.97 679.87 446.11 662.64
  Q 433.19 649.44 424.46 635.25
  Q 424.56 634.61 425.27 634.63
  Q 425.96 634.65 425.66 634.03
  C 424.96 632.56 425.68 631.51 427.23 631.32
  Q 434.82 630.36 441.22 634.53
  Q 441.75 634.87 441.75 634.24
  L 441.75 633.81
  Q 441.75 633.30 442.21 633.52
  L 451.04 637.71
  Q 451.47 637.92 451.65 638.36
  Q 453.12 641.99 457.30 641.72
  Q 457.86 641.69 458.28 642.06
  L 460.58 644.12
  Q 460.90 644.41 461.33 644.36
  Q 470.16 643.44 478.80 645.47
  Q 479.40 645.61 479.76 645.10
  Q 480.77 643.67 482.45 643.62
  Q 483.17 643.60 482.86 642.94
  C 482.27 641.68 477.18 634.72 479.46 634.25
  Z"
/>
<path fill="#02c5b5" d="
  M 878.37 734.52
  L 893.89 719.85
  Q 894.28 719.49 894.25 718.95
  Q 894.16 717.51 895.00 716.46
  C 905.86 705.90 918.18 698.47 930.76 690.26
  C 933.31 688.60 935.52 686.24 937.98 684.32
  A 0.38 0.37 -4.2 0 1 938.54 684.80
  C 935.40 690.35 932.31 695.76 928.14 700.54
  C 917.53 712.68 908.49 718.66 893.56 727.55
  Q 885.43 732.39 878.37 734.52
  Z"
/>
<path fill="#01798d" d="
  M 789.80 736.18
  L 775.75 737.46
  Q 775.95 737.34 775.93 737.09
  Q 775.91 736.69 775.51 736.75
  C 774.23 736.96 773.12 736.94 771.87 737.15
  C 771.15 737.27 769.73 736.16 770.13 736.02
  Q 770.18 736.00 770.11 735.76
  Q 768.08 729.05 763.06 724.25
  Q 762.66 723.86 762.85 723.34
  L 763.25 722.29
  C 768.70 721.85 820.02 715.08 817.79 708.02
  Q 817.70 707.75 817.99 707.75
  Q 818.12 707.75 818.25 707.75
  Q 818.88 707.77 818.24 707.51
  Q 818.07 707.43 818.00 707.29
  Q 858.57 702.89 896.25 687.29
  C 896.78 689.06 902.67 686.76 904.12 686.42
  A 1.04 1.04 0.0 0 1 905.33 687.82
  L 901.56 697.19
  Q 901.40 697.60 900.96 697.65
  Q 888.25 699.19 876.57 704.32
  C 846.87 717.35 822.99 727.61 795.10 734.39
  C 793.44 734.79 791.65 735.79 789.80 736.18
  Z"
/>
<path fill="#022d6a" d="
  M 130.75 705.21
  Q 132.48 709.26 136.79 709.89
  Q 137.29 709.96 137.73 709.71
  Q 138.96 709.03 139.98 709.71
  Q 140.43 710.01 140.97 710.01
  C 144.56 710.05 148.28 710.84 151.60 710.90
  Q 161.00 711.07 170.37 711.98
  Q 172.16 712.16 174.41 713.28
  Q 179.57 715.84 185.56 714.81
  Q 187.10 714.54 189.33 715.61
  Q 189.99 715.92 189.28 716.12
  Q 187.45 716.63 185.95 715.40
  A 1.63 1.62 -38.0 0 0 184.21 715.19
  L 179.54 717.42
  Q 178.99 717.69 179.60 717.72
  C 182.33 717.88 184.80 717.36 187.42 717.96
  Q 191.29 718.84 195.16 719.71
  C 198.60 720.49 201.95 719.50 205.65 720.32
  C 208.94 721.04 212.26 720.84 215.49 722.07
  C 218.31 723.14 226.45 720.37 229.23 718.95
  Q 236.47 715.27 244.48 714.02
  C 247.95 713.47 252.97 711.76 257.71 712.63
  C 261.69 713.37 265.21 711.93 268.98 713.13
  C 270.87 713.73 272.28 714.36 274.39 714.14
  Q 276.85 713.90 279.28 714.34
  Q 279.56 714.40 279.60 714.12
  L 279.79 712.89
  Q 279.88 712.34 280.42 712.46
  L 284.52 713.34
  Q 284.97 713.44 285.30 713.76
  L 287.55 715.95
  Q 288.00 716.38 288.00 715.75
  L 288.00 714.76
  Q 288.00 714.26 288.50 714.24
  L 299.63 713.73
  Q 300.09 713.71 300.41 714.03
  L 300.69 714.31
  Q 300.92 714.55 301.01 714.23
  Q 301.05 714.10 301.09 713.98
  Q 301.14 713.83 301.25 713.94
  C 320.53 732.02 346.11 744.99 370.84 754.56
  C 381.76 758.78 395.82 762.45 408.23 766.64
  C 411.58 767.77 414.73 768.35 417.85 770.60
  Q 418.27 770.91 418.78 770.87
  Q 426.79 770.29 434.76 771.10
  C 425.68 771.98 414.66 772.09 407.51 772.45
  Q 343.55 775.63 280.00 767.49
  Q 272.19 766.49 249.46 760.91
  C 211.94 751.69 176.86 737.53 143.78 717.44
  Q 137.72 713.77 129.63 707.20
  Q 129.23 706.88 129.50 706.44
  Q 129.97 705.68 130.75 705.21
  Z"
/>
<path fill="#01798d" d="
  M 896.21 712.50
  Q 895.11 714.33 895.00 716.46
  Q 894.16 717.51 894.25 718.95
  Q 894.28 719.49 893.89 719.85
  L 878.37 734.52
  Q 852.76 744.77 826.30 752.78
  Q 823.83 749.79 825.45 746.93
  Q 826.46 745.14 828.87 743.68
  Q 829.30 743.41 829.25 742.90
  C 829.15 741.98 829.29 741.60 830.14 741.17
  C 836.08 738.15 841.55 733.62 846.71 730.49
  C 853.34 726.48 859.19 721.82 866.49 718.99
  Q 870.19 717.56 874.87 715.48
  Q 881.99 712.32 890.78 711.08
  Q 894.15 710.61 896.21 712.50
  Z"
/>
<path fill="#01426b" d="
  M 633.49 730.22
  Q 627.36 729.17 621.53 727.03
  Q 627.91 727.05 633.49 730.22
  Z"
/>
<path fill="#919191" d="
  M 6.70 1013.63
  L 0.00 1013.86
  L 0.00 994.44
  L 0.26 993.59
  Q 0.39 993.18 0.82 993.21
  L 6.08 993.61
  Q 6.42 993.63 6.43 993.98
  L 6.70 1013.63
  Z"
/>
<path fill="#016179" d="
  M 6.70 1013.63
  L 6.44 1024.00
  L 0.00 1024.00
  L 0.00 1013.86
  L 6.70 1013.63
  Z"
/>
</svg>
